<svg width="16" height="24" viewBox="0 0 16 24" fill="none" xmlns="http://www.w3.org/2000/svg">
<path fill-rule="evenodd" clip-rule="evenodd" d="M0 2.57143C0 1.15127 1.15127 0 2.57143 0H12.8571C14.2773 0 15.4286 1.15127 15.4286 2.57143V21.4286C15.4286 22.8488 14.2773 24 12.8571 24H2.57143C1.15127 24 0 22.8488 0 21.4286V2.57143ZM13.7143 18.8571H1.71429V2.57143C1.71429 2.09805 2.09805 1.71429 2.57143 1.71429H3.756L4.37623 2.95475C4.52143 3.24514 4.81817 3.42857 5.14286 3.42857H10.2857C10.6104 3.42857 10.9071 3.24514 11.0523 2.95475L11.6726 1.71429H12.8571C13.3305 1.71429 13.7143 2.09805 13.7143 2.57143V18.8571Z" fill="white"/>
</svg>
