<svg width="68" height="68" viewBox="0 0 68 68" fill="none" xmlns="http://www.w3.org/2000/svg">
<path fill-rule="evenodd" clip-rule="evenodd" d="M45.3335 62.3333L22.6668 62.3333C18.7285 62.3333 14.997 60.1857 12.0447 56.287C8.23099 51.255 5.66683 43.1573 5.66683 34C5.66683 24.8427 8.23099 16.745 12.0447 11.713C14.997 7.81434 18.7285 5.66667 22.6668 5.66667L45.3335 5.66667C49.2718 5.66667 53.0033 7.81434 55.9557 11.713C59.7693 16.745 62.3335 24.8427 62.3335 34C62.3335 43.1573 59.7693 51.255 55.9557 56.287C53.0033 60.1857 49.2718 62.3333 45.3335 62.3333ZM56.6612 33.2775C56.5393 25.84 54.5588 19.2525 51.4393 15.1328C49.7025 12.8407 47.6512 11.3333 45.3335 11.3333L22.6668 11.3333C20.3492 11.3333 18.2978 12.8407 16.561 15.1328C13.3395 19.3857 11.3335 26.2678 11.3335 34C11.3335 41.7322 13.3395 48.6143 16.561 52.8672C18.2978 55.1593 20.3492 56.6667 22.6668 56.6667L45.3335 56.6667C47.6512 56.6667 49.7025 55.1593 51.4393 52.8672C54.6608 48.6143 56.6668 41.7322 56.6668 34L56.6612 33.2775ZM31.1668 26.673L27.5033 30.3365C26.3983 31.4415 24.602 31.4415 23.497 30.3365C22.392 29.2315 22.392 27.4352 23.497 26.3302L31.997 17.8302C33.102 16.7223 34.8983 16.7223 36.0033 17.8302L44.5033 26.3302C45.6083 27.4352 45.6083 29.2315 44.5033 30.3365C43.3983 31.4415 41.602 31.4415 40.497 30.3365L36.8335 26.673L36.8335 48.1667C36.8335 49.7307 35.5642 51 34.0002 51C32.4362 51 31.1668 49.7307 31.1668 48.1667L31.1668 26.673Z" fill="white"/>
</svg>
