<svg width="302" height="81" viewBox="0 0 302 81" fill="none" xmlns="http://www.w3.org/2000/svg">
<g clip-path="url(#clip0_49_650)">
<path d="M55.6892 42.0145C54.6236 42.7438 53.6702 43.6413 52.8851 44.7071C52.1 45.7729 51.4831 47.0069 51.0344 48.241C50.1371 50.7652 50.5297 53.2334 51.7635 55.2528C54.0628 56.2064 56.5865 56.7112 59.2223 56.7112H59.2784C61.073 56.7112 62.9798 56.4307 64.8305 55.9259C64.5501 55.1967 64.5501 54.4114 64.6623 53.626C64.8305 52.5602 65.3913 51.7188 65.9521 50.8213C67.4103 48.6337 68.4197 46.2216 68.7001 43.5852C68.9245 41.7341 69.0927 39.883 68.588 38.0319C67.6907 34.6662 65.7278 31.9176 63.0359 29.7299C61.6338 28.608 60.0636 27.6544 58.4372 26.9252C58.0446 26.7569 57.596 26.6447 57.0912 26.4765C57.2034 27.0374 57.3156 27.4862 57.3716 27.9349C56.8669 27.8788 56.3622 27.8788 55.8014 27.8227C56.0818 28.3837 56.1939 28.7763 56.4743 29.169C56.7547 29.6177 56.6426 29.8982 56.25 30.2348C55.6892 30.7396 55.1844 31.2445 54.7919 31.8615C54.1189 32.8151 53.6142 33.7687 52.7729 34.554C52.6047 34.7223 52.5486 35.115 52.6047 35.3393C52.9973 37.0222 54.5676 38.2001 56.3061 38.2562C56.8669 38.2562 57.4277 38.3123 57.9885 38.4245C58.8858 38.6489 59.5588 39.4342 59.5588 40.2756C59.4467 40.2195 55.9696 41.7902 55.6892 42.0145Z" fill="white"/>
<path d="M72.9623 10.4335C70.2143 12.5651 67.6345 14.9771 65.6156 17.838C63.5967 20.6427 62.5311 23.7839 62.4189 27.2057C62.4189 27.4862 62.4189 27.6544 62.6994 27.8227C63.8771 28.5519 64.9426 29.4494 65.8399 30.5152C67.5785 32.4785 69.1487 34.554 69.7656 37.1344C70.7751 41.4536 70.3265 45.6046 68.3636 49.6434C67.8028 50.8213 67.1298 51.9432 66.6812 53.1212C66.4007 53.8504 66.3447 54.5796 66.5129 55.1967C68.5879 54.5796 70.6069 53.6821 72.5697 52.5603C72.5697 52.5042 72.6258 52.4481 72.6258 52.392C73.1866 50.9896 73.8035 49.5873 74.4765 48.1849C75.5981 45.7729 76.6637 43.3608 77.4488 40.8366C78.1218 38.4806 78.0097 36.1808 76.8319 33.9931C76.3272 33.0395 75.9346 32.0859 75.486 31.1884C74.9812 30.1787 74.7008 29.0568 74.8691 27.9349C75.0934 26.196 75.7103 25.2424 77.6732 25.5789C78.7387 25.7472 79.7482 25.8594 80.8137 25.9155C81.7671 25.9716 82.6084 25.5229 83.1692 24.6814C83.8982 23.6157 84.2347 22.4938 84.2347 21.2036C84.2347 20.8109 84.0665 20.5866 83.6739 20.4744C82.5523 20.1939 81.3746 19.8012 80.2529 19.4647C79.8043 19.2964 79.4678 19.0159 79.1874 18.5672C78.2901 16.9965 77.3367 15.4259 75.8786 14.304C75.8225 14.2479 75.7664 14.0235 75.8225 13.9114C76.2711 12.9017 76.7759 11.892 77.2806 10.9384C77.3367 10.8262 77.4488 10.6579 77.5049 10.5457C77.5049 10.4896 77.4488 10.4896 77.4488 10.4335C76.2711 10.5457 75.2617 11.1067 74.1961 11.8359C74.1961 11.2188 74.1961 10.6579 74.1961 9.92867C73.6353 10.097 73.2427 10.2091 72.9623 10.4335Z" fill="white"/>
<path d="M67.1298 0C60.0635 0 53.1655 2.63643 47.9499 7.34834C42.6782 2.63643 35.8362 0 28.7699 0C12.8988 0 0 12.9017 0 28.7763C0 36.6295 3.30882 44.2583 9.02916 49.6994C22.9374 63.5547 45.4262 79.3172 46.3796 79.9903L47.8938 81.0561L49.408 79.9903C49.9688 79.5977 58.1007 73.9321 67.5224 66.5277C66.1764 66.7521 64.8305 66.8643 63.4284 66.8643C61.9142 66.8643 60.3439 66.7521 58.8858 66.4716C54.0628 70.1738 49.9688 73.0907 47.8938 74.6053C42.5099 70.7909 24.2834 57.4965 12.7305 45.9972L12.6745 45.9411C7.90752 41.4536 5.32776 35.3954 5.32776 28.8885C5.32776 15.9868 15.815 5.44114 28.7699 5.44114C35.2754 5.32895 41.5565 8.07756 45.987 12.9017L47.9499 15.0332L49.9127 12.9017C54.3432 8.07756 60.6243 5.32895 67.1298 5.32895C80.0286 5.32895 90.572 15.8186 90.572 28.7763C90.572 30.6835 90.3476 32.5907 89.899 34.3857C87.824 42.9121 80.5333 51.214 71.9528 55.6454C70.3265 56.4868 68.7001 57.16 67.0176 57.7209C66.9616 57.7209 66.9055 57.777 66.7933 57.777C64.2696 58.5623 61.6899 59.0111 59.1101 59.0111C57.652 59.0111 56.1939 58.8428 54.7918 58.5623C50.9783 57.777 47.389 56.0381 44.585 53.3456C46.8282 55.4771 48.4546 57.7209 51.2026 59.4037C59.3905 64.4522 68.8683 62.9938 76.7198 58.5623C78.9631 57.2722 81.0942 55.7576 83.0009 54.0748C83.8422 53.3456 84.6834 52.5603 85.4685 51.7188C90.572 46.3899 94.8903 38.9294 95.6754 31.5249C95.7876 30.5713 95.8436 29.6177 95.8436 28.6641C95.8997 12.9017 83.0009 0 67.1298 0Z" fill="white"/>
<path d="M16.9367 40.0512C17.161 40.3317 17.3853 40.6122 17.6097 40.8366C17.6657 40.8927 17.7218 40.9488 17.7218 41.0048C17.7218 41.3975 17.9462 41.678 18.0583 41.9585C18.1144 42.1267 18.2826 42.2389 18.3948 42.3511C18.7313 42.6877 19.1239 43.0242 19.4604 43.4169C19.7408 43.6974 20.0773 43.9217 20.4137 44.0339L21.8158 41.117C21.8719 41.0049 21.984 40.8366 22.0401 40.7244C17.4414 36.349 17.2732 34.1053 17.7779 32.5907C18.0583 31.7493 18.8995 30.347 21.1989 30.347C21.4232 30.347 21.6475 30.347 21.8719 30.403L22.4327 30.4591L23.4422 31.4127L23.8347 30.7396C24.0591 30.7957 24.3395 30.8518 24.5638 30.964C24.5077 30.8518 24.4516 30.7957 24.3956 30.6835C24.2273 30.4591 24.1151 30.2909 24.1712 30.0104C24.1712 29.8982 24.1712 29.786 24.1712 29.6738C24.2273 29.3373 24.1151 29.1129 23.8908 28.8324C23.5543 28.4958 23.4982 28.0471 23.5543 27.5422C23.7787 27.8788 24.1151 28.1593 24.1151 28.608C24.1151 28.7763 24.2834 28.8885 24.3956 29.0568C24.4516 29.169 24.5077 29.2812 24.5638 29.3373C24.5638 29.3934 24.5638 29.5055 24.5638 29.5616C24.5077 29.8421 24.6199 30.0665 24.9003 30.1787C25.1246 30.2909 25.1246 30.5152 25.1807 30.7396C25.2368 30.8518 25.2368 30.964 25.2929 31.0201C25.3489 31.0762 25.405 31.1323 25.4611 31.1884C26.078 31.4127 26.8631 31.8054 27.6483 32.3102C28.0969 32.0859 28.5456 31.8615 28.9943 31.581C29.3868 31.3566 29.7794 31.0762 30.172 30.8518C30.4524 30.6835 30.6206 30.403 30.6767 30.0665C30.7328 29.9543 30.8449 29.8421 30.901 29.7299C30.9571 29.6177 31.1254 29.4494 31.0693 29.3373C31.0132 29.1129 30.901 28.7763 30.5645 28.8324C30.0598 28.8885 30.0598 28.5519 30.0037 28.2715C30.5085 28.7202 31.1254 28.6641 31.7983 28.5519C32.1348 28.4958 32.4152 28.3837 32.7517 28.3837C32.8639 28.3837 33.0882 28.5519 33.1443 28.7202C33.3125 29.169 33.7612 29.3373 34.0977 29.6177C34.1538 29.6738 34.2659 29.6177 34.3781 29.5616C34.6585 29.4494 34.7146 29.4494 34.7707 29.786C34.8267 30.0104 34.8828 30.2909 34.8828 30.5152C34.9389 31.0201 35.2754 31.4127 35.5558 31.8615C35.8923 32.3663 36.2288 32.8712 36.6774 33.4882C36.9018 33.1517 37.0139 32.9273 37.1822 32.6468H37.2383C37.2383 32.8712 37.2383 33.1517 37.2383 33.376C37.2383 33.6565 37.4626 33.8248 37.743 33.8248C38.0234 33.8248 38.0234 33.6565 38.0795 33.4321C38.1917 32.9834 37.9112 32.7029 37.5748 32.4224C37.4065 32.3102 37.4065 32.1981 37.4065 32.0859C37.5187 31.6371 37.5187 31.1323 37.4065 30.6835C37.4065 30.6274 37.4065 30.5713 37.4626 30.5713C38.0795 30.1226 38.3038 29.3934 38.6403 28.7763C38.8646 28.3276 39.2572 28.2154 39.5937 27.9349C39.8741 28.2154 40.1545 28.4398 40.4349 28.6641C40.491 28.7202 40.491 28.7763 40.491 28.8324C40.6032 29.1129 40.7714 29.3934 40.8836 29.6738C41.0518 29.5055 41.164 29.3934 41.2761 29.2251C41.5005 29.5616 41.7248 29.8982 41.7248 30.2909C41.7248 30.6274 41.7809 30.964 41.837 31.2445C41.893 31.4127 42.0052 31.581 42.1174 31.6371C42.4539 31.8615 42.566 32.142 42.4539 32.5907C42.3417 32.5346 42.1735 32.4785 42.0613 32.3663C41.7809 32.1981 41.5005 32.2542 41.3883 32.4785C41.2761 32.6468 41.3322 32.9273 41.5566 33.0956H41.6126C42.0613 33.3199 42.3417 33.7126 42.5099 34.1614C42.6782 34.6662 43.1268 34.8345 43.6877 34.8906C43.7437 34.554 43.8559 34.1614 43.8559 33.8248C43.7998 33.6004 43.5755 33.376 43.4072 33.1517C43.3512 33.0956 43.239 33.0395 43.1829 32.9273C43.2951 32.9834 43.4072 32.9834 43.5755 33.0395C43.5194 32.759 43.5194 32.5346 43.4633 32.2542C43.4633 32.1981 43.4072 32.0859 43.4072 32.0298C43.3512 31.8054 43.2951 31.6371 43.0147 31.4688C42.6221 31.2445 42.2856 30.9079 42.3417 30.403C42.3417 30.1787 42.3417 29.9543 42.3417 29.7299C42.7904 30.0104 43.2951 30.0104 43.4633 30.6274C43.5194 30.4591 43.5755 30.2909 43.6316 30.1226C43.8559 29.5616 43.9681 28.9446 43.912 28.3837C43.8559 27.9349 43.6877 27.8227 43.2951 27.5983C43.1268 27.5422 43.0147 27.2057 42.9586 26.9813C42.9025 26.813 43.0147 26.5886 43.0147 26.4204C43.0147 26.3643 43.1268 26.3082 43.1829 26.196C43.1829 26.5326 43.1829 26.813 43.1829 27.0935C43.2951 27.0935 43.4633 27.1496 43.5755 27.1496C43.6877 26.7569 43.6877 26.3643 43.5755 26.0277C43.5194 25.9716 43.5755 25.8594 43.5755 25.7472C43.6316 25.5789 43.7437 25.4668 43.7998 25.2985C44.3606 24.4571 44.1924 23.6157 44.0241 22.7181C43.912 22.045 43.5755 21.5402 43.0147 21.2036C42.5099 20.867 42.566 20.4183 42.566 19.9134C42.7904 20.0817 43.0147 20.25 43.239 20.4183C43.2951 20.1939 43.2951 20.0256 43.2951 19.8573C43.2951 19.633 43.2951 19.4647 43.0708 19.3525C42.5099 19.072 42.3417 18.5111 42.0052 18.0062C41.893 17.8379 41.7809 17.6697 41.9491 17.3892C42.0052 17.3331 41.9491 17.1648 41.893 17.1087C41.5005 16.5478 41.1079 15.9307 40.6032 15.4259C40.2106 15.0332 39.7619 14.7528 39.3133 14.4162C39.2572 14.3601 39.089 14.4162 39.089 14.4723C38.9768 14.5845 38.9207 14.5845 38.8085 14.4723C38.4721 14.0796 38.0795 13.7431 37.7991 13.3504C37.6869 13.2382 37.743 13.0138 37.6869 12.7895C38.0234 12.9578 38.2477 13.0138 38.4721 13.126C38.7525 13.2382 39.0329 13.4065 39.3133 13.5187C39.3694 13.5748 39.4815 13.5187 39.5376 13.5187C39.4815 13.4626 39.4815 13.3504 39.4254 13.2943C39.2011 13.126 38.9207 12.9578 38.6403 12.7895C38.5281 12.7334 38.4721 12.6212 38.3599 12.509L38.416 12.4529C38.6964 12.6773 39.0329 12.8456 39.3133 13.0699C39.9302 13.5748 40.5471 14.0796 41.1079 14.5845C42.2295 15.6503 43.0708 16.8843 43.9681 18.1184C44.8093 19.3525 45.314 20.7548 45.8188 22.1572C46.2113 23.2791 46.4917 24.5132 46.6039 25.6911C46.7161 26.9813 46.7722 28.2715 46.7161 29.5055C46.6039 31.4127 46.0992 33.3199 45.3701 35.115C45.0897 35.7881 44.8093 36.4051 44.5289 37.0783C44.641 37.1343 44.7532 37.1904 44.8654 37.2465C45.2019 36.6295 45.4823 36.0125 45.7066 35.3954C46.1553 34.0492 46.66 32.7029 46.8282 31.3006C46.8843 30.6274 47.0526 30.0104 46.9965 29.3373C46.9965 29.0568 46.9965 28.7763 46.9965 28.4398C46.9965 27.5983 47.1086 26.7569 47.0526 25.9716C46.9404 25.0741 46.7161 24.1766 46.4917 23.2791C45.987 21.2597 45.2579 19.4086 44.0241 17.6697C43.2951 16.6039 42.566 15.5381 41.6126 14.6406C40.9397 14.0235 40.2106 13.4626 39.5376 12.9017C38.8646 12.3968 38.1917 11.892 37.4626 11.4993C36.6774 11.0506 35.8923 10.6018 35.0511 10.2652C33.3125 9.5921 31.4618 9.14335 29.6111 8.91897C28.6017 8.80679 27.5922 8.86288 26.5827 8.91897C25.5733 8.97507 24.5638 9.14335 23.6104 9.36773C21.4232 9.81648 19.4043 10.714 17.5536 11.9481C15.815 13.0699 14.3569 14.4162 13.011 16.0429C12.0015 17.277 11.2163 18.6233 10.5434 20.0256C9.47782 22.3255 8.86092 24.7936 8.80484 27.374C8.74875 28.3837 8.86092 29.3934 8.917 30.403C8.97308 31.5249 9.19741 32.5907 9.5339 33.6004C9.98255 34.9467 10.4873 36.2929 11.2163 37.527C12.0015 38.9294 12.9549 40.2195 14.0204 41.3414C14.6934 42.0706 15.4786 42.7438 16.2637 43.3608C16.8806 43.8657 17.4975 44.3144 18.1705 44.7071C18.6752 44.9875 19.18 45.2119 19.6847 45.4924C19.7408 45.3802 19.7969 45.268 19.8529 45.0997C19.0117 44.7071 18.2266 44.2583 17.4414 43.7535C16.1515 42.9121 15.0299 41.9585 14.0204 40.8366C13.1792 39.9391 12.5062 38.9294 11.8893 37.8636C10.992 36.349 10.2069 34.7223 9.75822 32.9834C9.5339 32.1981 9.47782 31.3566 9.30957 30.5713C9.14133 29.6177 9.14133 28.6641 9.14133 27.7105C9.14133 26.7569 9.25349 25.8033 9.42173 24.9058C9.70214 23.5035 10.0386 22.1572 10.5994 20.867C11.0481 19.9134 11.4968 18.9598 12.0576 18.0623C12.6184 17.0526 13.3475 16.1551 14.1887 15.2576C14.4691 14.9211 14.8056 14.6406 15.1421 14.2479C15.1982 14.3601 15.2542 14.4162 15.2542 14.4162C15.3103 14.6406 15.4225 14.6406 15.5907 14.5284C16.4319 13.8553 17.2732 13.1821 18.1705 12.5651C18.5631 12.2846 19.0117 12.1724 19.4043 11.9481C19.6286 11.8359 19.8529 11.7237 20.0773 11.6676C20.3577 11.5554 20.6381 11.5554 20.9185 11.4993V11.5554C20.4698 11.7237 20.0212 11.892 19.5164 12.0602C19.0678 12.2285 18.8435 12.6212 18.5631 12.9017C18.507 12.9578 18.507 13.0699 18.507 13.2382C18.7874 13.1821 19.0678 13.126 19.2921 13.0139C19.909 12.7334 20.5259 12.7895 21.0867 12.9578C21.5915 13.126 22.0962 13.0699 22.5449 12.9017C23.4982 12.6212 24.5077 12.3407 25.4611 12.0042C25.5733 11.9481 25.7415 11.8359 25.8537 11.7237C25.9098 11.6676 25.9658 11.5554 26.0219 11.4432C26.2462 11.1066 26.2462 11.0506 25.8537 10.8823C26.3584 10.714 26.6388 10.2091 27.0314 9.87258C27.1996 9.70429 27.3679 9.47992 27.5361 9.36773C27.5922 9.31163 27.7044 9.25554 27.8165 9.25554C28.9382 9.19945 30.0037 9.31163 31.1254 9.53601C31.6301 9.6482 32.0787 9.70429 32.5835 9.87258C32.6956 9.92867 32.8639 10.0409 32.92 10.153C33.1443 10.4896 33.3686 10.8262 33.649 11.1627C33.7612 11.2749 33.7051 11.3871 33.649 11.4993C33.5369 11.6115 33.5369 11.8359 33.7051 11.9481C33.8173 12.0602 34.0416 12.1163 33.9294 12.3968C33.7612 12.3407 33.5369 12.3407 33.3686 12.2285C33.1443 12.1163 33.0321 12.2285 32.92 12.3968C32.8078 12.5651 32.6956 12.7334 32.5835 12.9017C32.5274 12.8456 32.5274 12.8456 32.4713 12.8456C32.3592 12.4529 32.0227 12.4529 31.7423 12.4529C31.6301 12.4529 31.574 12.4529 31.4618 12.4529C31.0693 12.4529 31.1254 12.4529 31.1814 12.7895C31.1814 12.9017 31.1254 13.0138 31.0693 13.126C30.9571 13.2943 30.7328 13.3504 30.8449 13.5748C30.7328 13.6309 30.6767 13.687 30.5645 13.7431C30.5645 13.8553 30.6206 13.9114 30.6206 14.0796C30.3963 14.0796 30.172 14.0235 29.9476 14.0235C29.7794 14.0235 29.6672 14.0235 29.6672 14.2479C29.6672 14.4723 29.5551 14.6967 29.499 14.9771C29.2186 14.9211 28.9943 14.8089 28.7138 14.7528C28.5456 14.6967 28.5456 14.5845 28.6578 14.4162C28.9382 14.1357 29.1625 13.7992 29.4429 13.4626C29.499 13.4065 29.499 13.2943 29.5551 13.2382C29.499 13.2382 29.3868 13.1821 29.3307 13.1821C28.9942 13.0699 28.7699 13.2382 28.6017 13.5187C28.4334 13.7992 28.2091 14.0796 28.0409 14.3601C27.8165 14.6967 27.9287 14.9771 28.3213 15.0332C28.5456 15.0893 28.7138 15.0893 28.9943 15.1454C28.9382 15.2015 28.8821 15.2576 28.826 15.2576C28.4334 15.3698 28.0409 15.482 27.6483 15.5942C27.5922 15.5942 27.48 15.5381 27.48 15.5381C27.48 15.3698 27.424 15.2576 27.2557 15.2576C27.1436 15.2576 27.0314 15.3698 26.9753 15.482C26.6388 15.2015 26.2462 14.865 25.8537 14.5284C25.5172 14.2479 25.1246 14.4162 24.7881 14.4162C24.5638 14.4162 24.2834 14.5284 24.0591 14.5284C23.8347 14.5284 23.7226 14.6967 23.6104 14.8089C23.3861 15.0332 23.1618 15.2576 22.8813 15.4259C22.657 15.5381 22.3766 15.5942 22.0962 15.6503C21.5915 15.7625 21.3111 15.9868 21.1428 16.4356C21.0867 16.5478 21.0306 16.66 20.9746 16.8283C21.0306 16.9404 21.1428 17.0526 21.1428 17.0526C20.9746 17.1648 20.8624 17.277 20.7502 17.4453C20.6942 17.5014 20.6381 17.5575 20.6381 17.6697C20.582 17.9501 20.3577 18.0623 20.0773 18.0062C19.8529 17.9501 19.6847 18.0062 19.5725 18.1745C19.5164 18.2306 19.4043 18.2306 19.4043 18.2867C19.5164 17.8379 19.5725 17.3892 19.6847 16.8843C19.7968 16.8283 19.909 16.7161 20.0212 16.6039C20.3016 16.3234 20.3016 16.2112 19.9651 15.9868C19.909 15.9307 19.7408 15.9868 19.6286 15.9868C19.5725 15.9868 19.5164 16.099 19.4604 16.1551C19.18 16.5478 18.8435 16.7161 18.3387 16.66C18.2826 16.66 18.1705 16.7161 18.1144 16.7722C18.0022 16.8843 17.834 16.9965 17.7218 17.1087C17.6657 17.1648 17.6097 17.277 17.6657 17.3892C17.6657 17.5014 17.6657 17.6697 17.8901 17.6697C18.0022 17.6697 18.1144 17.7819 18.3387 17.838C18.1705 17.9501 18.0022 18.0623 17.834 18.2306C17.9462 18.3428 18.0583 18.3989 18.1705 18.5111C18.0583 18.5111 18.0022 18.5672 17.9462 18.5672C17.5536 18.5672 17.4414 18.6794 17.5536 19.0159C17.7218 19.4647 17.3853 19.7452 17.2171 20.0256C17.2171 20.0817 17.161 20.0817 17.1049 20.0817C16.9367 20.0817 16.488 19.7452 16.4319 19.5769C16.3759 19.5208 16.3198 19.4086 16.2076 19.4086C16.0955 19.4086 15.9272 19.4647 15.9272 19.5208C15.8711 19.8012 15.6468 19.9695 15.4786 20.1939C15.2542 20.4744 15.086 20.8109 14.9177 21.1475C14.8617 21.2036 14.8617 21.3158 14.9177 21.3719C15.0299 21.5963 15.1981 21.7645 15.3664 21.9889C15.5907 22.2694 15.9272 22.2133 16.2076 22.1572C16.4319 22.1011 16.7124 21.9328 16.8245 21.5963C16.8245 21.5402 16.9928 21.428 17.0488 21.428C17.4414 21.3719 17.7779 21.3158 17.9462 20.8109C18.2266 21.2597 18.6191 21.0914 18.8995 21.0914C19.0678 21.4841 19.18 21.8767 19.3482 22.2694C19.4043 22.3816 19.5164 22.4938 19.5725 22.606C19.6286 22.7181 19.6286 22.7742 19.6847 22.8864C19.5725 22.8864 19.5164 22.9425 19.4043 22.9425C19.18 22.9425 18.9556 22.8864 18.7313 22.8864C18.6191 22.8864 18.5631 22.8864 18.3948 22.8303C18.4509 22.9425 18.507 23.0547 18.5631 23.0547C18.7874 23.223 18.9556 23.3913 19.18 23.5596C19.236 23.6157 19.3482 23.5596 19.3482 23.5596C19.4043 23.3352 19.5725 23.3352 19.7408 23.2791C19.7969 23.2791 19.8529 23.1108 19.909 23.0547C19.9651 22.9425 20.0773 22.7742 20.1333 22.8303C20.3016 22.8303 20.4137 22.9425 20.5259 22.9986C20.6942 23.1669 20.6942 23.3913 20.6381 23.5596C20.6381 23.6717 20.582 23.7839 20.582 23.8961C20.8063 24.0083 20.9746 24.0644 21.1989 23.84C21.255 23.7839 21.4232 23.7839 21.5354 23.7278C21.6475 23.5035 21.5915 23.2791 21.3671 23.0547C21.4793 22.9986 21.5354 22.9986 21.5915 22.9425C21.8719 22.8864 21.928 22.9986 21.8719 23.2791C21.7597 23.7278 21.984 24.0083 22.2084 24.3449C22.2084 24.401 22.3766 24.401 22.4327 24.401C22.7692 24.401 23.0496 24.401 23.33 24.6253C23.4982 24.7375 23.7226 24.6814 24.003 24.7375C23.8347 25.1863 23.6665 25.5789 23.4422 26.0277C23.33 26.0277 23.2739 25.9716 23.1618 25.9716C22.9935 25.9716 22.8253 25.8594 22.657 25.9155C22.1523 26.0838 21.7597 25.8033 21.3671 25.5789C21.0306 25.4107 20.7502 25.1863 20.4698 25.018C20.0773 24.7936 19.7969 24.9058 19.7408 25.3546C19.7408 25.4668 19.6847 25.5789 19.6286 25.5789C19.5725 25.635 19.4604 25.5789 19.3482 25.5229C19.0117 25.2424 18.7313 24.9619 18.7874 24.5132C18.6752 24.4571 18.6191 24.4571 18.507 24.401C18.0022 24.2327 18.0022 24.1205 18.2266 23.6717C18.3948 23.3352 18.2826 23.0547 18.1705 22.7742C18.1705 22.7181 18.0583 22.6621 18.0022 22.606C17.5536 22.4938 17.1049 22.4377 16.6563 22.3816C16.3198 22.3255 15.9833 22.3255 15.6468 22.3255C15.5907 22.3255 15.5346 22.2694 15.4786 22.2133C15.3664 22.1011 15.2542 21.9889 15.1421 21.8767C14.9738 21.9889 14.8617 22.1572 14.6934 22.2133C14.5813 22.2694 14.413 22.3255 14.3008 22.3255C14.1326 22.3255 13.9644 22.3255 13.9083 22.5499C13.7961 22.7742 13.6279 23.0547 13.4596 23.2791C13.4035 23.3352 13.2914 23.3913 13.2353 23.3913C12.6745 23.3913 12.3941 23.6717 12.1137 24.1205C12.0015 24.3449 11.7772 24.4571 11.6089 24.6253C11.5528 24.6814 11.4968 24.8497 11.4407 24.9619C11.4407 25.4668 11.3846 26.0277 11.1042 26.4765C11.0481 26.6447 10.9359 26.7569 10.8799 26.9252C10.5994 27.4862 10.7677 28.0471 10.8799 28.608C10.8799 28.7763 10.992 28.8885 10.9359 29.0568C10.8238 29.786 11.2724 30.347 11.4407 31.0201C11.4968 31.3566 11.8893 31.581 12.1697 31.5249C12.338 31.4688 12.4501 31.5249 12.5062 31.6371C12.6184 31.8615 12.7866 31.9176 13.011 31.8615C13.1231 31.8615 13.2914 31.8615 13.4035 31.8615C13.74 31.8054 14.0204 31.9737 14.1887 32.1981C14.2448 32.3103 14.3008 32.4224 14.3008 32.5907C14.3569 32.7029 14.3569 32.8151 14.3569 32.9834C14.5813 32.9834 14.8056 33.0395 15.1421 33.0395C15.3103 33.6004 15.4225 34.2175 15.086 34.7784C15.3664 35.1711 15.7029 35.5076 15.9272 35.9003C16.0955 36.1807 16.1515 36.4612 16.2637 36.7417C16.3759 37.0783 16.488 37.4709 16.5441 37.8075C16.5441 37.8636 16.5441 37.9758 16.5441 38.0319C16.4319 38.8733 16.488 39.4903 16.9367 40.0512ZM22.5449 11.1066C22.9935 10.9384 23.4422 10.8262 23.8908 10.6018C23.4982 11.1066 22.9935 10.9945 22.5449 11.1066ZM29.2186 28.1593C29.3868 28.2154 29.5551 28.2715 29.499 28.4398C29.3868 28.608 29.1625 28.7763 29.0503 28.7763C28.7138 28.7763 28.3774 28.608 28.2091 28.2154C28.0969 27.9349 27.9287 27.7105 27.7605 27.4862C27.7044 27.4301 27.6483 27.3179 27.5922 27.2057C27.7044 27.1496 27.8165 27.1496 27.9287 27.0935C27.9848 27.1496 28.0409 27.2057 28.0409 27.2618C28.2652 27.8227 28.7138 28.0471 29.2186 28.1593ZM27.5922 22.1011C27.7605 21.9328 27.9848 21.8206 28.153 21.7085C28.2091 21.6524 28.3213 21.7084 28.4334 21.6524C28.2652 21.9328 28.0969 22.1011 27.9848 22.2694C28.3213 22.606 28.4895 22.9425 28.5456 23.3913C28.5456 23.7278 28.7699 24.1205 28.8821 24.4571C28.9382 24.6253 28.8821 24.6814 28.7138 24.6814C28.6017 24.6814 28.4334 24.7375 28.3213 24.6814C28.153 24.6253 27.9287 24.5693 27.8726 24.4571C27.8165 24.2888 27.9287 24.1205 27.9848 23.8961C27.9848 23.84 28.0969 23.7839 28.153 23.7278C28.2652 23.6157 28.2652 23.5596 28.153 23.4474C27.9287 23.1669 27.7605 22.8864 27.5361 22.606C27.3679 22.3816 27.3679 22.2694 27.5922 22.1011ZM19.909 21.0353C20.0212 21.0914 20.1333 21.1475 20.1333 21.2036C20.1894 21.5963 20.4137 21.8767 20.6381 22.1572C20.6942 22.2133 20.6942 22.3255 20.7502 22.3816C20.4137 22.4938 20.0212 21.9328 19.909 21.0353ZM22.4888 18.3989C22.4327 18.3428 22.3205 18.3428 22.2644 18.3428C22.0401 18.3428 21.8719 18.3989 21.6475 18.3989C21.5915 18.3989 21.5354 18.2867 21.4793 18.2306C21.8158 18.2867 22.3766 18.0623 22.6009 17.838C22.7692 17.6136 22.9935 17.4453 23.2178 17.277C23.33 17.1648 23.4422 17.1648 23.3861 16.9404C23.33 16.4917 23.33 16.4917 23.8347 16.3234C23.7787 16.4356 23.6665 16.5478 23.6104 16.66C23.5543 16.7722 23.5543 16.9404 23.6104 17.0526C23.6665 17.1648 23.7226 17.277 23.5543 17.3892C23.4982 17.4453 23.5543 17.6136 23.4982 17.7258C23.4982 17.7258 23.4422 17.7258 23.3861 17.7258C23.0496 17.6697 22.8253 17.838 22.7131 18.1745C22.7131 18.5111 22.657 18.5111 22.4888 18.3989ZM23.7226 22.7742C23.6665 22.7742 23.6104 22.8303 23.5543 22.8303C23.33 23.0547 23.1618 22.8864 22.9935 22.7742C22.8253 22.6621 22.8813 22.4377 22.9935 22.3255C23.1057 22.2133 23.2739 22.1011 23.3861 21.9889C23.4982 21.8767 23.5543 21.7645 23.6104 21.7085C23.6665 21.6524 23.7226 21.5963 23.8347 21.5402C23.8908 21.5963 23.8908 21.7084 23.9469 21.7645C24.003 21.8767 23.9469 21.9889 24.003 22.1011C24.0591 22.1572 24.1712 22.2133 24.2834 22.2133C24.3395 22.2133 24.3956 22.1572 24.5077 22.1572C24.732 22.1011 24.9564 21.9889 25.1246 22.2694C25.1807 22.3816 25.3489 22.4377 25.5172 22.4938C25.7415 22.606 25.8537 22.7742 25.8537 23.0547C25.4611 23.2791 25.0124 23.223 24.676 22.9986C24.3395 22.8303 24.0591 22.6621 23.7226 22.7742Z" fill="white"/>
<path d="M29.4429 47.3996C29.7233 47.3996 29.9476 47.3435 30.228 47.3435C30.1159 47.2313 29.9476 47.1752 29.8354 47.063C29.7233 47.1752 29.6111 47.2874 29.4429 47.3996Z" fill="white"/>
<path d="M28.5455 32.8151C28.4333 32.8151 28.3211 32.759 28.209 32.759C28.3211 32.8151 28.3772 32.8712 28.4894 32.9273C28.5455 32.9273 28.5455 32.8712 28.5455 32.8151Z" fill="white"/>
<path d="M44.1364 32.759C44.1925 32.8712 44.1925 32.9834 44.1925 33.0956C44.2486 33.376 44.4168 33.4321 44.6972 33.3199C44.9215 33.2078 45.1459 33.0956 45.3702 32.9273C45.4263 32.8712 45.5384 32.759 45.5384 32.7029C45.6506 32.2542 45.7067 31.8615 45.7628 31.4127C45.7628 31.3006 45.8188 31.1323 45.7628 31.0201C45.6506 30.6835 45.6506 30.403 45.7067 30.0665C45.8188 29.5616 45.8188 29.5616 45.3141 29.3934C45.1459 29.7299 44.9776 30.0665 44.8094 30.4591C44.6411 30.8518 44.3046 31.1884 44.4168 31.6371C44.4168 31.6932 44.3607 31.7493 44.3046 31.8054C43.9681 32.0298 43.9681 32.3663 44.1364 32.759Z" fill="white"/>
<path d="M20.5257 14.5284C20.8622 14.6406 20.9743 14.4723 21.1426 14.2479C21.2547 14.0796 21.3108 14.0235 21.0865 13.9114C21.0304 13.9114 21.0304 13.7431 20.9743 13.6309C20.9182 13.5748 20.8622 13.4626 20.8622 13.4626C20.6378 13.5748 20.3574 13.687 20.1892 13.8553C20.077 14.0235 20.077 14.2479 19.9648 14.5284C20.1331 14.5284 20.3574 14.4723 20.5257 14.5284Z" fill="white"/>
<path d="M46.7162 48.2971C47.1088 47.9605 47.1088 47.3996 46.7162 47.063L46.4358 46.8386C45.9872 46.446 45.3703 46.2777 44.7534 46.3338L41.052 46.8947C40.3229 45.9972 39.4817 45.0997 38.5844 44.1461C38.4722 44.0339 38.4161 43.9778 38.304 43.8657C38.1357 43.6974 37.9675 43.473 37.7431 43.3047L39.9303 42.7999L40.6594 42.6316L45.202 41.5097C45.7628 41.3414 46.0432 40.6683 45.6507 40.1634L45.2581 39.6586C44.9216 39.2659 44.529 38.9294 44.0804 38.705C43.9682 38.6489 43.856 38.5928 43.7439 38.5367C43.4074 38.4245 43.0709 38.3123 42.6783 38.3123L31.6863 37.4709C30.3964 36.349 29.1066 35.3393 27.9849 34.554C26.7511 33.6565 25.6295 33.0395 24.7322 32.7029C24.2835 32.5346 23.8349 32.4224 23.3862 32.3103L25.966 34.7223L25.6856 35.7881L21.7599 31.9737C20.5261 31.8615 19.6848 32.142 19.3483 33.0956C18.7875 34.7223 20.6943 37.2465 23.6105 39.9952C23.6105 39.9952 23.6105 39.9952 23.6666 39.9952C24.1153 39.9952 24.5639 40.1634 24.9004 40.4439L25.1808 40.6683L25.966 41.2853L27.4802 42.4633L29.6113 44.1461C30.0039 44.4827 30.2843 44.9314 30.3404 45.4363C30.9012 45.829 31.4059 46.2216 31.9667 46.6143C32.135 46.7265 32.2471 46.8386 32.4154 46.9508C36.958 50.1482 41.1641 52.6164 41.8932 52.8968C42.9027 53.2334 44.1925 53.4017 44.529 52.4481C44.6412 52.1115 44.4169 51.5506 43.9682 50.7652L46.7162 48.2971Z" fill="white"/>
<path d="M22.3204 48.9141C22.6008 49.1946 22.9934 49.1946 23.3299 49.0263L26.3022 47.3435L26.9752 46.9508L28.5455 46.0533C28.8259 45.885 28.8259 45.5485 28.6016 45.3802L23.8907 41.6219C23.8346 41.5658 23.7225 41.5658 23.6103 41.5658C23.4421 41.5658 23.3299 41.6219 23.2177 41.7902L22.1522 44.0339L21.367 45.6046C21.367 45.6607 21.311 45.6607 21.311 45.7168C21.2549 45.829 21.1988 45.9411 21.1988 46.1094C20.9745 46.9508 21.2549 47.8483 21.8718 48.4654L22.3204 48.9141Z" fill="white"/>
<path d="M137.849 30.403C138.129 29.4494 138.298 28.4958 138.298 27.4861C138.298 26.3643 138.129 25.2985 137.793 24.3449C137.456 23.3352 136.896 22.4377 136.167 21.6524C135.438 20.867 134.484 20.25 133.419 19.8573C132.297 19.4086 131.007 19.2403 129.493 19.2403H116.874C116.426 19.2403 116.089 19.5769 116.089 20.0256V24.4571C116.089 24.9058 116.426 25.2424 116.874 25.2424H130.222C130.783 25.2424 131.231 25.4668 131.68 25.8594C132.129 26.3082 132.297 26.813 132.297 27.374C132.297 27.991 132.073 28.4958 131.68 28.9446C131.288 29.3373 130.783 29.5616 130.166 29.5616H124.838C122.202 29.5616 120.071 30.2348 118.501 31.6371C116.875 33.0395 116.089 35.115 116.089 37.7514V45.4363C116.089 45.885 116.426 46.2216 116.874 46.2216H121.305C121.754 46.2216 122.09 45.885 122.09 45.4363V37.9197C122.09 37.3026 122.258 36.7978 122.707 36.2929C123.1 35.8442 123.492 35.6759 124.053 35.6759H129.493C131.063 35.6759 132.409 35.4515 133.475 34.9467C134.596 34.4979 135.494 33.8248 136.223 33.0395C137.008 32.3103 137.569 31.4127 137.849 30.403Z" fill="white"/>
<path d="M187.089 45.4363V25.2985H192.192C192.641 25.2985 192.977 24.9619 192.977 24.5132V20.0817C192.977 19.633 192.641 19.2964 192.192 19.2964H175.592C175.143 19.2964 174.807 19.633 174.807 20.0817V24.5132C174.807 24.9619 175.143 25.2985 175.592 25.2985H181.032V45.4363C181.032 45.885 181.368 46.2216 181.817 46.2216H186.247C186.752 46.2216 187.089 45.885 187.089 45.4363Z" fill="white"/>
<path d="M122.202 56.5429L121.641 58.7867H121.585L121.08 56.5429L120.239 53.1773H119.23L118.388 56.4307L117.827 58.7867H117.771L117.211 56.4868L116.425 53.1773H115.36L117.267 60.3012H118.332L119.173 57.1039L119.678 54.9162H119.734L120.295 57.1039L121.08 60.3012H122.202L124.053 53.1773H123.043L122.202 56.5429Z" fill="white"/>
<path d="M125.567 60.3012H130.334V59.4598H126.52V57.16H129.773V56.3186H126.52V54.0748H130.334V53.1773H125.567V60.3012Z" fill="white"/>
<path d="M134.876 54.0748H136.895V60.3012H137.905V54.0748H139.924V53.1773H134.876V54.0748Z" fill="white"/>
<path d="M145.7 56.9356C145.868 56.7673 145.981 56.6551 146.093 56.4868C146.205 56.3186 146.261 56.1503 146.317 55.9259C146.373 55.7576 146.373 55.5332 146.373 55.3089C146.373 55.0284 146.317 54.804 146.261 54.5235C146.205 54.2431 146.093 54.0187 145.925 53.8504C145.756 53.626 145.532 53.4578 145.308 53.3456C145.027 53.2334 144.747 53.1773 144.41 53.1773H141.438V60.3012H142.391V57.4404H144.242L145.476 60.3012H146.541L145.195 57.2722C145.364 57.16 145.532 57.0478 145.7 56.9356ZM144.186 56.5429H142.391V54.0187H144.186C144.579 54.0187 144.859 54.1309 145.083 54.3553C145.308 54.5796 145.42 54.8601 145.42 55.2528C145.42 55.6454 145.308 55.9259 145.083 56.1503C144.859 56.4307 144.579 56.5429 144.186 56.5429Z" fill="white"/>
<path d="M150.131 53.1773L147.663 60.3012H148.673L149.233 58.7306H152.037L152.598 60.3012H153.608L151.14 53.1773H150.131ZM151.701 57.8331H149.458L150.019 56.1503L150.523 54.5235H150.579L151.084 56.1503L151.701 57.8331Z" fill="white"/>
<path d="M159.552 58.5062H159.44L158.487 57.0478L155.963 53.1773H155.066V60.3012H156.019V55.0284H156.075L157.085 56.599L159.552 60.3012H160.506V53.1773H159.552V58.5062Z" fill="white"/>
<path d="M166.562 56.8234C166.338 56.6551 166.114 56.5429 165.833 56.4868C165.553 56.3747 165.273 56.3186 164.992 56.2625C164.824 56.2064 164.656 56.2064 164.487 56.1503C164.319 56.0942 164.151 56.0381 163.983 55.982C163.814 55.9259 163.702 55.8137 163.59 55.7015C163.478 55.5893 163.422 55.4211 163.422 55.1967C163.422 54.9723 163.478 54.804 163.534 54.6918C163.59 54.5235 163.702 54.4114 163.814 54.2992C163.927 54.187 164.095 54.1309 164.263 54.0748C164.431 54.0187 164.6 54.0187 164.768 54.0187C165.104 54.0187 165.385 54.0748 165.721 54.1309C166.058 54.187 166.338 54.3553 166.675 54.5235L167.123 53.7382C166.787 53.5139 166.394 53.3456 166.002 53.2895C165.609 53.2334 165.216 53.1773 164.768 53.1773C164.431 53.1773 164.095 53.2334 163.814 53.3456C163.534 53.4578 163.31 53.5699 163.085 53.7943C162.861 53.9626 162.749 54.187 162.637 54.4114C162.525 54.6357 162.468 54.9162 162.468 55.2528C162.468 55.5893 162.525 55.8698 162.637 56.0942C162.749 56.3186 162.917 56.4868 163.141 56.6551C163.366 56.8234 163.59 56.9356 163.814 56.9917C164.095 57.1039 164.319 57.16 164.656 57.2161C164.824 57.2722 165.048 57.3283 165.273 57.3283C165.497 57.3283 165.665 57.4404 165.833 57.5526C166.002 57.6648 166.114 57.777 166.226 57.8892C166.338 58.0575 166.394 58.2258 166.394 58.4501C166.394 58.8428 166.282 59.1233 166.002 59.2916C165.721 59.5159 165.329 59.6281 164.88 59.6281C164.487 59.6281 164.151 59.572 163.814 59.4598C163.478 59.3476 163.141 59.1794 162.805 58.955L162.244 59.6281C162.637 59.9647 163.029 60.1891 163.478 60.3012C163.927 60.4134 164.375 60.5256 164.88 60.5256C165.273 60.5256 165.609 60.4695 165.889 60.4134C166.226 60.3012 166.45 60.1891 166.675 60.0208C166.899 59.8525 167.067 59.6281 167.179 59.4037C167.292 59.1794 167.348 58.8428 167.348 58.5623C167.348 58.1697 167.292 57.8892 167.123 57.6087C166.955 57.16 166.787 56.9356 166.562 56.8234Z" fill="white"/>
<path d="M173.405 53.8504C173.236 53.626 173.012 53.4578 172.788 53.3456C172.563 53.2334 172.227 53.1773 171.89 53.1773H168.918V60.3012H169.871V57.4404H171.89C172.227 57.4404 172.507 57.3843 172.732 57.2722C172.956 57.16 173.18 56.9917 173.348 56.7673C173.517 56.5429 173.629 56.3186 173.741 56.0942C173.853 55.8698 173.853 55.5893 173.853 55.3089C173.853 55.0284 173.797 54.804 173.741 54.5235C173.685 54.2431 173.573 54.0748 173.405 53.8504ZM172.563 56.2064C172.339 56.4307 172.002 56.5429 171.666 56.5429H169.871V54.0187H171.666C172.059 54.0187 172.339 54.1309 172.563 54.3553C172.788 54.5796 172.9 54.8601 172.9 55.2528C172.956 55.7015 172.844 56.0381 172.563 56.2064Z" fill="white"/>
<path d="M179.91 53.7943C179.686 53.5699 179.406 53.4017 179.069 53.2895C178.733 53.1773 178.396 53.1212 178.004 53.1212C177.611 53.1212 177.274 53.1773 176.938 53.2895C176.601 53.4017 176.321 53.5699 176.097 53.7943C175.872 54.0187 175.704 54.2431 175.536 54.5796C175.424 54.8601 175.368 55.1967 175.368 55.5332V58.0014C175.368 58.338 175.424 58.6745 175.536 59.0111C175.648 59.2916 175.816 59.572 176.097 59.7403C176.321 59.9647 176.601 60.133 176.938 60.2452C177.274 60.3573 177.611 60.4134 178.004 60.4134C178.396 60.4134 178.733 60.3573 179.069 60.2452C179.406 60.133 179.686 59.9647 179.91 59.7403C180.135 59.5159 180.359 59.2916 180.471 59.0111C180.583 58.7306 180.695 58.394 180.695 58.0014V55.5332C180.695 55.1967 180.639 54.8601 180.471 54.5796C180.303 54.2431 180.135 54.0187 179.91 53.7943ZM179.686 57.8892C179.686 58.1697 179.63 58.4501 179.574 58.6184C179.462 58.8428 179.349 59.0111 179.181 59.1233C179.013 59.2355 178.845 59.3476 178.676 59.4037C178.508 59.4598 178.284 59.5159 178.06 59.5159C177.835 59.5159 177.611 59.4598 177.443 59.4037C177.274 59.3476 177.05 59.2355 176.938 59.1233C176.826 59.0111 176.658 58.8428 176.601 58.6184C176.489 58.394 176.489 58.1697 176.489 57.8892V55.6454C176.489 55.365 176.545 55.0845 176.601 54.9162C176.714 54.6918 176.826 54.5235 176.938 54.4114C177.106 54.2992 177.274 54.187 177.443 54.1309C177.611 54.0748 177.835 54.0187 178.06 54.0187C178.284 54.0187 178.508 54.0748 178.676 54.1309C178.845 54.187 179.069 54.2992 179.181 54.4114C179.349 54.5235 179.462 54.6918 179.518 54.9162C179.63 55.1406 179.63 55.365 179.63 55.6454V57.8892H179.686Z" fill="white"/>
<path d="M186.752 56.9356C186.92 56.7673 187.032 56.6551 187.145 56.4868C187.257 56.3186 187.313 56.1503 187.369 55.9259C187.425 55.7576 187.425 55.5332 187.425 55.3089C187.425 55.0284 187.369 54.804 187.313 54.5235C187.257 54.2431 187.145 54.0187 186.976 53.8504C186.808 53.626 186.584 53.4578 186.359 53.3456C186.079 53.2334 185.799 53.1773 185.462 53.1773H182.49V60.3012H183.443V57.4404H185.294L186.472 60.3012H187.537L186.191 57.2722C186.415 57.16 186.64 57.0478 186.752 56.9356ZM185.294 56.5429H183.499V54.0187H185.294C185.686 54.0187 185.967 54.1309 186.191 54.3553C186.415 54.5796 186.528 54.8601 186.528 55.2528C186.528 55.6454 186.415 55.9259 186.191 56.1503C185.967 56.4307 185.63 56.5429 185.294 56.5429Z" fill="white"/>
<path d="M188.771 54.0748H190.846V60.3012H191.799V54.0748H193.818V53.1773H188.771V54.0748Z" fill="white"/>
<path d="M200.604 53.1773L198.137 60.3012H199.146L199.707 58.7306H202.511L203.072 60.3012H204.081L201.614 53.1773H200.604ZM202.231 57.8331H199.987L200.548 56.1503L201.053 54.5235H201.109L201.614 56.1503L202.231 57.8331Z" fill="white"/>
<path d="M210.026 58.5062H209.97L209.017 57.0478L206.437 53.1773H205.54V60.3012H206.493V55.0284H206.549L207.558 56.599L210.082 60.3012H210.979V53.1773H210.026V58.5062Z" fill="white"/>
<path d="M214.12 53.1773H213.167V60.3012H214.12V53.1773Z" fill="white"/>
<path d="M220.513 56.0942L219.616 58.0014H219.56L218.663 56.0942L217.204 53.1773H216.307V60.3012H217.261V55.4771H217.317L218.102 57.0478L219.223 59.2355H219.952L221.13 56.8234L221.803 55.4771H221.859V60.3012H222.757V53.1773H221.915L220.513 56.0942Z" fill="white"/>
<path d="M226.738 53.1773L224.271 60.3012H225.28L225.841 58.7306H228.645L229.206 60.3012H230.215L227.691 53.1773H226.738ZM228.364 57.8331H226.121L226.682 56.1503L227.187 54.5235H227.243L227.748 56.1503L228.364 57.8331Z" fill="white"/>
<path d="M232.683 53.1773H231.729V60.3012H236.496V59.4598H232.683V53.1773Z" fill="white"/>
<path d="M242.049 56.8234C241.824 56.6551 241.6 56.5429 241.32 56.4868C241.039 56.3747 240.759 56.3186 240.478 56.2625C240.31 56.2064 240.142 56.2064 239.974 56.1503C239.805 56.0942 239.637 56.0381 239.469 55.982C239.301 55.9259 239.189 55.8137 239.076 55.7015C238.964 55.5893 238.908 55.4211 238.908 55.1967C238.908 54.9723 238.964 54.804 239.02 54.6918C239.076 54.5235 239.189 54.4114 239.301 54.2992C239.413 54.187 239.581 54.1309 239.749 54.0748C239.918 54.0187 240.086 54.0187 240.254 54.0187C240.591 54.0187 240.871 54.0748 241.208 54.1309C241.544 54.187 241.824 54.3553 242.161 54.5235L242.61 53.7382C242.273 53.5139 241.881 53.3456 241.488 53.2895C241.095 53.2334 240.703 53.1773 240.254 53.1773C239.918 53.1773 239.581 53.2334 239.301 53.3456C239.02 53.4578 238.796 53.5699 238.572 53.7943C238.347 53.9626 238.235 54.187 238.123 54.4114C238.011 54.6357 237.955 54.9162 237.955 55.2528C237.955 55.5893 238.011 55.8698 238.123 56.0942C238.235 56.3186 238.403 56.4868 238.628 56.6551C238.852 56.8234 239.076 56.9356 239.301 56.9917C239.581 57.1039 239.806 57.16 240.142 57.2161C240.31 57.2722 240.535 57.3283 240.759 57.3283C240.983 57.3283 241.151 57.4404 241.32 57.5526C241.488 57.6648 241.6 57.777 241.712 57.8892C241.824 58.0575 241.881 58.2258 241.881 58.4501C241.881 58.8428 241.768 59.1233 241.488 59.2916C241.208 59.5159 240.815 59.6281 240.366 59.6281C239.974 59.6281 239.637 59.572 239.301 59.4598C238.964 59.3476 238.628 59.1794 238.291 58.955L237.73 59.6281C238.123 59.9647 238.516 60.1891 238.964 60.3012C239.413 60.4134 239.862 60.5256 240.366 60.5256C240.759 60.5256 241.095 60.4695 241.376 60.4134C241.712 60.3012 241.937 60.1891 242.161 60.0208C242.385 59.8525 242.554 59.6281 242.666 59.4037C242.778 59.1794 242.834 58.8428 242.834 58.5623C242.834 58.1697 242.778 57.8892 242.61 57.6087C242.441 57.16 242.273 56.9356 242.049 56.8234Z" fill="white"/>
<path d="M253.994 56.5429L253.489 58.7867H253.433L252.872 56.5429L252.031 53.1773H251.022L250.236 56.4307L249.676 58.7867H249.62L249.059 56.4868L248.217 53.1773H247.208L249.059 60.3012H250.18L250.965 57.1039L251.526 54.9162H251.582L252.087 57.1039L252.928 60.3012H253.994L255.901 53.1773H254.835L253.994 56.5429Z" fill="white"/>
<path d="M258.537 53.1773H257.583V60.3012H258.537V53.1773Z" fill="white"/>
<path d="M260.275 54.0748H262.35V60.3012H263.304V54.0748H265.379V53.1773H260.275V54.0748Z" fill="white"/>
<path d="M271.099 56.2625H267.79V53.1773H266.837V60.3012H267.79V57.1039H271.099V60.3012H272.109V53.1773H271.099V56.2625Z" fill="white"/>
<path d="M278.278 53.1773H277.324V60.3012H282.091V59.4598H278.278V53.1773Z" fill="white"/>
<path d="M287.98 53.7943C287.755 53.5699 287.475 53.4017 287.138 53.2895C286.802 53.1773 286.465 53.1212 286.073 53.1212C285.68 53.1212 285.344 53.1773 285.007 53.2895C284.671 53.4017 284.39 53.5699 284.166 53.7943C283.942 54.0187 283.774 54.2431 283.605 54.5796C283.493 54.8601 283.437 55.1967 283.437 55.5332V58.0014C283.437 58.338 283.493 58.6745 283.605 59.0111C283.717 59.2916 283.886 59.572 284.166 59.7403C284.39 59.9647 284.671 60.133 285.007 60.2452C285.344 60.3573 285.68 60.4134 286.073 60.4134C286.465 60.4134 286.802 60.3573 287.138 60.2452C287.475 60.133 287.755 59.9647 287.98 59.7403C288.204 59.5159 288.428 59.2916 288.54 59.0111C288.653 58.7306 288.765 58.394 288.765 58.0014V55.5332C288.765 55.1967 288.709 54.8601 288.54 54.5796C288.428 54.2431 288.26 54.0187 287.98 53.7943ZM287.755 57.8892C287.755 58.1697 287.699 58.4501 287.643 58.6184C287.531 58.8428 287.419 59.0111 287.251 59.1233C287.082 59.2355 286.914 59.3476 286.746 59.4037C286.578 59.4598 286.353 59.5159 286.129 59.5159C285.905 59.5159 285.68 59.4598 285.512 59.4037C285.344 59.3476 285.119 59.2355 285.007 59.1233C284.895 59.0111 284.727 58.8428 284.671 58.6184C284.559 58.394 284.559 58.1697 284.559 57.8892V55.6454C284.559 55.365 284.615 55.0845 284.671 54.9162C284.783 54.6918 284.895 54.5235 285.007 54.4114C285.176 54.2992 285.344 54.187 285.512 54.1309C285.68 54.0748 285.905 54.0187 286.129 54.0187C286.353 54.0187 286.578 54.0748 286.746 54.1309C286.914 54.187 287.138 54.2992 287.251 54.4114C287.419 54.5235 287.531 54.6918 287.587 54.9162C287.699 55.1406 287.699 55.365 287.699 55.6454V57.8892H287.755Z" fill="white"/>
<path d="M293.7 56.3747L292.971 58.8428H292.915L292.242 56.5429L291.176 53.1773H290.167L292.41 60.3012H293.476L295.775 53.1773H294.71L293.7 56.3747Z" fill="white"/>
<path d="M302 54.0748V53.1773H297.289V60.3012H302V59.4598H298.186V57.16H301.439V56.3186H298.186V54.0748H302Z" fill="white"/>
<path d="M145.869 25.3546H166.002C166.451 25.3546 166.787 25.018 166.787 24.5693V20.0817C166.787 19.633 166.451 19.2964 166.002 19.2964H145.869C145.42 19.2964 145.083 19.633 145.083 20.0817V24.5693C145.083 24.9619 145.476 25.3546 145.869 25.3546Z" fill="white"/>
<path d="M145.869 46.1094H166.002C166.451 46.1094 166.787 45.7729 166.787 45.3241V40.8366C166.787 40.3878 166.451 40.0513 166.002 40.0513H150.86V35.4515H159.945C160.394 35.4515 160.73 35.115 160.73 34.6662V30.1787C160.73 29.7299 160.394 29.3934 159.945 29.3934H145.869C145.42 29.3934 145.083 29.7299 145.083 30.1787V32.5346V34.6662V40.8366V43.0803V45.3241C145.083 45.7168 145.476 46.1094 145.869 46.1094Z" fill="white"/>
</g>
<defs>
<clipPath id="clip0_49_650">
<rect width="302" height="81" fill="white"/>
</clipPath>
</defs>
</svg>
