<svg width="17" height="24" viewBox="0 0 17 24" fill="none" xmlns="http://www.w3.org/2000/svg">
<path fill-rule="evenodd" clip-rule="evenodd" d="M0.75 2.57143C0.75 1.15127 1.90127 0 3.32143 0H13.6071C15.0273 0 16.1786 1.15127 16.1786 2.57143V21.4286C16.1786 22.8488 15.0273 24 13.6071 24H3.32143C1.90127 24 0.75 22.8488 0.75 21.4286V2.57143ZM14.4643 18.8571H2.46429V2.57143C2.46429 2.09805 2.84805 1.71429 3.32143 1.71429H4.506L5.12623 2.95475C5.27143 3.24514 5.56817 3.42857 5.89286 3.42857H11.0357C11.3604 3.42857 11.6571 3.24514 11.8023 2.95475L12.4226 1.71429H13.6071C14.0805 1.71429 14.4643 2.09805 14.4643 2.57143V18.8571Z" fill="#364A9A"/>
</svg>
