<svg width="129" height="128" viewBox="0 0 129 128" fill="none" xmlns="http://www.w3.org/2000/svg">
<path d="M89.5527 97.8909C88.9397 96.9719 87.6967 96.7239 86.7797 97.3359C85.8607 97.9489 85.6127 99.1899 86.2247 100.109L93.2347 111H64.8887H36.5427L43.5527 100.109C44.1657 99.1899 43.9167 97.9479 42.9977 97.3359C42.0807 96.7229 40.8367 96.9719 40.2247 97.8909L21.8887 126H26.8887L33.9687 115H64.8887H95.8087L102.889 126H107.889L89.5527 97.8909Z" fill="url(#paint0_linear_49_316)"/>
<path d="M64.8887 88H28.8887V90.047C28.8887 96.648 34.2397 102 40.8417 102H64.8887H88.9357C95.5377 102 100.889 96.648 100.889 90.047V88H64.8887Z" fill="url(#paint1_linear_49_316)"/>
<path d="M108.732 71H64.8887H20.8887C19.1447 71 17.8887 72.413 17.8887 74.157V84.843C17.8887 86.586 19.1447 88 20.8887 88H64.8887H108.889C110.546 88 111.889 86.657 111.889 85V74.157C111.889 72.413 110.475 71 108.732 71Z" fill="url(#paint2_linear_49_316)"/>
<path d="M64.8887 26H20.8887V71H64.8887H108.889V26H64.8887Z" fill="url(#paint3_linear_49_316)"/>
<path d="M73.8887 5H64.8887H55.8887C49.8887 5 46.8887 7 46.8887 8.601V12H64.8887H82.8887V8.601C82.8887 7 79.8887 5 73.8887 5Z" fill="url(#paint4_linear_49_316)"/>
<path d="M79.8887 9H64.8887H49.8887C36.8887 9 20.8887 18 20.8887 22H64.8887H108.889C108.889 18 92.8887 9 79.8887 9Z" fill="url(#paint5_linear_49_316)"/>
<path d="M64.8887 18C69.3069 18 72.8887 14.4183 72.8887 10C72.8887 5.58172 69.3069 2 64.8887 2C60.4704 2 56.8887 5.58172 56.8887 10C56.8887 14.4183 60.4704 18 64.8887 18Z" fill="url(#paint6_linear_49_316)"/>
<path d="M44.8887 90C47.6501 90 49.8887 87.7614 49.8887 85C49.8887 82.2386 47.6501 80 44.8887 80C42.1272 80 39.8887 82.2386 39.8887 85C39.8887 87.7614 42.1272 90 44.8887 90Z" fill="url(#paint7_linear_49_316)"/>
<path d="M44.8887 87C44.3367 87 43.8887 86.552 43.8887 86V84C43.8887 83.448 44.3367 83 44.8887 83C45.4407 83 45.8887 83.448 45.8887 84V86C45.8887 86.552 45.4407 87 44.8887 87Z" fill="url(#paint8_linear_49_316)"/>
<path d="M24.8887 26H61.8887V49H24.8887V26Z" fill="url(#paint9_linear_49_316)"/>
<path d="M29.8887 67C32.0978 67 33.8887 65.2091 33.8887 63C33.8887 60.7909 32.0978 59 29.8887 59C27.6795 59 25.8887 60.7909 25.8887 63C25.8887 65.2091 27.6795 67 29.8887 67Z" fill="url(#paint10_linear_49_316)"/>
<path d="M41.8887 67C43.5455 67 44.8887 65.6569 44.8887 64C44.8887 62.3431 43.5455 61 41.8887 61C40.2318 61 38.8887 62.3431 38.8887 64C38.8887 65.6569 40.2318 67 41.8887 67Z" fill="url(#paint11_linear_49_316)"/>
<path d="M20.8887 71C19.1447 71 17.8887 72.413 17.8887 74.157V84.843C17.8887 86.586 19.1447 88 20.8887 88H33.8827C30.2157 83.333 29.2137 75.667 28.9577 71H20.8887Z" fill="url(#paint12_linear_49_316)"/>
<path d="M29.4647 76H17.8887V83H31.1947C30.3497 80.722 29.8087 78.278 29.4647 76Z" fill="url(#paint13_linear_49_316)"/>
<path d="M109.168 22H64.8887H20.6097C19.6597 22 18.8887 22.771 18.8887 23.721V24.279C18.8887 25.229 19.6597 26 20.6097 26H64.8887H109.168C110.119 26 110.889 25.229 110.889 24.279V23.721C110.889 22.771 110.118 22 109.168 22Z" fill="url(#paint14_linear_49_316)"/>
<path d="M109.168 49H64.8887H20.6097C19.6597 49 18.8887 49.771 18.8887 50.721V51.279C18.8887 52.229 19.6597 53 20.6097 53H64.8887H109.168C110.119 53 110.889 52.229 110.889 51.279V50.721C110.889 49.771 110.118 49 109.168 49Z" fill="url(#paint15_linear_49_316)"/>
<path d="M67.8887 49H104.889V26H67.8887V49Z" fill="url(#paint16_linear_49_316)"/>
<path d="M99.8887 67C102.098 67 103.889 65.2091 103.889 63C103.889 60.7909 102.098 59 99.8887 59C97.6795 59 95.8887 60.7909 95.8887 63C95.8887 65.2091 97.6795 67 99.8887 67Z" fill="url(#paint17_linear_49_316)"/>
<path d="M87.8887 67C89.5455 67 90.8887 65.6569 90.8887 64C90.8887 62.3431 89.5455 61 87.8887 61C86.2318 61 84.8887 62.3431 84.8887 64C84.8887 65.6569 86.2318 67 87.8887 67Z" fill="url(#paint18_linear_49_316)"/>
<path d="M108.889 71C110.633 71 111.889 72.413 111.889 74.157V84.843C111.889 86.587 110.633 88 108.889 88H95.8945C99.5615 83.333 100.564 75.667 100.82 71H108.889Z" fill="url(#paint19_linear_49_316)"/>
<path d="M100.313 76H111.889V83H98.5825C99.4275 80.722 99.9685 78.278 100.313 76Z" fill="url(#paint20_linear_49_316)"/>
<path d="M64.8887 53H50.8887C50.8887 53 53.8887 71 64.8887 71C75.8887 71 78.8887 53 78.8887 53H64.8887Z" fill="url(#paint21_linear_49_316)"/>
<path d="M64.8887 53H50.8887C50.8887 53 51.5917 57.193 53.5507 61.532C56.3417 64.096 60.0397 66 64.8887 66C69.7377 66 73.4357 64.096 76.2267 61.532C78.1857 57.193 78.8887 53 78.8887 53H64.8887Z" fill="url(#paint22_linear_49_316)"/>
<path d="M64.8887 53H50.8887C50.8887 53 51.0557 53.988 51.4457 55.491C54.9187 57.558 59.3307 59 64.8887 59C70.4467 59 74.8587 57.558 78.3317 55.491C78.7217 53.988 78.8887 53 78.8887 53H64.8887Z" fill="url(#paint23_linear_49_316)"/>
<path d="M84.8887 90C87.6501 90 89.8887 87.7614 89.8887 85C89.8887 82.2386 87.6501 80 84.8887 80C82.1272 80 79.8887 82.2386 79.8887 85C79.8887 87.7614 82.1272 90 84.8887 90Z" fill="url(#paint24_linear_49_316)"/>
<path d="M84.8887 87C84.3367 87 83.8887 86.552 83.8887 86V84C83.8887 83.448 84.3367 83 84.8887 83C85.4407 83 85.8887 83.448 85.8887 84V86C85.8887 86.552 85.4407 87 84.8887 87Z" fill="url(#paint25_linear_49_316)"/>
<path d="M64.8887 99C65.4407 99 65.8887 98.552 65.8887 98V88H64.8887H63.8887V98C63.8887 98.552 64.3367 99 64.8887 99Z" fill="url(#paint26_linear_49_316)"/>
<path d="M37.8887 98C38.4407 98 38.8887 97.552 38.8887 97V88H36.8887V97C36.8887 97.552 37.3367 98 37.8887 98Z" fill="url(#paint27_linear_49_316)"/>
<path d="M91.8887 98C92.4407 98 92.8887 97.552 92.8887 97V88H90.8887V97C90.8887 97.552 91.3367 98 91.8887 98Z" fill="url(#paint28_linear_49_316)"/>
<path d="M51.8887 98C52.4407 98 52.8887 97.552 52.8887 97V88H50.8887V97C50.8887 97.552 51.3367 98 51.8887 98Z" fill="url(#paint29_linear_49_316)"/>
<path d="M77.8887 98C78.4407 98 78.8887 97.552 78.8887 97V88H76.8887V97C76.8887 97.552 77.3367 98 77.8887 98Z" fill="url(#paint30_linear_49_316)"/>
<path d="M64.8887 93C69.8592 93 73.8887 88.9706 73.8887 84C73.8887 79.0294 69.8592 75 64.8887 75C59.9181 75 55.8887 79.0294 55.8887 84C55.8887 88.9706 59.9181 93 64.8887 93Z" fill="url(#paint31_linear_49_316)"/>
<path d="M64.8887 89C67.6501 89 69.8887 86.7614 69.8887 84C69.8887 81.2386 67.6501 79 64.8887 79C62.1272 79 59.8887 81.2386 59.8887 84C59.8887 86.7614 62.1272 89 64.8887 89Z" fill="url(#paint32_linear_49_316)"/>
<path d="M31.8887 49L47.5707 26H54.8887L39.2067 49H31.8887Z" fill="url(#paint33_linear_49_316)"/>
<path d="M74.8887 49L90.5707 26H97.8887L82.2067 49H74.8887Z" fill="url(#paint34_linear_49_316)"/>
<path d="M64.8887 19C59.9267 19 55.8887 14.962 55.8887 10C55.8887 5.038 59.9267 1 64.8887 1C69.8507 1 73.8887 5.038 73.8887 10C73.8887 14.962 69.8507 19 64.8887 19ZM64.8887 3C61.0287 3 57.8887 6.14 57.8887 10C57.8887 13.86 61.0287 17 64.8887 17C68.7487 17 71.8887 13.86 71.8887 10C71.8887 6.14 68.7487 3 64.8887 3Z" fill="url(#paint35_linear_49_316)"/>
<defs>
<linearGradient id="paint0_linear_49_316" x1="64.8887" y1="91.7909" x2="64.8887" y2="121.988" gradientUnits="userSpaceOnUse">
<stop stop-color="#58595B"/>
<stop offset="1" stop-color="#414042"/>
</linearGradient>
<linearGradient id="paint1_linear_49_316" x1="64.8887" y1="132.968" x2="64.8887" y2="82.34" gradientUnits="userSpaceOnUse">
<stop stop-color="#DFB082"/>
<stop offset="1" stop-color="#CB936D"/>
</linearGradient>
<linearGradient id="paint2_linear_49_316" x1="64.8887" y1="63.158" x2="64.8887" y2="94.615" gradientUnits="userSpaceOnUse">
<stop stop-color="#E15C63"/>
<stop offset="0.4062" stop-color="#DE585F"/>
<stop offset="0.8264" stop-color="#D44B53"/>
<stop offset="1" stop-color="#CE444C"/>
</linearGradient>
<linearGradient id="paint3_linear_49_316" x1="64.8887" y1="112.496" x2="64.8887" y2="-8.766" gradientUnits="userSpaceOnUse">
<stop stop-color="#F3A682"/>
<stop offset="1" stop-color="#FFCB97"/>
</linearGradient>
<linearGradient id="paint4_linear_49_316" x1="64.8887" y1="-5.2" x2="64.8887" y2="7.303" gradientUnits="userSpaceOnUse">
<stop stop-color="#DFB082"/>
<stop offset="1" stop-color="#CB936D"/>
</linearGradient>
<linearGradient id="paint5_linear_49_316" x1="64.8887" y1="-5.402" x2="64.8887" y2="17.039" gradientUnits="userSpaceOnUse">
<stop stop-color="#DFB082"/>
<stop offset="1" stop-color="#CB936D"/>
</linearGradient>
<linearGradient id="paint6_linear_49_316" x1="64.8887" y1="-6.007" x2="64.8887" y2="27.515" gradientUnits="userSpaceOnUse">
<stop offset="0.0423" stop-color="#FBC848"/>
<stop offset="1" stop-color="#FCA845"/>
</linearGradient>
<linearGradient id="paint7_linear_49_316" x1="44.8887" y1="67.594" x2="44.8887" y2="74.05" gradientUnits="userSpaceOnUse">
<stop stop-color="#58595B"/>
<stop offset="1" stop-color="#414042"/>
</linearGradient>
<linearGradient id="paint8_linear_49_316" x1="44.8887" y1="82.112" x2="44.8887" y2="98.854" gradientUnits="userSpaceOnUse">
<stop stop-color="#58595B"/>
<stop offset="1" stop-color="#414042"/>
</linearGradient>
<linearGradient id="paint9_linear_49_316" x1="43.3887" y1="14.561" x2="43.3887" y2="37.145" gradientUnits="userSpaceOnUse">
<stop stop-color="#58595B"/>
<stop offset="1" stop-color="#414042"/>
</linearGradient>
<linearGradient id="paint10_linear_49_316" x1="29.8887" y1="56.503" x2="29.8887" y2="68.462" gradientUnits="userSpaceOnUse">
<stop stop-color="#F1F2F2"/>
<stop offset="1" stop-color="#E6E7E8"/>
</linearGradient>
<linearGradient id="paint11_linear_49_316" x1="41.8887" y1="58.923" x2="41.8887" y2="70.222" gradientUnits="userSpaceOnUse">
<stop stop-color="#E15C63"/>
<stop offset="0.4062" stop-color="#DE585F"/>
<stop offset="0.8264" stop-color="#D44B53"/>
<stop offset="1" stop-color="#CE444C"/>
</linearGradient>
<linearGradient id="paint12_linear_49_316" x1="25.8857" y1="67.795" x2="25.8857" y2="83.959" gradientUnits="userSpaceOnUse">
<stop stop-color="#58595B"/>
<stop offset="1" stop-color="#414042"/>
</linearGradient>
<linearGradient id="paint13_linear_49_316" x1="24.5417" y1="60.738" x2="24.5417" y2="104.331" gradientUnits="userSpaceOnUse">
<stop offset="0.0423" stop-color="#FBC848"/>
<stop offset="1" stop-color="#FCA845"/>
</linearGradient>
<linearGradient id="paint14_linear_49_316" x1="64.8887" y1="11.94" x2="64.8887" y2="36.541" gradientUnits="userSpaceOnUse">
<stop stop-color="#F1F2F2"/>
<stop offset="1" stop-color="#E6E7E8"/>
</linearGradient>
<linearGradient id="paint15_linear_49_316" x1="64.8887" y1="31.499" x2="64.8887" y2="71.869" gradientUnits="userSpaceOnUse">
<stop stop-color="#F1F2F2"/>
<stop offset="1" stop-color="#E6E7E8"/>
</linearGradient>
<linearGradient id="paint16_linear_49_316" x1="86.3887" y1="14.561" x2="86.3887" y2="37.145" gradientUnits="userSpaceOnUse">
<stop stop-color="#58595B"/>
<stop offset="1" stop-color="#414042"/>
</linearGradient>
<linearGradient id="paint17_linear_49_316" x1="99.8887" y1="56.503" x2="99.8887" y2="68.462" gradientUnits="userSpaceOnUse">
<stop stop-color="#F1F2F2"/>
<stop offset="1" stop-color="#E6E7E8"/>
</linearGradient>
<linearGradient id="paint18_linear_49_316" x1="87.8887" y1="58.923" x2="87.8887" y2="70.222" gradientUnits="userSpaceOnUse">
<stop stop-color="#E15C63"/>
<stop offset="0.4062" stop-color="#DE585F"/>
<stop offset="0.8264" stop-color="#D44B53"/>
<stop offset="1" stop-color="#CE444C"/>
</linearGradient>
<linearGradient id="paint19_linear_49_316" x1="103.892" y1="67.795" x2="103.892" y2="83.959" gradientUnits="userSpaceOnUse">
<stop stop-color="#58595B"/>
<stop offset="1" stop-color="#414042"/>
</linearGradient>
<linearGradient id="paint20_linear_49_316" x1="105.236" y1="60.738" x2="105.236" y2="104.331" gradientUnits="userSpaceOnUse">
<stop offset="0.0423" stop-color="#FBC848"/>
<stop offset="1" stop-color="#FCA845"/>
</linearGradient>
<linearGradient id="paint21_linear_49_316" x1="64.8887" y1="78.281" x2="64.8887" y2="42.463" gradientUnits="userSpaceOnUse">
<stop stop-color="#B26A34"/>
<stop offset="0.7672" stop-color="#D08840"/>
</linearGradient>
<linearGradient id="paint22_linear_49_316" x1="64.8887" y1="67.19" x2="64.8887" y2="42.805" gradientUnits="userSpaceOnUse">
<stop stop-color="#B26A34"/>
<stop offset="0.7672" stop-color="#D08840"/>
</linearGradient>
<linearGradient id="paint23_linear_49_316" x1="64.8887" y1="58.721" x2="64.8887" y2="41.323" gradientUnits="userSpaceOnUse">
<stop stop-color="#B26A34"/>
<stop offset="0.7672" stop-color="#D08840"/>
</linearGradient>
<linearGradient id="paint24_linear_49_316" x1="84.8887" y1="67.594" x2="84.8887" y2="74.05" gradientUnits="userSpaceOnUse">
<stop stop-color="#58595B"/>
<stop offset="1" stop-color="#414042"/>
</linearGradient>
<linearGradient id="paint25_linear_49_316" x1="84.8887" y1="82.112" x2="84.8887" y2="98.854" gradientUnits="userSpaceOnUse">
<stop stop-color="#58595B"/>
<stop offset="1" stop-color="#414042"/>
</linearGradient>
<linearGradient id="paint26_linear_49_316" x1="64.8887" y1="87.328" x2="64.8887" y2="50.596" gradientUnits="userSpaceOnUse">
<stop stop-color="#B26A34"/>
<stop offset="0.7672" stop-color="#D08840"/>
</linearGradient>
<linearGradient id="paint27_linear_49_316" x1="37.8887" y1="87.328" x2="37.8887" y2="50.596" gradientUnits="userSpaceOnUse">
<stop stop-color="#B26A34"/>
<stop offset="0.7672" stop-color="#D08840"/>
</linearGradient>
<linearGradient id="paint28_linear_49_316" x1="91.8887" y1="87.328" x2="91.8887" y2="50.596" gradientUnits="userSpaceOnUse">
<stop stop-color="#B26A34"/>
<stop offset="0.7672" stop-color="#D08840"/>
</linearGradient>
<linearGradient id="paint29_linear_49_316" x1="51.8887" y1="87.328" x2="51.8887" y2="50.596" gradientUnits="userSpaceOnUse">
<stop stop-color="#B26A34"/>
<stop offset="0.7672" stop-color="#D08840"/>
</linearGradient>
<linearGradient id="paint30_linear_49_316" x1="77.8887" y1="87.328" x2="77.8887" y2="50.596" gradientUnits="userSpaceOnUse">
<stop stop-color="#B26A34"/>
<stop offset="0.7672" stop-color="#D08840"/>
</linearGradient>
<linearGradient id="paint31_linear_49_316" x1="64.8887" y1="68.602" x2="64.8887" y2="77.275" gradientUnits="userSpaceOnUse">
<stop stop-color="#58595B"/>
<stop offset="1" stop-color="#414042"/>
</linearGradient>
<linearGradient id="paint32_linear_49_316" x1="64.8887" y1="82.112" x2="64.8887" y2="98.854" gradientUnits="userSpaceOnUse">
<stop stop-color="#F1F2F2"/>
<stop offset="1" stop-color="#E6E7E8"/>
</linearGradient>
<linearGradient id="paint33_linear_49_316" x1="43.3887" y1="16.779" x2="43.3887" y2="69.012" gradientUnits="userSpaceOnUse">
<stop stop-color="#58595B"/>
<stop offset="1" stop-color="#414042"/>
</linearGradient>
<linearGradient id="paint34_linear_49_316" x1="86.3887" y1="16.779" x2="86.3887" y2="69.012" gradientUnits="userSpaceOnUse">
<stop stop-color="#58595B"/>
<stop offset="1" stop-color="#414042"/>
</linearGradient>
<linearGradient id="paint35_linear_49_316" x1="64.8887" y1="-3.386" x2="64.8887" y2="13.194" gradientUnits="userSpaceOnUse">
<stop stop-color="#F1F2F2"/>
<stop offset="1" stop-color="#E6E7E8"/>
</linearGradient>
</defs>
</svg>
