<svg width="83" height="82" viewBox="0 0 83 82" fill="none" xmlns="http://www.w3.org/2000/svg">
<g clip-path="url(#clip0_49_586)">
<path d="M67.9847 30.3808C80.5182 20.0957 75.8188 -0.710206 68.1871 3.97288C63.069 7.11394 59.3914 12.0183 57.4639 15.0277C62.5625 18.7712 66.3392 24.1538 67.9847 30.3808Z" fill="#E87E04"/>
<path d="M71.9914 3.74351C70.8794 3.11542 69.5831 3.11668 68.1871 3.97293C63.069 7.114 59.3914 12.0184 57.4639 15.0278C62.5625 18.7712 66.3392 24.1539 67.9847 30.3808C68.945 29.5929 69.8031 28.7423 70.5678 27.8472C69.0346 23.7182 66.5392 20.0443 63.3467 17.0876C61.9301 15.7756 61.7495 13.6068 62.923 12.0729C66.4784 7.42491 70.2814 4.59914 71.9914 3.74351Z" fill="#D66E07"/>
<path d="M57.4645 15.0265C57.4645 15.0271 57.4645 15.0271 57.4639 15.0278C60.4 17.1834 62.896 19.8832 64.8003 22.9741C69.9335 5.3745 74.7689 7.52768 74.7689 7.52768C73.561 4.25122 71.184 2.13314 68.1871 3.9729C63.872 6.62065 60.1737 10.7979 57.4645 15.0265Z" fill="#F3A334"/>
<path d="M71.9914 3.74344C70.0294 2.63519 68.3814 3.74218 66.5555 5.06731C62.9719 7.67181 59.3914 11.8158 57.4639 15.0277C60.3047 17.1132 62.839 19.7917 64.8003 22.9741C65.1445 21.795 65.4867 20.7081 65.8265 19.7001C65.0561 18.7787 64.2293 17.9049 63.3467 17.0875C61.9301 15.7755 61.7495 13.6067 62.923 12.0734C66.4784 7.42484 70.2814 4.59907 71.9914 3.74344Z" fill="#EE911C"/>
<path d="M14.1991 30.3807C15.8596 24.1431 19.6551 18.7542 24.7732 15.012C22.8363 11.9938 19.1636 7.10826 14.0593 3.97408C6.4295 -0.710252 1.72636 20.058 14.1991 30.3807Z" fill="#E87E04"/>
<path d="M13.5962 3.72272C6.24527 0.137849 1.98155 20.2686 14.1992 30.3807C14.4236 29.5376 14.6881 28.7109 14.9884 27.901C7.56163 19.2049 9.05412 6.21752 13.5962 3.72272Z" fill="#D66E07"/>
<path d="M17.4255 22.924C19.3374 19.845 21.8384 17.1584 24.7733 15.0121C22.8364 11.9939 19.1637 7.10835 14.0594 3.97418C11.2029 2.22029 8.75703 4.03749 7.46826 7.53585C7.46826 7.53585 12.2949 5.38455 17.4255 22.924Z" fill="#F3A334"/>
<path d="M10.4398 8.58073C11.0886 6.25455 12.1975 4.49064 13.5959 3.72276C12.2194 3.05142 10.9507 3.21189 9.87879 3.9829C9.87566 3.98478 9.87315 3.98666 9.87064 3.98854C8.73043 4.8122 7.9588 6.21067 7.46924 7.5358C7.4893 7.52702 8.65458 7.02932 10.4398 8.58073Z" fill="#EE911C"/>
<path d="M71.8681 38.2695C70.1825 37.0941 69.0172 35.3039 68.7151 33.2717C66.7117 19.8067 55.1027 9.47644 41.0805 9.47644C27.0575 9.47644 15.4492 19.8067 13.4458 33.2717C13.1437 35.3039 11.9784 37.0941 10.2928 38.2695C2.02427 44.0357 -1.91977 52.3576 0.911638 61.7356C1.0251 62.1124 1.5297 62.1782 1.73279 61.8416L2.96703 59.7912C2.96703 59.9561 4.31347 65.4264 8.65555 71.0661C8.83796 71.303 9.20842 71.2554 9.3225 70.9789L10.076 69.1536C10.1926 68.8709 10.5455 68.7806 10.7862 68.9699C27.3716 81.9874 54.8044 81.9749 71.3747 68.9699C71.6154 68.7806 71.9684 68.8709 72.0849 69.1536L72.8378 70.9789C72.9519 71.2554 73.3229 71.303 73.5054 71.0661C77.9954 65.234 79.1933 59.7912 79.1933 59.7912L80.4281 61.8416C80.6306 62.1782 81.1352 62.1124 81.2486 61.7356C84.0863 52.3381 80.1191 44.0238 71.8681 38.2695Z" fill="#F6E1C6"/>
<path d="M6.27333 59.7906L5.03847 61.8416C4.836 62.1782 4.3314 62.1117 4.21794 61.7356C1.38089 52.3413 5.34499 44.0251 13.5991 38.2695C15.2841 37.0941 16.4494 35.3039 16.7521 33.2717C18.6759 20.3395 29.4599 10.3007 42.7332 9.52596C42.1866 9.49399 41.6356 9.47644 41.0802 9.47644C27.0573 9.47644 15.4489 19.806 13.4456 33.2717C13.1434 35.3039 11.9782 37.0941 10.2926 38.2695C2.03091 44.0307 -1.92253 52.35 0.911386 61.7356C1.02484 62.1124 1.52945 62.1782 1.73254 61.8416L2.96678 59.7912C2.9674 59.7912 4.16466 65.234 8.6553 71.0661C8.83771 71.303 9.20817 71.2554 9.32225 70.9789L10.0757 69.1536C10.1378 69.0025 10.2675 68.9091 10.4111 68.8809C7.18788 63.944 6.27333 59.7912 6.27333 59.7906Z" fill="#E2C8AC"/>
<path d="M13.4458 33.2718C13.1437 35.304 11.9784 37.0942 10.2928 38.2695C2.02427 44.0358 -1.91977 52.3577 0.911638 61.7357C1.0251 62.1125 1.5297 62.1783 1.73279 61.8417L2.96703 59.7913C2.96703 59.9561 4.31347 65.4265 8.65555 71.0662C8.83796 71.3031 9.20842 71.2555 9.3225 70.979L10.076 69.1537C10.1926 68.871 10.5455 68.7807 10.7862 68.97C13.5336 71.1263 16.7818 73.0419 20.4106 74.5934C1.30717 55.0624 31.4328 51.4581 36.7747 42.9658C41.1952 35.939 35.4872 16.9089 33.3854 10.5503C22.9869 13.5234 15.0674 22.3693 13.4458 33.2718Z" fill="#F3A334"/>
<path d="M2.96676 59.7907C2.96676 59.7907 4.16464 65.2335 8.65528 71.0655C8.83205 71.2956 9.2069 71.2586 9.32224 70.979C9.86069 69.6752 9.73219 69.9861 10.0757 69.1537C10.1315 69.0177 10.255 68.9117 10.411 68.881C7.18786 63.9434 6.27331 59.7913 6.27331 59.7907L5.03845 61.8417C4.83598 62.1783 4.33138 62.1118 4.21792 61.7357C1.38087 52.3414 5.34497 44.0251 13.5991 38.2695C15.2841 37.0942 16.4493 35.304 16.7521 33.2718C18.2158 23.433 24.8082 15.2704 33.723 11.5865C33.6027 11.2129 33.4892 10.8656 33.3852 10.5503C22.8775 13.5547 15.0521 22.4783 13.4462 33.2687C13.1597 35.1912 12.0659 37.0328 10.2926 38.2695C2.11489 43.9731 -1.94574 52.273 0.91137 61.7357C1.01793 62.0893 1.468 62.1682 1.69053 61.9C1.70557 61.8818 1.71936 61.8624 1.7319 61.8417L2.96676 59.7907Z" fill="#EE911C"/>
<path d="M68.7147 33.2718C69.0168 35.304 70.1821 37.0942 71.8677 38.2695C80.1363 44.0358 84.0803 52.3577 81.2489 61.7357C81.1354 62.1118 80.6308 62.1783 80.4284 61.8417L79.1935 59.7907C79.1935 59.7913 77.9956 65.2341 73.505 71.0655C73.3226 71.3025 72.9521 71.2555 72.838 70.979L72.0852 69.1537C71.968 68.8704 71.6151 68.7807 71.3744 68.9694C68.6276 71.1257 65.3787 73.0419 61.75 74.5934C80.854 55.0624 50.7277 51.4581 45.3858 42.9658C40.966 35.939 46.6733 16.9089 48.7751 10.5503C59.1737 13.5234 67.0925 22.3693 68.7147 33.2718Z" fill="#F3A334"/>
<path d="M67.8662 71.4191C80.8405 54.6381 53.7518 50.9761 48.7133 42.9658C44.5135 36.2894 49.4567 18.7788 51.7629 11.5946C50.7925 11.1928 49.7965 10.8424 48.7754 10.5503C46.6736 16.9089 40.9656 35.939 45.3861 42.9658C50.728 51.4581 80.8536 55.0624 61.7502 74.5934C63.936 73.6587 65.9826 72.5913 67.8662 71.4191Z" fill="#EE911C"/>
<path d="M41.0803 62.6954C41.0803 65.1112 39.3019 67.1064 36.9839 67.4574V71.666C36.9839 72.5705 37.7179 73.3039 38.6224 73.3039H43.5374C44.4426 73.3039 45.176 72.5705 45.176 71.666V67.4574C42.8586 67.1058 41.0803 65.1112 41.0803 62.6954Z" fill="white"/>
<path d="M40.2903 71.6654V69.2577C40.2903 68.2943 40.8545 67.4361 41.717 67.0055C42.0849 66.8218 42.4253 66.5912 42.7324 66.3235C41.7201 65.4409 41.0801 64.144 41.0801 62.6954C41.0801 65.1112 39.3018 67.1064 36.9844 67.4574V71.666C36.9844 72.5705 37.7178 73.3039 38.6223 73.3039H41.9288C41.0237 73.3039 40.2903 72.5705 40.2903 71.6654Z" fill="#E4E3E1"/>
<path d="M59.6684 41.5993C59.6684 43.471 58.1508 44.9886 56.2785 44.9886C54.4067 44.9886 52.8892 43.471 52.8892 41.5993C52.8892 39.7269 54.4067 38.2094 56.2785 38.2094C58.1508 38.2094 59.6684 39.7269 59.6684 41.5993Z" fill="#525468"/>
<path d="M29.3466 41.5993C29.3466 43.471 27.829 44.9886 25.9567 44.9886C24.0849 44.9886 22.5674 43.471 22.5674 41.5993C22.5674 39.7269 24.0849 38.2094 25.9567 38.2094C27.829 38.2094 29.3466 39.7269 29.3466 41.5993Z" fill="#525468"/>
<path d="M50.7239 59.985C50.0394 59.985 49.4846 60.5403 49.4846 61.2248V62.6954C49.4846 64.6706 47.8774 66.2778 45.9023 66.2778C43.9271 66.2778 42.3199 64.6706 42.3199 62.6954V55.8034C42.3199 55.1189 41.7652 54.5635 41.08 54.5635C40.3955 54.5635 39.8401 55.1189 39.8401 55.8034V62.6954C39.8401 64.6706 38.2336 66.2778 36.2584 66.2778C34.2826 66.2778 32.676 64.6706 32.676 62.6954V61.2248C32.676 60.5403 32.1207 59.985 31.4362 59.985C30.7517 59.985 30.1963 60.5403 30.1963 61.2248V62.6954C30.1963 68.4711 37.5679 70.9702 41.0806 66.3636C44.5903 70.9665 51.9644 68.4773 51.9644 62.6954V61.2248C51.9638 60.5403 51.409 59.985 50.7239 59.985Z" fill="#E2C8AC"/>
<path d="M47.9499 53.8419C47.9499 51.7546 44.8834 50.0621 41.1011 50.0621C37.3188 50.0621 34.2529 51.7546 34.2529 53.8419C34.2529 55.9293 37.3188 57.6218 41.1011 57.6218C44.8834 57.6218 47.9499 55.9293 47.9499 53.8419Z" fill="#AF7561"/>
<path d="M56.1951 41.5993C56.1951 40.3274 56.8959 39.2211 57.932 38.6412C57.4425 38.3673 56.8796 38.2094 56.2785 38.2094C54.4067 38.2094 52.8892 39.7269 52.8892 41.5993C52.8892 43.471 54.4067 44.9886 56.2785 44.9886C56.8796 44.9886 57.4425 44.8312 57.932 44.5573C56.8965 43.9769 56.1951 42.8705 56.1951 41.5993Z" fill="#3E4151"/>
<path d="M25.8733 41.5993C25.8733 40.3274 26.5747 39.2211 27.6103 38.6412C27.1207 38.3673 26.5578 38.2094 25.9567 38.2094C24.0849 38.2094 22.5674 39.7269 22.5674 41.5993C22.5674 43.471 24.0849 44.9886 25.9567 44.9886C26.5578 44.9886 27.1207 44.8312 27.6103 44.5573C26.5747 43.9769 25.8733 42.8705 25.8733 41.5993Z" fill="#3E4151"/>
<path d="M37.5589 53.8419C37.5589 52.0692 39.771 50.5824 42.7541 50.1743C42.225 50.1016 41.6715 50.0627 41.1011 50.0627C37.3188 50.0627 34.2529 51.7546 34.2529 53.8419C34.2529 55.9293 37.3188 57.6217 41.1011 57.6217C41.6715 57.6217 42.225 57.5829 42.7541 57.5102C39.771 57.1021 37.5589 55.6152 37.5589 53.8419Z" fill="#A0634A"/>
</g>
<defs>
<clipPath id="clip0_49_586">
<rect width="82.1604" height="82" fill="white"/>
</clipPath>
</defs>
</svg>
