<svg width="154" height="153" viewBox="0 0 154 153" fill="none" xmlns="http://www.w3.org/2000/svg">
<path d="M107.786 90.4588C106.835 90.4616 105.891 90.2954 104.999 89.9678L77.6527 79.4368L75.5609 73.9067C75.4725 73.673 75.3362 73.4603 75.1607 73.2823C74.9853 73.1044 74.7746 72.9651 74.5422 72.8733L44.7236 61.0995C44.3773 60.9623 43.9968 60.9364 43.6351 61.0254C43.2733 61.1144 42.9483 61.3139 42.7051 61.5961C42.4619 61.8783 42.3127 62.2293 42.2782 62.6002C42.2436 62.9711 42.3254 63.3436 42.5123 63.6658L43.6867 65.6937L10.0387 52.3722C9.00909 51.9646 8.12781 51.2536 7.51169 50.3335C6.89557 49.4134 6.57373 48.3278 6.58887 47.2206C6.604 46.1134 6.9554 45.0369 7.59645 44.134C8.23749 43.2312 9.13788 42.5445 10.1782 42.1652C14.8641 40.4639 19.8495 39.7432 24.8253 40.0478C29.8011 40.3524 34.6614 41.6758 39.1048 43.936L106.528 77.1316C106.815 77.2726 107.134 77.3345 107.452 77.311C107.77 77.2874 108.077 77.1793 108.339 76.9978L124.292 65.971C126.624 64.3556 129.319 63.3416 132.138 63.0191C134.956 62.6967 137.811 63.0758 140.448 64.1227L144.727 65.8171L119.267 86.4879C116.04 89.1451 111.965 90.5543 107.786 90.4588Z" fill="white"/>
<path d="M75.2412 113.028L48.1994 66.3275L72.4887 75.9172L86.522 113.028H75.2412Z" fill="white"/>
<path d="M63.4539 51.9267L93.0564 41.0515L99.1118 44.7348L77.3443 58.7657L63.4539 51.9267Z" fill="white"/>
</svg>
