<svg width="1917" height="427" viewBox="0 0 1917 427" fill="none" xmlns="http://www.w3.org/2000/svg">
<path d="M1268.27 144.474C1267.75 147.464 1267.42 149.923 1267.02 152.522C1274.73 154.232 1282.16 155.79 1289.87 157.5C1290.53 154.944 1291.21 152.497 1292.02 149.659C1283.91 147.83 1276.23 146.228 1268.27 144.474Z" fill="white"/>
<path d="M1550.27 11.8565C1543.14 16.8208 1536.51 21.5147 1529.38 26.479C1531.88 28.9195 1533.68 30.6226 1535.35 32.2496C1541.39 27.9666 1547.36 23.8244 1553.69 19.3359C1552.78 17.4822 1551.71 15.0867 1550.27 11.8565Z" fill="white"/>
<path d="M1633.59 94.7466C1635.94 95.1069 1638.29 95.4671 1641.64 96.002C1641.69 87.4867 1641.66 79.4697 1641.68 70.8461C1638.3 71.3838 1635.82 71.7708 1633.45 72.1255C1633.6 79.7527 1633.65 87.0547 1633.59 94.7466Z" fill="white"/>
<path d="M1167.62 246.658C1168.06 244.167 1168.52 241.784 1169.23 238.621C1161.14 237.615 1153.19 236.685 1144.99 235.711C1144.82 238.711 1144.63 241.246 1144.45 243.781C1152.18 244.776 1159.74 245.587 1167.62 246.658Z" fill="white"/>
<path d="M1334.02 172.882C1335 170.229 1335.96 167.934 1336.94 165.28C1329.37 162.466 1322.05 159.694 1314.48 156.879C1313.5 159.533 1312.67 161.904 1311.8 164.525C1319.23 167.264 1326.41 169.959 1334.02 172.882Z" fill="white"/>
<path d="M1222.89 283.862C1220.06 283.88 1217.59 283.909 1214.87 283.895C1214.75 291.013 1213.5 297.88 1209.15 303.899C1211.29 305.504 1213.39 307.002 1215.55 308.716C1221.15 301.378 1222.81 293.092 1222.89 283.862Z" fill="white"/>
<path d="M1198.83 157.068C1198.09 154.575 1197.38 152.191 1196.5 149.265C1189.06 152.43 1181.7 155.455 1174.05 158.685C1175.43 161.341 1176.58 163.596 1177.76 165.959C1184.9 162.999 1191.72 160.136 1198.83 157.068Z" fill="white"/>
<path d="M1894.3 163.611C1899.45 169.392 1904.32 175.02 1909.64 180.985C1911.58 179.579 1913.71 178 1916.24 176.183C1910.71 169.925 1905.53 164.036 1900 157.779C1897.74 160.105 1896.04 161.912 1894.3 163.611Z" fill="white"/>
<path d="M1814.55 117.549C1821.93 120.537 1829 123.265 1836.36 126.144C1837.43 123.816 1838.51 121.488 1839.7 118.771C1832.21 115.815 1824.86 112.935 1817.22 109.904C1816.35 112.524 1815.53 114.896 1814.55 117.549Z" fill="white"/>
<path d="M1771.05 97.6069C1770.52 100.596 1770.05 102.979 1769.54 105.611C1777.14 107.354 1784.61 109.02 1792.46 110.806C1793.15 108.358 1793.83 105.911 1794.61 102.965C1786.75 101.179 1779.01 99.3605 1771.05 97.6069Z" fill="white"/>
<path d="M1578.98 164.884C1580.45 167.042 1581.74 169.015 1583.49 171.682C1589.97 166.912 1596.35 162.175 1603.02 157.232C1601.02 154.878 1599.39 153.002 1597.74 151.018C1591.44 155.615 1585.24 160.179 1578.98 164.884Z" fill="white"/>
<path d="M1723.07 100.248C1730.93 100.853 1738.57 101.523 1746.56 102.204C1746.89 99.7452 1747.19 97.1779 1747.57 94.1124C1739.47 93.4636 1731.72 92.8261 1723.61 92.1773C1723.46 94.8206 1723.27 97.3554 1723.07 100.248Z" fill="white"/>
<path d="M1117.95 257.834C1115.63 257.582 1113.2 257.362 1110.38 257.023C1109.61 265.516 1108.86 273.651 1111.13 282.061C1113.73 281.284 1116.01 280.604 1118.18 279.957C1118.15 272.763 1118.1 265.461 1117.95 257.834Z" fill="white"/>
<path d="M1652.53 98.0623C1644.58 99.1363 1636.96 100.113 1629.05 101.295C1629.29 104.058 1629.53 106.464 1629.83 109.443C1637.78 108.369 1645.5 107.36 1653.56 106.254C1653.18 103.415 1652.9 100.901 1652.53 98.0623Z" fill="white"/>
<path d="M992.422 295.322C991.039 292.666 989.784 290.443 988.606 288.08C981.439 291.755 974.565 295.225 967.398 298.9C968.641 301.479 969.787 303.734 970.997 306.206C978.272 302.498 985.255 298.997 992.422 295.322Z" fill="white"/>
<path d="M1700.17 100.242C1700.07 97.5552 1699.9 95.0091 1699.74 92.1055C1691.6 92.8867 1683.8 93.6792 1675.87 94.3956C1676.11 97.1585 1676.38 99.6723 1676.76 102.511C1684.44 101.751 1692.13 100.991 1700.17 100.242Z" fill="white"/>
<path d="M1471.12 210.551C1471.15 207.474 1471.12 205.004 1471.06 202.426C1463.13 201.961 1455.59 201.616 1447.87 201.087C1447.54 203.546 1447.22 206.005 1446.87 209.179C1454.91 209.611 1462.84 210.075 1471.12 210.551Z" fill="white"/>
<path d="M1423.41 204.969C1424.11 202.164 1424.69 199.749 1425.42 197.052C1417.82 194.952 1410.45 192.788 1402.85 190.688C1402.03 193.059 1401.31 195.399 1400.32 198.409C1407.8 200.542 1415.54 202.718 1423.41 204.969Z" fill="white"/>
<path d="M1189.44 252.534C1195.76 256.669 1201.65 260.576 1207.99 264.82C1209.39 263.576 1211.34 261.812 1213.4 260.016C1207.45 253.531 1200.5 249.232 1192.41 245.864C1191.34 248.192 1190.37 250.488 1189.44 252.534Z" fill="white"/>
<path d="M1033.99 273.227C1032.78 270.755 1031.67 268.609 1030.29 265.953C1023.15 269.736 1016.2 273.346 1009.07 277.13C1010.42 279.677 1011.64 281.791 1012.96 284.23C1020.02 280.588 1026.86 277.01 1033.99 273.227Z" fill="white"/>
<path d="M1535.46 94.3053C1543.15 97.9112 1550.31 101.322 1558 104.927C1559.1 101.884 1559.89 99.4045 1560.64 97.1736C1553.66 93.9477 1547.03 90.7331 1539.94 87.5395C1538.84 89.4017 1537.45 91.4692 1535.46 94.3053Z" fill="white"/>
<path d="M1377.88 190.474C1378.86 187.821 1379.79 185.417 1380.8 182.872C1373.45 179.993 1366.24 177.189 1358.82 174.092C1357.78 176.529 1356.81 178.824 1355.64 181.651C1363.11 184.498 1370.35 187.41 1377.88 190.474Z" fill="white"/>
<path d="M1493.68 200.275C1494.06 202.756 1494.53 205.097 1495.14 208.337C1503.04 206.331 1510.73 204.39 1518.55 202.525C1517.71 199.707 1517.03 197.432 1516.25 194.831C1508.89 196.674 1501.5 198.41 1493.68 200.275Z" fill="white"/>
<path d="M1562.88 183.738C1561.53 181.19 1560.53 179.011 1559.17 176.464C1552.13 179.749 1545.22 183.11 1537.85 186.492C1538.92 188.888 1539.96 191.175 1541.12 193.896C1548.49 190.513 1555.54 187.228 1562.88 183.738Z" fill="white"/>
<path d="M1153.79 172.29C1147.91 178.296 1142.29 183.987 1136.38 189.885C1138.89 191.968 1140.88 193.498 1142.73 194.952C1148.17 189.433 1153.31 184.12 1158.85 178.569C1157.48 176.736 1155.86 174.86 1153.79 172.29Z" fill="white"/>
<path d="M1582.89 102.097C1582.56 104.556 1582.24 107.015 1581.88 110.188C1590.03 110.588 1597.93 110.944 1606.19 111.311C1606.21 108.235 1606.18 105.764 1606.12 103.186C1598.3 102.689 1590.65 102.377 1582.89 102.097Z" fill="white"/>
<path d="M1574.81 6.65278C1574.83 9.4804 1574.86 11.9505 1574.87 13.9548C1582.08 15.5776 1589.02 17.0483 1596.48 18.7147C1597.28 17.0581 1598.39 14.8385 1599.62 12.229C1591.87 8.40637 1583.8 6.68508 1574.81 6.65278Z" fill="white"/>
<path d="M1168.71 324.24C1177.38 325.192 1185.44 324.909 1193.74 322.666C1192.93 319.957 1192.22 317.572 1191.61 315.513C1184.29 315.927 1177.23 316.384 1169.66 316.755C1169.42 318.715 1169.13 321.283 1168.71 324.24Z" fill="white"/>
<path d="M1121.57 243.884C1121.4 241.338 1121.26 238.9 1121.04 235.78C1112.8 237.059 1105.03 238.318 1096.8 239.597C1097.59 242.664 1098.2 245.081 1098.8 247.497C1106.32 246.195 1113.77 245.034 1121.57 243.884Z" fill="white"/>
<path d="M1051.52 255.599C1052.65 258.212 1053.69 260.499 1054.9 262.97C1062.15 259.978 1069.22 257.159 1076.69 254.102C1075.84 251.641 1074.94 249.43 1073.92 246.428C1066.35 249.517 1059.09 252.51 1051.52 255.599Z" fill="white"/>
<path d="M1620.07 26.5429C1617.49 28.9666 1615.64 30.6978 1614.06 32.1152C1618.3 38.4038 1622.47 44.4756 1626.85 50.8402C1628.81 49.9 1631.1 48.8627 1634.3 47.3172C1629.37 40.2911 1624.86 33.493 1620.07 26.5429Z" fill="white"/>
<path d="M1244.32 150.448C1244.4 147.945 1244.37 145.475 1244.36 142.29C1236.15 142.854 1228.26 143.322 1220.01 143.778C1220.48 146.942 1220.87 149.423 1221.12 151.829C1229.01 151.361 1236.43 150.915 1244.32 150.448Z" fill="white"/>
<path d="M1857.01 136.385C1863.71 140.64 1870.02 144.775 1876.72 149.03C1878.25 147.038 1879.75 144.938 1881.62 142.492C1874.74 138.053 1868.15 133.766 1861.17 129.359C1859.69 131.925 1858.33 134.101 1857.01 136.385Z" fill="white"/>
<path d="M1633.88 119.448C1630.82 117.884 1628.63 116.885 1626.55 115.853C1622.42 122.164 1618.28 128.476 1613.96 134.96C1615.67 136.338 1617.58 138.008 1620.24 140.167C1624.79 133.261 1629.15 126.528 1633.88 119.448Z" fill="white"/>
<path d="M1114.39 233.28C1117.37 234.161 1119.82 234.847 1122.26 235.532C1124.99 228.461 1127.83 221.358 1130.71 214.005C1128.6 212.865 1126.27 211.79 1123.38 210.41C1120.35 218.044 1117.5 225.505 1114.39 233.28Z" fill="white"/>
<path d="M1519.23 74.7203C1521.62 73.6506 1523.83 72.754 1526.45 71.6196C1523.97 64.9214 1523.26 58.1711 1525.13 51.0014C1522.54 50.24 1520.09 49.5546 1517.39 48.8255C1514.86 57.7278 1515.49 66.1572 1519.23 74.7203Z" fill="white"/>
<path d="M1145.15 317.701C1146.35 314.983 1147.35 312.796 1148.19 310.89C1141.88 306.755 1135.85 302.772 1129.4 298.561C1127.92 299.946 1126.22 301.753 1124.23 303.766C1130.3 309.861 1137.25 314.16 1145.15 317.701Z" fill="white"/>
<g clip-path="url(#clip0_123_553)">
<path d="M611.577 380.608C612.934 377.892 613.952 375.629 615.083 373.253C608.183 369.406 601.51 365.785 594.61 361.938C593.253 364.201 591.896 366.351 590.312 368.84C597.551 372.914 604.451 376.648 611.577 380.608Z" fill="white"/>
<path d="M303.47 427C311.727 424.284 319.418 421.682 327.675 418.966C325.978 415.911 324.734 413.761 323.603 411.725C316.59 414.101 309.691 416.364 302.339 418.853C302.678 420.89 303.017 423.492 303.47 427Z" fill="white"/>
<path d="M247.368 323.693C245.219 322.675 243.07 321.656 240.016 320.185C237.528 328.332 235.266 336.026 232.777 344.287C236.171 344.739 238.659 345.079 241.034 345.418C243.07 338.063 245.106 331.048 247.368 323.693Z" fill="white"/>
<path d="M737.24 311.473C736.109 313.736 734.978 315.886 733.394 318.714C740.859 321.996 748.211 325.164 755.789 328.445C756.807 325.617 757.712 323.24 758.617 320.864C751.491 317.696 744.479 314.754 737.24 311.473Z" fill="white"/>
<path d="M556.718 334.555C555.022 336.818 553.438 338.742 551.742 341.005C558.189 345.871 564.41 350.623 570.857 355.488C572.554 353.225 574.024 351.189 575.607 348.926C569.273 344.173 563.166 339.534 556.718 334.555Z" fill="white"/>
<path d="M694.937 259.989C697.652 260.781 700.027 261.46 702.628 262.252C704.778 255.463 707.945 249.24 713.826 244.714C712.243 242.564 710.659 240.527 709.076 238.264C701.611 243.695 697.652 251.163 694.937 259.989Z" fill="white"/>
<path d="M681.703 388.415C681.703 391.018 681.703 393.507 681.703 396.562C689.734 395.657 697.651 394.865 705.908 393.96C705.343 391.018 704.89 388.529 704.438 385.926C696.746 386.718 689.394 387.51 681.703 388.415Z" fill="white"/>
<path d="M17.3066 183.046C14.0265 176.031 10.9725 169.242 7.5793 162C5.31714 162.792 2.82878 163.697 -0.112032 164.716C3.39432 172.297 6.67449 179.425 10.1808 187.006C13.0085 185.422 15.1576 184.178 17.3066 183.046Z" fill="white"/>
<path d="M80.5342 250.032C74.3132 245.053 68.3185 240.414 62.0976 235.548C60.401 237.472 58.7043 239.395 56.7815 241.659C63.1155 246.637 69.3365 251.503 75.7837 256.594C77.3672 254.331 78.8376 252.295 80.5342 250.032Z" fill="white"/>
<path d="M116.502 281.601C117.859 278.885 118.99 276.735 120.234 274.359C113.448 270.512 106.774 266.778 99.7618 262.818C98.4045 264.967 97.0472 267.117 95.4637 269.72C102.476 273.68 109.376 277.64 116.502 281.601Z" fill="white"/>
<path d="M319.758 272.096C318.966 269.607 318.287 267.344 317.383 264.289C309.804 267.004 302.339 269.72 294.535 272.549C295.779 275.377 296.797 277.64 297.815 280.017C305.167 277.414 312.406 274.812 319.758 272.096Z" fill="white"/>
<path d="M163.216 292.803C155.864 289.974 148.738 287.145 141.273 284.203C140.255 286.466 139.237 288.842 137.993 291.671C145.571 294.613 152.81 297.442 160.388 300.384C161.293 297.894 162.198 295.518 163.216 292.803Z" fill="white"/>
<path d="M788.025 314.98C790.174 315.886 792.436 316.791 795.037 317.922C798.204 310.002 801.258 302.421 801.484 293.708C798.77 293.708 796.395 293.708 794.132 293.708C792.096 300.61 790.06 307.626 788.025 314.98Z" fill="white"/>
<path d="M230.176 315.093C238.094 316.338 245.672 317.583 253.589 318.714C254.155 315.999 254.607 313.622 255.173 310.681C247.255 309.436 239.564 308.191 231.533 306.947C231.081 309.775 230.628 312.265 230.176 315.093Z" fill="white"/>
<path d="M919.004 314.98C919.57 317.922 920.135 320.412 920.588 323.014C928.505 321.543 936.083 320.185 944.001 318.714C943.549 315.886 943.096 313.396 942.644 310.681C934.613 312.152 926.922 313.509 919.004 314.98Z" fill="white"/>
<path d="M185.158 299.365C184.48 301.968 183.914 304.457 183.236 307.286C191.266 308.87 198.958 310.341 206.762 311.925C207.328 309.21 207.78 306.72 208.232 303.892C200.654 302.421 193.076 300.95 185.158 299.365Z" fill="white"/>
<path d="M436.145 259.197C435.24 262.139 434.562 264.515 433.883 267.004C441.348 269.72 448.474 272.209 455.713 274.925C456.731 272.662 457.749 270.399 458.993 267.457C451.415 264.741 443.95 262.026 436.145 259.197Z" fill="white"/>
<path d="M480.258 278.206C478.787 280.696 477.543 282.846 476.073 285.222C482.746 289.408 489.193 293.595 495.866 297.781C497.337 295.745 498.694 293.708 500.504 291.106C493.944 286.919 487.157 282.619 480.258 278.206Z" fill="white"/>
<path d="M718.011 299.592C713.147 293.821 708.623 288.39 703.759 282.506C702.063 283.298 699.687 284.429 697.199 285.561C701.045 293.482 706.474 299.592 713.26 305.136C714.957 303.213 716.54 301.289 718.011 299.592Z" fill="white"/>
<path d="M872.856 324.259C873.308 326.974 873.761 329.351 874.326 332.292C882.244 330.708 889.935 329.237 897.853 327.653C897.287 324.824 896.721 322.448 896.156 319.733C888.351 321.204 880.773 322.675 872.856 324.259Z" fill="white"/>
<path d="M341.248 352.207C334.914 346.55 329.032 341.232 322.698 335.574C320.776 338.176 319.305 340.326 317.948 342.25C323.716 347.342 329.145 352.32 335.027 357.412C336.611 355.941 338.533 354.357 341.248 352.207Z" fill="white"/>
<path d="M519.733 305.136C518.036 307.399 516.453 309.436 514.756 311.586C520.977 316.451 527.085 321.204 533.306 326.295C535.002 324.259 536.586 322.335 538.509 319.959C532.175 315.094 526.067 310.228 519.733 305.136Z" fill="white"/>
<path d="M411.601 262.591C411.94 260.102 412.167 257.726 412.506 254.444C404.362 254.105 396.444 253.766 388.414 253.313C388.414 256.255 388.414 258.631 388.414 261.347C395.992 261.686 403.57 262.139 411.601 262.591Z" fill="white"/>
<path d="M340.569 258.631C341.135 261.46 341.474 263.836 342.04 266.665C349.731 265.533 357.309 264.289 365.34 263.157C365.001 260.555 364.661 258.065 364.322 255.123C356.291 256.255 348.6 257.386 340.569 258.631Z" fill="white"/>
<path d="M729.209 386.718C736.561 382.645 743.574 378.798 750.926 374.837C749.116 372.122 747.646 370.085 746.288 368.161C739.502 371.895 733.055 375.516 726.155 379.25C726.947 381.4 727.965 383.663 729.209 386.718Z" fill="white"/>
<path d="M298.04 331.161C299.058 328.898 300.076 326.635 301.32 323.693C293.629 320.977 286.164 318.375 278.359 315.659C277.455 318.601 276.776 320.977 276.097 323.467C283.449 326.182 290.688 328.672 298.04 331.161Z" fill="white"/>
<path d="M278.473 424.963C279.265 422.248 279.943 419.871 280.509 417.948C274.062 414.327 267.841 410.932 261.167 407.198C259.923 408.556 258.226 410.367 256.304 412.517C262.638 418.4 269.877 422.361 278.473 424.963Z" fill="white"/>
<path d="M758.391 236.793C750.36 233.398 742.556 231.362 733.959 231.135C733.959 233.964 733.959 236.453 733.959 238.603C741.085 240.3 747.985 241.885 755.337 243.695C756.128 241.885 757.146 239.508 758.391 236.793Z" fill="white"/>
<path d="M780.559 327.314C779.994 329.803 779.428 332.179 778.75 335.235C787.007 336.366 794.811 337.384 803.068 338.516C803.181 335.348 803.294 332.858 803.407 330.369C795.829 329.464 788.364 328.445 780.559 327.314Z" fill="white"/>
<path d="M851.026 336.14C850.687 333.311 850.348 330.822 849.895 328.106C842.091 328.898 834.513 329.577 826.482 330.369C826.595 332.971 826.821 335.348 826.934 338.516C835.078 337.724 842.883 336.932 851.026 336.14Z" fill="white"/>
<path d="M240.808 392.941C243.975 391.357 246.237 390.226 248.16 389.321C245.898 382.079 243.636 375.064 241.261 367.709C239.112 368.048 236.623 368.388 233.117 368.953C235.831 377.1 238.207 384.908 240.808 392.941Z" fill="white"/>
<path d="M636.234 381.74C635.442 384.116 634.763 386.492 633.859 389.547C641.889 391.357 649.581 393.168 657.611 395.091C658.064 391.923 658.403 389.434 658.855 387.058C651.164 385.247 643.925 383.55 636.234 381.74Z" fill="white"/>
<path d="M45.2441 219.82C40.0412 213.823 35.1775 208.052 29.9745 202.055C27.9386 203.526 25.9026 205.111 23.4142 206.921C28.7303 213.144 33.8202 219.141 39.2494 225.365C41.3984 223.328 43.3213 221.631 45.2441 219.82Z" fill="white"/>
<path d="M254.155 299.931C256.643 302.308 258.453 303.892 260.15 305.476C265.918 300.61 271.687 295.745 277.682 290.766C276.437 288.956 275.08 286.806 273.157 283.977C266.823 289.295 260.715 294.5 254.155 299.931Z" fill="white"/>
<path d="M784.405 339.534C781.804 337.837 779.655 336.479 777.506 335.121C772.868 341.118 768.118 347.115 763.254 353.339C764.951 355.036 766.874 356.733 769.249 358.883C774.339 352.433 779.202 346.097 784.405 339.534Z" fill="white"/>
<path d="M351.202 375.629C348.6 375.969 346.225 376.195 343.397 376.535C343.85 383.663 342.605 390.339 338.76 396.675C341.022 398.146 343.171 399.504 345.546 400.975C350.523 393.168 352.333 384.908 351.202 375.629Z" fill="white"/>
<path d="M779.089 249.805C777.166 252.068 775.583 253.879 774.225 255.463C779.089 261.233 783.726 266.778 788.703 272.662C790.513 271.757 792.662 270.512 795.15 269.154C791.078 261.573 785.649 255.463 779.089 249.805Z" fill="white"/>
</g>
<defs>
<clipPath id="clip0_123_553">
<rect width="944" height="265" fill="white" transform="matrix(-1 0 0 1 944.001 162)"/>
</clipPath>
</defs>
</svg>
