<svg width="24" height="18" viewBox="0 0 24 18" fill="none" xmlns="http://www.w3.org/2000/svg">
<path d="M23.5001 4.99999V13C23.4991 14.2594 22.9983 15.467 22.1077 16.3576C21.2171 17.2481 20.0096 17.7489 18.7501 17.75H2.75012C2.55162 17.7487 2.36161 17.6692 2.22124 17.5289C2.08087 17.3885 2.00143 17.1985 2.00012 17V16.25H6.75012C6.94904 16.25 7.1398 16.171 7.28045 16.0303C7.42111 15.8897 7.50012 15.6989 7.50012 15.5C7.50012 15.3011 7.42111 15.1103 7.28045 14.9697C7.1398 14.829 6.94904 14.75 6.75012 14.75H3.00012V13.25H5.75012C5.94904 13.25 6.1398 13.171 6.28045 13.0303C6.42111 12.8897 6.50012 12.6989 6.50012 12.5C6.50012 12.3011 6.42111 12.1103 6.28045 11.9697C6.1398 11.829 5.94904 11.75 5.75012 11.75H2.00012V4.99999C1.99769 4.67727 2.03123 4.35529 2.10012 4.03999L10.1801 9.23999C10.9478 9.72981 11.8395 9.99004 12.7501 9.99004C13.6608 9.99004 14.5524 9.72981 15.3201 9.23999L23.4001 4.03999C23.469 4.35529 23.5026 4.67727 23.5001 4.99999Z" fill="white"/>
<path d="M14.5071 7.979L22.8381 2.623C22.4244 1.90388 21.829 1.30612 21.1116 0.889637C20.3941 0.473151 19.5797 0.252569 18.7501 0.25H6.75011C5.92051 0.252569 5.10615 0.473151 4.38867 0.889637C3.67118 1.30612 3.07577 1.90388 2.66211 2.623L10.9931 7.979C11.5175 8.31498 12.1273 8.49356 12.7501 8.49356C13.3729 8.49356 13.9827 8.31498 14.5071 7.979Z" fill="white"/>
<path d="M6.75 17.75H0.75C0.551088 17.75 0.360322 17.671 0.21967 17.5303C0.0790176 17.3897 0 17.1989 0 17C0 16.8011 0.0790176 16.6103 0.21967 16.4697C0.360322 16.329 0.551088 16.25 0.75 16.25H6.75C6.94891 16.25 7.13968 16.329 7.28033 16.4697C7.42098 16.6103 7.5 16.8011 7.5 17C7.5 17.1989 7.42098 17.3897 7.28033 17.5303C7.13968 17.671 6.94891 17.75 6.75 17.75Z" fill="white"/>
<path d="M5.75 14.75H2.75C2.55109 14.75 2.36032 14.671 2.21967 14.5303C2.07902 14.3897 2 14.1989 2 14C2 13.8011 2.07902 13.6103 2.21967 13.4697C2.36032 13.329 2.55109 13.25 2.75 13.25H5.75C5.94891 13.25 6.13968 13.329 6.28033 13.4697C6.42098 13.6103 6.5 13.8011 6.5 14C6.5 14.1989 6.42098 14.3897 6.28033 14.5303C6.13968 14.671 5.94891 14.75 5.75 14.75Z" fill="white"/>
<path d="M4.75 11.75H1.75C1.55109 11.75 1.36032 11.671 1.21967 11.5303C1.07902 11.3897 1 11.1989 1 11C1 10.8011 1.07902 10.6103 1.21967 10.4697C1.36032 10.329 1.55109 10.25 1.75 10.25H4.75C4.94891 10.25 5.13968 10.329 5.28033 10.4697C5.42098 10.6103 5.5 10.8011 5.5 11C5.5 11.1989 5.42098 11.3897 5.28033 11.5303C5.13968 11.671 4.94891 11.75 4.75 11.75Z" fill="white"/>
</svg>
