<svg width="29" height="29" viewBox="0 0 29 29" fill="none" xmlns="http://www.w3.org/2000/svg">
<g clip-path="url(#clip0_49_136)">
<path d="M28.4999 24H0.500022C0.2239 24 0 23.7761 0 23.5V5.50002C0 5.2239 0.2239 5 0.500022 5H28.5C28.7761 5 29 5.2239 29 5.50002V23.5C28.9999 23.7762 28.776 24 28.4999 24Z" fill="#F5F5F5"/>
<path d="M28.9999 6.46161H0V5.50002C0 5.2239 0.2239 5 0.500022 5H28.5C28.7761 5 29 5.2239 29 5.50002L28.9999 6.46161Z" fill="#FF4B55"/>
<path d="M28.9999 10.8462H0V12.3077H28.9999V10.8462Z" fill="#FF4B55"/>
<path d="M28.9999 7.92285H0V9.3844H28.9999V7.92285Z" fill="#FF4B55"/>
<path d="M28.9999 15.2307H0.500022C0.2239 15.2307 0 15.0068 0 14.7306V13.769H28.9999V15.2307Z" fill="#FF4B55"/>
<path d="M28.9999 19.6157H0V21.0773H28.9999V19.6157Z" fill="#FF4B55"/>
<path d="M28.4999 24.0001H0.500022C0.2239 24.0001 0 23.7762 0 23.5001V22.5386H28.9999V23.5002C28.9999 23.7763 28.776 24.0001 28.4999 24.0001Z" fill="#FF4B55"/>
<path d="M28.9999 16.6924H0V18.1539H28.9999V16.6924Z" fill="#FF4B55"/>
<path d="M13 5H0.500022C0.2239 5 0 5.22384 0 5.49997V14.7307C0 15.0068 0.2239 15.2307 0.500022 15.2307H13C13.2761 15.2307 13.5 15.0068 13.5 14.7307V5.49997C13.5 5.22384 13.2761 5 13 5Z" fill="#41479B"/>
<path d="M1.40489 6.14747L1.51557 6.47938L1.86543 6.48205C1.91075 6.48244 1.92949 6.54021 1.89307 6.56712L1.61163 6.77499L1.71721 7.10855C1.73091 7.15171 1.68169 7.1875 1.64482 7.16111L1.3602 6.95771L1.07558 7.16116C1.03871 7.1875 0.989602 7.15176 1.0032 7.1086L1.10877 6.77505L0.827327 6.56718C0.790907 6.54021 0.809655 6.4825 0.854967 6.4821L1.20484 6.47944L1.31551 6.14753C1.32978 6.10448 1.3905 6.10448 1.40489 6.14747Z" fill="#F5F5F5"/>
<path d="M1.4044 7.88376L1.51508 8.21567L1.86495 8.21833C1.91026 8.21873 1.92901 8.2765 1.89259 8.30341L1.61114 8.51128L1.71672 8.84483C1.73042 8.88799 1.6812 8.92379 1.64433 8.89739L1.35971 8.694L1.07509 8.89745C1.03822 8.92379 0.989114 8.88805 1.00271 8.84489L1.10829 8.51133L0.826839 8.30346C0.790419 8.2765 0.809167 8.21878 0.854479 8.21839L1.20435 8.21573L1.31502 7.88381C1.3293 7.84082 1.39002 7.84082 1.4044 7.88376Z" fill="#F5F5F5"/>
<path d="M1.4044 9.62008L1.51508 9.952L1.86495 9.95466C1.91026 9.95506 1.92901 10.0128 1.89259 10.0397L1.61114 10.2476L1.71672 10.5812C1.73042 10.6243 1.6812 10.6601 1.64433 10.6337L1.35971 10.4303L1.07509 10.6338C1.03822 10.6601 0.989114 10.6244 1.00271 10.5812L1.10829 10.2477L0.826839 10.0398C0.790419 10.0128 0.809167 9.95511 0.854479 9.95472L1.20435 9.95205L1.31502 9.62014C1.3293 9.57715 1.39002 9.57715 1.4044 9.62008Z" fill="#F5F5F5"/>
<path d="M1.4044 11.3565L1.51508 11.6884L1.86495 11.691C1.91026 11.6914 1.92901 11.7492 1.89259 11.7761L1.61114 11.984L1.71672 12.3175C1.73042 12.3607 1.6812 12.3965 1.64433 12.3701L1.35971 12.1667L1.07509 12.3701C1.03822 12.3965 0.989114 12.3607 1.00271 12.3176L1.10829 11.984L0.826839 11.7762C0.790419 11.7492 0.809167 11.6915 0.854479 11.6911L1.20435 11.6884L1.31502 11.3565C1.3293 11.3135 1.39002 11.3135 1.4044 11.3565Z" fill="#F5F5F5"/>
<path d="M1.4044 13.0923L1.51508 13.4242L1.86495 13.4269C1.91026 13.4273 1.92901 13.4851 1.89259 13.512L1.61114 13.7199L1.71672 14.0534C1.73042 14.0966 1.6812 14.1324 1.64433 14.106L1.35971 13.9026L1.07509 14.106C1.03822 14.1324 0.989114 14.0966 1.00271 14.0535L1.10829 13.7199L0.826839 13.512C0.790419 13.4851 0.809167 13.4274 0.854479 13.427L1.20435 13.4243L1.31502 13.0924C1.3293 13.0493 1.39002 13.0493 1.4044 13.0923Z" fill="#F5F5F5"/>
<path d="M2.75206 6.99851L2.86273 7.33042L3.2126 7.33308C3.25791 7.33348 3.27666 7.39125 3.24024 7.41816L2.9588 7.62603L3.06437 7.95959C3.07808 8.00275 3.02886 8.03854 2.99199 8.01215L2.70737 7.8087L2.42275 8.01215C2.38588 8.03849 2.33677 8.00275 2.35036 7.95959L2.45594 7.62603L2.17449 7.41816C2.13808 7.3912 2.15682 7.33348 2.20214 7.33308L2.552 7.33042L2.66268 6.99851C2.6769 6.95558 2.73773 6.95558 2.75206 6.99851Z" fill="#F5F5F5"/>
<path d="M2.75206 8.73488L2.86273 9.06679L3.2126 9.06945C3.25791 9.06985 3.27666 9.12762 3.24024 9.15453L2.9588 9.3624L3.06437 9.69595C3.07808 9.73911 3.02886 9.77491 2.99199 9.74852L2.70737 9.54506L2.42275 9.74852C2.38588 9.77485 2.33677 9.73917 2.35036 9.69595L2.45594 9.3624L2.17449 9.15453C2.13808 9.12757 2.15682 9.06985 2.20214 9.06945L2.552 9.06679L2.66268 8.73488C2.6769 8.69189 2.73773 8.69189 2.75206 8.73488Z" fill="#F5F5F5"/>
<path d="M2.75206 10.4712L2.86273 10.8031L3.2126 10.8058C3.25791 10.8062 3.27666 10.864 3.24024 10.8909L2.9588 11.0987L3.06437 11.4323C3.07808 11.4754 3.02886 11.5112 2.99199 11.4848L2.70737 11.2814L2.42275 11.4848C2.38588 11.5112 2.33677 11.4754 2.35036 11.4323L2.45594 11.0987L2.17449 10.8909C2.13808 10.8639 2.15682 10.8062 2.20214 10.8058L2.552 10.8031L2.66268 10.4712C2.6769 10.4282 2.73773 10.4282 2.75206 10.4712Z" fill="#F5F5F5"/>
<path d="M2.75206 12.2075L2.86273 12.5394L3.2126 12.5421C3.25791 12.5425 3.27666 12.6002 3.24024 12.6271L2.9588 12.835L3.06437 13.1686C3.07808 13.2117 3.02886 13.2475 2.99199 13.2211L2.70737 13.0177L2.42275 13.2211C2.38588 13.2475 2.33677 13.2117 2.35036 13.1686L2.45594 12.835L2.17449 12.6271C2.13808 12.6002 2.15682 12.5425 2.20214 12.5421L2.552 12.5394L2.66268 12.2075C2.6769 12.1646 2.73773 12.1646 2.75206 12.2075Z" fill="#F5F5F5"/>
<path d="M4.09971 6.14748L4.21039 6.47939L4.56026 6.48205C4.60557 6.48245 4.62432 6.54022 4.5879 6.56713L4.30645 6.775L4.41203 7.10855C4.42574 7.15171 4.37652 7.18751 4.33964 7.16111L4.05502 6.95766L3.77041 7.16111C3.73353 7.18745 3.68443 7.15171 3.69802 7.10855L3.8036 6.775L3.52215 6.56713C3.48573 6.54017 3.50448 6.48245 3.54979 6.48205L3.89966 6.47939L4.01034 6.14748C4.02461 6.10449 4.08538 6.10449 4.09971 6.14748Z" fill="#F5F5F5"/>
<path d="M4.09971 7.88376L4.21039 8.21568L4.56026 8.21834C4.60557 8.21873 4.62432 8.27651 4.5879 8.30341L4.30645 8.51128L4.41203 8.84484C4.42574 8.888 4.37652 8.92379 4.33964 8.8974L4.05502 8.69395L3.77041 8.8974C3.73353 8.92374 3.68443 8.888 3.69802 8.84484L3.8036 8.51128L3.52215 8.30341C3.48573 8.27645 3.50448 8.21873 3.54979 8.21834L3.89966 8.21568L4.01034 7.88376C4.02461 7.84083 4.08538 7.84083 4.09971 7.88376Z" fill="#F5F5F5"/>
<path d="M4.09971 9.62009L4.21039 9.952L4.56026 9.95467C4.60557 9.95506 4.62432 10.0128 4.5879 10.0397L4.30645 10.2476L4.41203 10.5812C4.42574 10.6243 4.37652 10.6601 4.33964 10.6337L4.05502 10.4303L3.77041 10.6337C3.73353 10.6601 3.68443 10.6243 3.69802 10.5812L3.8036 10.2476L3.52215 10.0397C3.48573 10.0128 3.50448 9.95506 3.54979 9.95467L3.89966 9.952L4.01034 9.62009C4.02461 9.57716 4.08538 9.57716 4.09971 9.62009Z" fill="#F5F5F5"/>
<path d="M4.09971 11.3565L4.21039 11.6884L4.56026 11.691C4.60557 11.6914 4.62432 11.7492 4.5879 11.7761L4.30645 11.984L4.41203 12.3175C4.42574 12.3607 4.37652 12.3965 4.33964 12.3701L4.05502 12.1666L3.77041 12.3701C3.73353 12.3964 3.68443 12.3607 3.69802 12.3175L3.8036 11.984L3.52215 11.7761C3.48573 11.7491 3.50448 11.6914 3.54979 11.691L3.89966 11.6884L4.01034 11.3565C4.02461 11.3135 4.08538 11.3135 4.09971 11.3565Z" fill="#F5F5F5"/>
<path d="M4.09971 13.0923L4.21039 13.4243L4.56026 13.4269C4.60557 13.4273 4.62432 13.4851 4.5879 13.512L4.30645 13.7199L4.41203 14.0534C4.42574 14.0966 4.37652 14.1324 4.33964 14.106L4.05502 13.9025L3.77041 14.106C3.73353 14.1323 3.68443 14.0966 3.69802 14.0534L3.8036 13.7199L3.52215 13.512C3.48573 13.485 3.50448 13.4273 3.54979 13.4269L3.89966 13.4243L4.01034 13.0923C4.02461 13.0493 4.08538 13.0493 4.09971 13.0923Z" fill="#F5F5F5"/>
<path d="M5.44737 6.99851L5.55805 7.33042L5.90791 7.33308C5.95323 7.33348 5.97198 7.39125 5.93556 7.41816L5.65411 7.62603L5.75969 7.95959C5.77339 8.00275 5.72417 8.03854 5.6873 8.01215L5.40268 7.8087L5.11806 8.01215C5.08119 8.03849 5.03208 8.00275 5.04568 7.95959L5.15125 7.62603L4.86981 7.41816C4.83339 7.3912 4.85214 7.33348 4.89745 7.33308L5.24732 7.33042L5.35799 6.99851C5.37221 6.95558 5.43304 6.95558 5.44737 6.99851Z" fill="#F5F5F5"/>
<path d="M5.44737 8.73488L5.55805 9.06679L5.90791 9.06945C5.95323 9.06985 5.97198 9.12762 5.93556 9.15453L5.65411 9.3624L5.75969 9.69595C5.77339 9.73911 5.72417 9.77491 5.6873 9.74852L5.40268 9.54506L5.11806 9.74852C5.08119 9.77485 5.03208 9.73917 5.04568 9.69595L5.15125 9.3624L4.86981 9.15453C4.83339 9.12757 4.85214 9.06985 4.89745 9.06945L5.24732 9.06679L5.35799 8.73488C5.37221 8.69189 5.43304 8.69189 5.44737 8.73488Z" fill="#F5F5F5"/>
<path d="M5.44737 10.4712L5.55805 10.8031L5.90791 10.8058C5.95323 10.8062 5.97198 10.864 5.93556 10.8909L5.65411 11.0987L5.75969 11.4323C5.77339 11.4754 5.72417 11.5112 5.6873 11.4848L5.40268 11.2814L5.11806 11.4848C5.08119 11.5112 5.03208 11.4754 5.04568 11.4323L5.15125 11.0987L4.86981 10.8909C4.83339 10.8639 4.85214 10.8062 4.89745 10.8058L5.24732 10.8031L5.35799 10.4712C5.37221 10.4282 5.43304 10.4282 5.44737 10.4712Z" fill="#F5F5F5"/>
<path d="M5.44737 12.2075L5.55805 12.5394L5.90791 12.5421C5.95323 12.5425 5.97198 12.6002 5.93556 12.6271L5.65411 12.835L5.75969 13.1686C5.77339 13.2117 5.72417 13.2475 5.6873 13.2211L5.40268 13.0177L5.11806 13.2211C5.08119 13.2475 5.03208 13.2117 5.04568 13.1686L5.15125 12.835L4.86981 12.6271C4.83339 12.6002 4.85214 12.5425 4.89745 12.5421L5.24732 12.5394L5.35799 12.2075C5.37221 12.1646 5.43304 12.1646 5.44737 12.2075Z" fill="#F5F5F5"/>
<path d="M6.79508 6.14748L6.90576 6.47939L7.25563 6.48205C7.30094 6.48245 7.31969 6.54022 7.28327 6.56713L7.00182 6.775L7.1074 7.10855C7.12111 7.15171 7.07189 7.18751 7.03501 7.16111L6.75034 6.95766L6.46572 7.16111C6.42885 7.18745 6.37974 7.15171 6.39333 7.10855L6.49891 6.775L6.21746 6.56713C6.18104 6.54017 6.19979 6.48245 6.2451 6.48205L6.59497 6.47939L6.70565 6.14748C6.71998 6.10449 6.78075 6.10449 6.79508 6.14748Z" fill="#F5F5F5"/>
<path d="M6.79508 7.88376L6.90576 8.21568L7.25563 8.21834C7.30094 8.21873 7.31969 8.27651 7.28327 8.30341L7.00182 8.51128L7.1074 8.84484C7.12111 8.888 7.07189 8.92379 7.03501 8.8974L6.75034 8.69395L6.46572 8.8974C6.42885 8.92374 6.37974 8.888 6.39333 8.84484L6.49891 8.51128L6.21746 8.30341C6.18104 8.27645 6.19979 8.21873 6.2451 8.21834L6.59497 8.21568L6.70565 7.88376C6.71998 7.84083 6.78075 7.84083 6.79508 7.88376Z" fill="#F5F5F5"/>
<path d="M6.79508 9.62009L6.90576 9.952L7.25563 9.95467C7.30094 9.95506 7.31969 10.0128 7.28327 10.0397L7.00182 10.2476L7.1074 10.5812C7.12111 10.6243 7.07189 10.6601 7.03501 10.6337L6.75034 10.4303L6.46572 10.6337C6.42885 10.6601 6.37974 10.6243 6.39333 10.5812L6.49891 10.2476L6.21746 10.0397C6.18104 10.0128 6.19979 9.95506 6.2451 9.95467L6.59497 9.952L6.70565 9.62009C6.71998 9.57716 6.78075 9.57716 6.79508 9.62009Z" fill="#F5F5F5"/>
<path d="M6.79508 11.3565L6.90576 11.6884L7.25563 11.691C7.30094 11.6914 7.31969 11.7492 7.28327 11.7761L7.00182 11.984L7.1074 12.3175C7.12111 12.3607 7.07189 12.3965 7.03501 12.3701L6.75034 12.1666L6.46572 12.3701C6.42885 12.3964 6.37974 12.3607 6.39333 12.3175L6.49891 11.984L6.21746 11.7761C6.18104 11.7491 6.19979 11.6914 6.2451 11.691L6.59497 11.6884L6.70565 11.3565C6.71998 11.3135 6.78075 11.3135 6.79508 11.3565Z" fill="#F5F5F5"/>
<path d="M6.79508 13.0923L6.90576 13.4243L7.25563 13.4269C7.30094 13.4273 7.31969 13.4851 7.28327 13.512L7.00182 13.7199L7.1074 14.0534C7.12111 14.0966 7.07189 14.1324 7.03501 14.106L6.75034 13.9025L6.46572 14.106C6.42885 14.1323 6.37974 14.0966 6.39333 14.0534L6.49891 13.7199L6.21746 13.512C6.18104 13.485 6.19979 13.4273 6.2451 13.4269L6.59497 13.4243L6.70565 13.0923C6.71998 13.0493 6.78075 13.0493 6.79508 13.0923Z" fill="#F5F5F5"/>
<path d="M8.14268 6.99851L8.25336 7.33042L8.60323 7.33308C8.64854 7.33348 8.66729 7.39125 8.63087 7.41816L8.34942 7.62603L8.455 7.95959C8.46871 8.00275 8.41949 8.03854 8.38261 8.01215L8.09799 7.8087L7.81338 8.01215C7.7765 8.03849 7.72739 8.00275 7.74099 7.95959L7.84657 7.62603L7.56512 7.41816C7.5287 7.3912 7.54745 7.33348 7.59276 7.33308L7.94263 7.33042L8.05331 6.99851C8.06764 6.95558 8.12835 6.95558 8.14268 6.99851Z" fill="#F5F5F5"/>
<path d="M8.14268 8.73488L8.25336 9.06679L8.60323 9.06945C8.64854 9.06985 8.66729 9.12762 8.63087 9.15453L8.34942 9.3624L8.455 9.69595C8.46871 9.73911 8.41949 9.77491 8.38261 9.74852L8.09799 9.54506L7.81338 9.74852C7.7765 9.77485 7.72739 9.73917 7.74099 9.69595L7.84657 9.3624L7.56512 9.15453C7.5287 9.12757 7.54745 9.06985 7.59276 9.06945L7.94263 9.06679L8.05331 8.73488C8.06764 8.69189 8.12835 8.69189 8.14268 8.73488Z" fill="#F5F5F5"/>
<path d="M8.14268 10.4712L8.25336 10.8031L8.60323 10.8058C8.64854 10.8062 8.66729 10.864 8.63087 10.8909L8.34942 11.0987L8.455 11.4323C8.46871 11.4754 8.41949 11.5112 8.38261 11.4848L8.09799 11.2814L7.81338 11.4848C7.7765 11.5112 7.72739 11.4754 7.74099 11.4323L7.84657 11.0987L7.56512 10.8909C7.5287 10.8639 7.54745 10.8062 7.59276 10.8058L7.94263 10.8031L8.05331 10.4712C8.06764 10.4282 8.12835 10.4282 8.14268 10.4712Z" fill="#F5F5F5"/>
<path d="M8.14268 12.2075L8.25336 12.5394L8.60323 12.5421C8.64854 12.5425 8.66729 12.6002 8.63087 12.6271L8.34942 12.835L8.455 13.1686C8.46871 13.2117 8.41949 13.2475 8.38261 13.2211L8.09799 13.0177L7.81338 13.2211C7.7765 13.2475 7.72739 13.2117 7.74099 13.1686L7.84657 12.835L7.56512 12.6271C7.5287 12.6002 7.54745 12.5425 7.59276 12.5421L7.94263 12.5394L8.05331 12.2075C8.06764 12.1646 8.12835 12.1646 8.14268 12.2075Z" fill="#F5F5F5"/>
<path d="M9.49034 6.14748L9.60102 6.47939L9.95088 6.48205C9.9962 6.48245 10.0149 6.54022 9.97853 6.56713L9.69708 6.775L9.80266 7.10855C9.81636 7.15171 9.76714 7.18751 9.73027 7.16111L9.44565 6.95766L9.16103 7.16111C9.12416 7.18745 9.07505 7.15171 9.08865 7.10855L9.19422 6.775L8.91278 6.56713C8.87636 6.54017 8.8951 6.48245 8.94042 6.48205L9.29029 6.47939L9.40096 6.14748C9.41518 6.10449 9.47601 6.10449 9.49034 6.14748Z" fill="#F5F5F5"/>
<path d="M9.49034 7.88376L9.60102 8.21568L9.95088 8.21834C9.9962 8.21873 10.0149 8.27651 9.97853 8.30341L9.69708 8.51128L9.80266 8.84484C9.81636 8.888 9.76714 8.92379 9.73027 8.8974L9.44565 8.69395L9.16103 8.8974C9.12416 8.92374 9.07505 8.888 9.08865 8.84484L9.19422 8.51128L8.91278 8.30341C8.87636 8.27645 8.8951 8.21873 8.94042 8.21834L9.29029 8.21568L9.40096 7.88376C9.41518 7.84083 9.47601 7.84083 9.49034 7.88376Z" fill="#F5F5F5"/>
<path d="M9.49034 9.62009L9.60102 9.952L9.95088 9.95467C9.9962 9.95506 10.0149 10.0128 9.97853 10.0397L9.69708 10.2476L9.80266 10.5812C9.81636 10.6243 9.76714 10.6601 9.73027 10.6337L9.44565 10.4303L9.16103 10.6337C9.12416 10.6601 9.07505 10.6243 9.08865 10.5812L9.19422 10.2476L8.91278 10.0397C8.87636 10.0128 8.8951 9.95506 8.94042 9.95467L9.29029 9.952L9.40096 9.62009C9.41518 9.57716 9.47601 9.57716 9.49034 9.62009Z" fill="#F5F5F5"/>
<path d="M9.49034 11.3565L9.60102 11.6884L9.95088 11.691C9.9962 11.6914 10.0149 11.7492 9.97853 11.7761L9.69708 11.984L9.80266 12.3175C9.81636 12.3607 9.76714 12.3965 9.73027 12.3701L9.44565 12.1666L9.16103 12.3701C9.12416 12.3964 9.07505 12.3607 9.08865 12.3175L9.19422 11.984L8.91278 11.7761C8.87636 11.7491 8.8951 11.6914 8.94042 11.691L9.29029 11.6884L9.40096 11.3565C9.41518 11.3135 9.47601 11.3135 9.49034 11.3565Z" fill="#F5F5F5"/>
<path d="M9.49034 13.0923L9.60102 13.4243L9.95088 13.4269C9.9962 13.4273 10.0149 13.4851 9.97853 13.512L9.69708 13.7199L9.80266 14.0534C9.81636 14.0966 9.76714 14.1324 9.73027 14.106L9.44565 13.9025L9.16103 14.106C9.12416 14.1323 9.07505 14.0966 9.08865 14.0534L9.19422 13.7199L8.91278 13.512C8.87636 13.485 8.8951 13.4273 8.94042 13.4269L9.29029 13.4243L9.40096 13.0923C9.41518 13.0493 9.47601 13.0493 9.49034 13.0923Z" fill="#F5F5F5"/>
<path d="M10.838 6.99851L10.9487 7.33042L11.2985 7.33308C11.3439 7.33348 11.3626 7.39125 11.3262 7.41816L11.0447 7.62603L11.1503 7.95959C11.164 8.00275 11.1148 8.03854 11.0779 8.01215L10.7933 7.8087L10.5087 8.01215C10.4718 8.03849 10.4227 8.00275 10.4363 7.95959L10.5419 7.62603L10.2604 7.41816C10.224 7.3912 10.2428 7.33348 10.2881 7.33308L10.6379 7.33042L10.7486 6.99851C10.7629 6.95558 10.8237 6.95558 10.838 6.99851Z" fill="#F5F5F5"/>
<path d="M10.838 8.73488L10.9487 9.06679L11.2985 9.06945C11.3439 9.06985 11.3626 9.12762 11.3262 9.15453L11.0447 9.3624L11.1503 9.69595C11.164 9.73911 11.1148 9.77491 11.0779 9.74852L10.7933 9.54506L10.5087 9.74852C10.4718 9.77485 10.4227 9.73917 10.4363 9.69595L10.5419 9.3624L10.2604 9.15453C10.224 9.12757 10.2428 9.06985 10.2881 9.06945L10.6379 9.06679L10.7486 8.73488C10.7629 8.69189 10.8237 8.69189 10.838 8.73488Z" fill="#F5F5F5"/>
<path d="M10.838 10.4712L10.9487 10.8031L11.2985 10.8058C11.3439 10.8062 11.3626 10.864 11.3262 10.8909L11.0447 11.0987L11.1503 11.4323C11.164 11.4754 11.1148 11.5112 11.0779 11.4848L10.7933 11.2814L10.5087 11.4848C10.4718 11.5112 10.4227 11.4754 10.4363 11.4323L10.5419 11.0987L10.2604 10.8909C10.224 10.8639 10.2428 10.8062 10.2881 10.8058L10.6379 10.8031L10.7486 10.4712C10.7629 10.4282 10.8237 10.4282 10.838 10.4712Z" fill="#F5F5F5"/>
<path d="M10.838 12.2075L10.9487 12.5394L11.2985 12.5421C11.3439 12.5425 11.3626 12.6002 11.3262 12.6271L11.0447 12.835L11.1503 13.1686C11.164 13.2117 11.1148 13.2475 11.0779 13.2211L10.7933 13.0177L10.5087 13.2211C10.4718 13.2475 10.4227 13.2117 10.4363 13.1686L10.5419 12.835L10.2604 12.6271C10.224 12.6002 10.2428 12.5425 10.2881 12.5421L10.6379 12.5394L10.7486 12.2075C10.7629 12.1646 10.8237 12.1646 10.838 12.2075Z" fill="#F5F5F5"/>
<path d="M12.1857 6.14748L12.2963 6.47939L12.6462 6.48205C12.6915 6.48245 12.7103 6.54022 12.6738 6.56713L12.3924 6.775L12.498 7.10855C12.5117 7.15171 12.4625 7.18751 12.4256 7.16111L12.141 6.95766L11.8563 7.16111C11.8195 7.18745 11.7704 7.15171 11.784 7.10855L11.8895 6.775L11.6081 6.56713C11.5717 6.54017 11.5904 6.48245 11.6357 6.48205L11.9856 6.47939L12.0963 6.14748C12.1105 6.10449 12.1713 6.10449 12.1857 6.14748Z" fill="#F5F5F5"/>
<path d="M12.1857 7.88376L12.2963 8.21568L12.6462 8.21834C12.6915 8.21873 12.7103 8.27651 12.6738 8.30341L12.3924 8.51128L12.498 8.84484C12.5117 8.888 12.4625 8.92379 12.4256 8.8974L12.141 8.69395L11.8563 8.8974C11.8195 8.92374 11.7704 8.888 11.784 8.84484L11.8895 8.51128L11.6081 8.30341C11.5717 8.27645 11.5904 8.21873 11.6357 8.21834L11.9856 8.21568L12.0963 7.88376C12.1105 7.84083 12.1713 7.84083 12.1857 7.88376Z" fill="#F5F5F5"/>
<path d="M12.1857 9.62009L12.2963 9.952L12.6462 9.95467C12.6915 9.95506 12.7103 10.0128 12.6738 10.0397L12.3924 10.2476L12.498 10.5812C12.5117 10.6243 12.4625 10.6601 12.4256 10.6337L12.141 10.4303L11.8563 10.6337C11.8195 10.6601 11.7704 10.6243 11.784 10.5812L11.8895 10.2476L11.6081 10.0397C11.5717 10.0128 11.5904 9.95506 11.6357 9.95467L11.9856 9.952L12.0963 9.62009C12.1105 9.57716 12.1713 9.57716 12.1857 9.62009Z" fill="#F5F5F5"/>
<path d="M12.1857 11.3565L12.2963 11.6884L12.6462 11.691C12.6915 11.6914 12.7103 11.7492 12.6738 11.7761L12.3924 11.984L12.498 12.3175C12.5117 12.3607 12.4625 12.3965 12.4256 12.3701L12.141 12.1666L11.8563 12.3701C11.8195 12.3964 11.7704 12.3607 11.784 12.3175L11.8895 11.984L11.6081 11.7761C11.5717 11.7491 11.5904 11.6914 11.6357 11.691L11.9856 11.6884L12.0963 11.3565C12.1105 11.3135 12.1713 11.3135 12.1857 11.3565Z" fill="#F5F5F5"/>
<path d="M12.1857 13.0923L12.2963 13.4243L12.6462 13.4269C12.6915 13.4273 12.7103 13.4851 12.6738 13.512L12.3924 13.7199L12.498 14.0534C12.5117 14.0966 12.4625 14.1324 12.4256 14.106L12.141 13.9025L11.8563 14.106C11.8195 14.1323 11.7704 14.0966 11.784 14.0534L11.8895 13.7199L11.6081 13.512C11.5717 13.485 11.5904 13.4273 11.6357 13.4269L11.9856 13.4243L12.0963 13.0923C12.1105 13.0493 12.1713 13.0493 12.1857 13.0923Z" fill="#F5F5F5"/>
</g>
<defs>
<clipPath id="clip0_49_136">
<rect width="29" height="29" fill="white"/>
</clipPath>
</defs>
</svg>
