<svg width="279" height="75" viewBox="0 0 279 75" fill="none" xmlns="http://www.w3.org/2000/svg">
<g clip-path="url(#clip0_49_66)">
<path d="M51.4478 38.9023C50.4634 39.5775 49.5827 40.4085 48.8573 41.3953C48.132 42.3822 47.562 43.5248 47.1476 44.6675C46.3186 47.0047 46.6813 49.2901 47.8211 51.1599C49.9453 52.0428 52.2768 52.5103 54.7119 52.5103H54.7637C56.4216 52.5103 58.1832 52.2506 59.893 51.7831C59.6339 51.1079 59.6339 50.3808 59.7375 49.6536C59.893 48.6668 60.4111 47.8877 60.9292 47.0567C62.2762 45.0311 63.2088 42.7977 63.4679 40.3565C63.6751 38.6426 63.8306 36.9286 63.3643 35.2146C62.5353 32.0982 60.7219 29.5532 58.235 27.5276C56.9398 26.4888 55.4891 25.6059 53.9866 24.9306C53.6239 24.7748 53.2094 24.671 52.7431 24.5151C52.8467 25.0345 52.9503 25.45 53.0022 25.8656C52.5359 25.8136 52.0696 25.8136 51.5515 25.7617C51.8105 26.2811 51.9141 26.6446 52.1732 27.0082C52.4322 27.4237 52.3286 27.6834 51.9659 27.9951C51.4478 28.4625 50.9815 28.93 50.6189 29.5013C49.9971 30.3842 49.5308 31.2672 48.7537 31.9944C48.5982 32.1502 48.5464 32.5138 48.5983 32.7215C48.9609 34.2797 50.4116 35.3704 52.0178 35.4223C52.5359 35.4223 53.054 35.4743 53.5721 35.5782C54.401 35.7859 55.0228 36.5131 55.0228 37.2921C54.9191 37.2402 51.7069 38.6945 51.4478 38.9023Z" fill="#364A9A"/>
<path d="M67.4054 9.66081C64.8667 11.6345 62.4834 13.8679 60.6182 16.5168C58.7531 19.1137 57.7687 22.0223 57.665 25.1906C57.665 25.4503 57.665 25.6061 57.9241 25.7619C59.0121 26.4371 59.9965 27.2682 60.8255 28.255C62.4316 30.0729 63.8823 31.9946 64.4522 34.3838C65.3848 38.3831 64.9703 42.2266 63.157 45.9662C62.6389 47.0569 62.0171 48.0957 61.6026 49.1864C61.3436 49.8616 61.2918 50.5369 61.4472 51.1082C63.3642 50.5369 65.2294 49.7058 67.0428 48.667C67.0428 48.6151 67.0946 48.5632 67.0946 48.5112C67.6127 47.2128 68.1826 45.9143 68.8043 44.6158C69.8405 42.3824 70.8249 40.149 71.5503 37.8118C72.172 35.6303 72.0684 33.5008 70.9804 31.4752C70.5141 30.5923 70.1514 29.7093 69.7369 28.8783C69.2706 27.9434 69.0116 26.9046 69.167 25.8658C69.3742 24.2557 69.9441 23.3727 71.7575 23.6844C72.7419 23.8402 73.6745 23.9441 74.6589 23.996C75.5397 24.0479 76.3169 23.6324 76.835 22.8533C77.5085 21.8665 77.8194 20.8277 77.8194 19.6331C77.8194 19.2695 77.6639 19.0618 77.3012 18.9579C76.265 18.6982 75.177 18.3346 74.1408 18.023C73.7263 17.8672 73.4155 17.6075 73.1564 17.192C72.3274 15.7377 71.4467 14.2834 70.0996 13.2446C70.0478 13.1927 69.996 12.9849 70.0478 12.881C70.4623 11.9461 70.9285 11.0112 71.3948 10.1283C71.4467 10.0244 71.5503 9.86857 71.6021 9.76469C71.6021 9.71275 71.5503 9.71275 71.5503 9.66081C70.4623 9.76469 69.5297 10.2841 68.5453 10.9593C68.5453 10.388 68.5453 9.86857 68.5453 9.19336C68.0272 9.34918 67.6645 9.45305 67.4054 9.66081Z" fill="#364A9A"/>
<path d="M62.0173 0C55.4891 0 49.1164 2.44114 44.298 6.80402C39.4279 2.44114 33.107 0 26.5788 0C11.9164 0 0 11.946 0 26.6447C0 33.9162 3.05682 40.9799 8.3415 46.018C21.1905 58.847 41.9666 73.4418 42.8473 74.0651L44.2462 75.0519L45.6451 74.0651C46.1632 73.7015 53.6758 68.4557 62.3799 61.5997C61.1365 61.8075 59.893 61.9114 58.5978 61.9114C57.1989 61.9114 55.7482 61.8075 54.4011 61.5478C49.9454 64.9758 46.1632 67.6766 44.2462 69.0789C39.2724 65.5471 22.434 53.2375 11.761 42.59L11.7092 42.5381C7.30529 38.383 4.92201 32.7735 4.92201 26.7486C4.92201 14.8026 14.6106 5.03809 26.5788 5.03809C32.5889 4.93421 38.3916 7.47922 42.4847 11.946L44.298 13.9197L46.1114 11.946C50.2045 7.47922 56.0072 4.93421 62.0173 4.93421C73.9337 4.93421 83.6741 14.6468 83.6741 26.6447C83.6741 28.4107 83.4669 30.1766 83.0524 31.8386C81.1354 39.7334 74.4 47.4204 66.473 51.5235C64.9705 52.3026 63.468 52.9259 61.9136 53.4453C61.8618 53.4453 61.81 53.4972 61.7064 53.4972C59.3749 54.2244 56.9916 54.6399 54.6084 54.6399C53.2613 54.6399 51.9142 54.4841 50.6189 54.2244C47.0958 53.4972 43.7799 51.8871 41.1894 49.394C43.2618 51.3677 44.7643 53.4453 47.3031 55.0035C54.8674 59.678 63.6234 58.3276 70.8769 54.2244C72.9493 53.0298 74.9181 51.6274 76.6797 50.0693C77.4568 49.394 78.234 48.6669 78.9593 47.8878C83.6741 42.9536 87.6635 36.0457 88.3889 29.1898C88.4925 28.3068 88.5443 27.4238 88.5443 26.5409C88.5961 11.946 76.6797 0 62.0173 0Z" fill="#FF9F47"/>
<path d="M15.6468 37.0844C15.854 37.3441 16.0613 37.6038 16.2685 37.8115C16.3203 37.8635 16.3721 37.9154 16.3721 37.9674C16.3721 38.3309 16.5794 38.5906 16.683 38.8503C16.7348 39.0061 16.8902 39.11 16.9938 39.2139C17.3047 39.5255 17.6674 39.8372 17.9783 40.2007C18.2373 40.4604 18.5482 40.6682 18.859 40.7721L20.1543 38.0712C20.2061 37.9674 20.3097 37.8115 20.3615 37.7077C16.1131 33.6564 15.9576 31.5789 16.4239 30.1765C16.683 29.3974 17.4601 28.0989 19.5844 28.0989C19.7916 28.0989 19.9989 28.0989 20.2061 28.1509L20.7242 28.2028L21.6568 29.0858L22.0195 28.4625C22.2267 28.5144 22.4858 28.5664 22.693 28.6703C22.6412 28.5664 22.5894 28.5144 22.5376 28.4106C22.3821 28.2028 22.2785 28.047 22.3303 27.7873C22.3303 27.6834 22.3303 27.5795 22.3303 27.4757C22.3821 27.164 22.2785 26.9563 22.0713 26.6966C21.7604 26.3849 21.7086 25.9694 21.7604 25.502C21.9677 25.8136 22.2785 26.0733 22.2785 26.4888C22.2785 26.6446 22.434 26.7485 22.5376 26.9043C22.5894 27.0082 22.6412 27.1121 22.693 27.164C22.693 27.216 22.693 27.3199 22.693 27.3718C22.6412 27.6315 22.7448 27.8392 23.0039 27.9431C23.2111 28.047 23.2111 28.2548 23.2629 28.4625C23.3147 28.5664 23.3147 28.6703 23.3665 28.7222C23.4184 28.7741 23.4702 28.8261 23.522 28.878C24.0919 29.0858 24.8172 29.4494 25.5426 29.9168C25.9571 29.709 26.3716 29.5013 26.786 29.2416C27.1487 29.0338 27.5114 28.7741 27.8741 28.5664C28.1331 28.4106 28.2886 28.1509 28.3404 27.8392C28.3922 27.7354 28.4958 27.6315 28.5476 27.5276C28.5994 27.4237 28.7549 27.2679 28.703 27.164C28.6512 26.9563 28.5476 26.6446 28.2367 26.6966C27.7705 26.7485 27.7705 26.4369 27.7186 26.1772C28.1849 26.5927 28.7549 26.5408 29.3766 26.4369C29.6874 26.3849 29.9465 26.2811 30.2574 26.2811C30.361 26.2811 30.5682 26.4369 30.62 26.5927C30.7755 27.0082 31.1899 27.164 31.5008 27.4237C31.5526 27.4757 31.6562 27.4237 31.7599 27.3718C32.0189 27.2679 32.0707 27.2679 32.1225 27.5795C32.1744 27.7873 32.2262 28.047 32.2262 28.2548C32.278 28.7222 32.5888 29.0858 32.8479 29.5013C33.1588 29.9687 33.4696 30.4362 33.8841 31.0075C34.0913 30.6959 34.195 30.4881 34.3504 30.2284H34.4022C34.4022 30.4362 34.4022 30.6959 34.4022 30.9036C34.4022 31.1633 34.6094 31.3192 34.8685 31.3192C35.1276 31.3192 35.1276 31.1633 35.1794 30.9556C35.283 30.5401 35.0239 30.2804 34.7131 30.0207C34.5576 29.9168 34.5576 29.8129 34.5576 29.709C34.6613 29.2935 34.6613 28.8261 34.5576 28.4106C34.5576 28.3586 34.5576 28.3067 34.6094 28.3067C35.1794 27.8912 35.3866 27.216 35.6975 26.6446C35.9047 26.2291 36.2674 26.1253 36.5782 25.8656C36.8373 26.1253 37.0964 26.333 37.3554 26.5408C37.4072 26.5927 37.4072 26.6446 37.4072 26.6966C37.5108 26.9563 37.6663 27.216 37.7699 27.4757C37.9253 27.3199 38.0289 27.216 38.1326 27.0602C38.3398 27.3718 38.5471 27.6834 38.5471 28.047C38.5471 28.3586 38.5989 28.6703 38.6507 28.93C38.7025 29.0858 38.8061 29.2416 38.9097 29.2935C39.2206 29.5013 39.3242 29.761 39.2206 30.1765C39.117 30.1246 38.9615 30.0726 38.8579 29.9687C38.5989 29.8129 38.3398 29.8649 38.2362 30.0726C38.1326 30.2284 38.1844 30.4881 38.3916 30.6439H38.4434C38.8579 30.8517 39.117 31.2153 39.2724 31.6308C39.4278 32.0982 39.8423 32.2541 40.3604 32.306C40.4122 31.9944 40.5159 31.6308 40.5159 31.3192C40.464 31.1114 40.2568 30.9036 40.1014 30.6959C40.0496 30.6439 39.9459 30.592 39.8941 30.4881C39.9977 30.5401 40.1014 30.5401 40.2568 30.592C40.205 30.3323 40.205 30.1246 40.1532 29.8649C40.1532 29.8129 40.1014 29.709 40.1014 29.6571C40.0496 29.4494 39.9977 29.2935 39.7387 29.1377C39.376 28.93 39.0652 28.6183 39.117 28.1509C39.117 27.9431 39.117 27.7354 39.117 27.5276C39.5315 27.7873 39.9977 27.7873 40.1532 28.3586C40.205 28.2028 40.2568 28.047 40.3086 27.8912C40.5159 27.3718 40.6195 26.8005 40.5677 26.2811C40.5159 25.8656 40.3604 25.7617 39.9977 25.5539C39.8423 25.502 39.7387 25.1903 39.6869 24.9826C39.6351 24.8268 39.7387 24.619 39.7387 24.4632C39.7387 24.4113 39.8423 24.3593 39.8941 24.2554C39.8941 24.5671 39.8941 24.8268 39.8941 25.0865C39.9977 25.0865 40.1532 25.1384 40.2568 25.1384C40.3604 24.7748 40.3604 24.4113 40.2568 24.0996C40.205 24.0477 40.2568 23.9438 40.2568 23.8399C40.3086 23.6841 40.4122 23.5802 40.464 23.4244C40.9822 22.6453 40.8267 21.8663 40.6713 21.0352C40.5677 20.412 40.2568 19.9445 39.7387 19.6329C39.2724 19.3212 39.3242 18.9057 39.3242 18.4383C39.5315 18.5941 39.7387 18.7499 39.9459 18.9057C39.9977 18.698 39.9977 18.5422 39.9977 18.3863C39.9977 18.1786 39.9978 18.0228 39.7905 17.9189C39.2724 17.6592 39.117 17.1398 38.8061 16.6723C38.7025 16.5165 38.5989 16.3607 38.7543 16.101C38.8061 16.0491 38.7543 15.8933 38.7025 15.8413C38.3398 15.3219 37.9771 14.7506 37.5108 14.2831C37.1482 13.9196 36.7337 13.6599 36.3192 13.3482C36.2674 13.2963 36.112 13.3482 36.112 13.4002C36.0083 13.5041 35.9565 13.5041 35.8529 13.4002C35.542 13.0366 35.1794 12.725 34.9203 12.3614C34.8167 12.2575 34.8685 12.0498 34.8167 11.842C35.1276 11.9978 35.3348 12.0498 35.542 12.1536C35.8011 12.2575 36.0601 12.4133 36.3192 12.5172C36.371 12.5692 36.4746 12.5172 36.5264 12.5172C36.4746 12.4653 36.4746 12.3614 36.4228 12.3095C36.2156 12.1536 35.9565 11.9978 35.6975 11.842C35.5938 11.7901 35.542 11.6862 35.4384 11.5823L35.4902 11.5304C35.7493 11.7381 36.0601 11.8939 36.3192 12.1017C36.8891 12.5692 37.459 13.0366 37.9771 13.5041C39.0133 14.4909 39.7905 15.6336 40.6195 16.7762C41.3966 17.9189 41.8629 19.2174 42.3292 20.5158C42.6919 21.5546 42.951 22.6973 43.0546 23.788C43.1582 24.9826 43.21 26.1772 43.1582 27.3198C43.0546 29.0858 42.5883 30.8517 41.9147 32.5138C41.6557 33.137 41.3966 33.7084 41.1376 34.3316C41.2412 34.3836 41.3448 34.4355 41.4484 34.4874C41.7593 33.9161 42.0184 33.3448 42.2256 32.7735C42.6401 31.5269 43.1064 30.2804 43.2618 28.9819C43.3136 28.3586 43.4691 27.7873 43.4172 27.164C43.4172 26.9043 43.4172 26.6446 43.4172 26.333C43.4172 25.5539 43.5209 24.7748 43.4691 24.0477C43.3654 23.2167 43.1582 22.3856 42.951 21.5546C42.4847 19.6848 41.8111 17.9708 40.6713 16.3607C39.9977 15.3739 39.3242 14.387 38.4434 13.556C37.8217 12.9847 37.1482 12.4653 36.5264 11.9459C35.9047 11.4784 35.283 11.011 34.6094 10.6474C33.8841 10.2319 33.1588 9.81639 32.3816 9.50475C30.7755 8.88148 29.0657 8.46597 27.356 8.25822C26.4234 8.15434 25.4908 8.20628 24.5582 8.25822C23.6256 8.31016 22.693 8.46597 21.8122 8.67373C19.7916 9.08924 17.9264 9.92027 16.2167 11.0629C14.6106 12.1017 13.2635 13.3482 12.02 14.8545C11.0874 15.9971 10.3621 17.2437 9.74037 18.5422C8.75596 20.6717 8.18605 22.957 8.13424 25.3462C8.08243 26.2811 8.18605 27.216 8.23786 28.1509C8.28967 29.1897 8.49691 30.1765 8.80778 31.1114C9.22226 32.3579 9.68856 33.6045 10.3621 34.7471C11.0874 36.0456 11.9682 37.2402 12.9526 38.279C13.5743 38.9542 14.2997 39.5775 15.025 40.1488C15.595 40.6162 16.1649 41.0318 16.7866 41.3953C17.2529 41.655 17.7192 41.8628 18.1855 42.1225C18.2373 42.0186 18.2891 41.9147 18.3409 41.7589C17.5638 41.3953 16.8384 40.9798 16.1131 40.5124C14.9214 39.7333 13.8852 38.8503 12.9526 37.8115C12.1755 36.9805 11.5537 36.0456 10.9838 35.0588C10.1549 33.6564 9.4295 32.1502 9.01502 30.5401C8.80778 29.8129 8.75597 29.0338 8.60053 28.3067C8.4451 27.4237 8.4451 26.5408 8.4451 25.6578C8.4451 24.7748 8.54872 23.8919 8.70415 23.0608C8.96321 21.7624 9.27407 20.5158 9.79218 19.3212C10.2067 18.4383 10.6211 17.5553 11.1393 16.7243C11.6574 15.7894 12.3309 14.9584 13.1081 14.1273C13.3671 13.8157 13.678 13.556 13.9888 13.1924C14.0406 13.2963 14.0925 13.3482 14.0925 13.3482C14.1443 13.556 14.2479 13.556 14.4033 13.4521C15.1805 12.8289 15.9576 12.2056 16.7866 11.6343C17.1493 11.3746 17.5638 11.2707 17.9264 11.0629C18.1337 10.959 18.3409 10.8552 18.5482 10.8032C18.8072 10.6994 19.0663 10.6994 19.3253 10.6474V10.6994C18.9108 10.8552 18.4964 11.011 18.0301 11.1668C17.6156 11.3226 17.4083 11.6862 17.1493 11.9459C17.0975 11.9978 17.0975 12.1017 17.0975 12.2575C17.3565 12.2056 17.6156 12.1536 17.8228 12.0498C18.3927 11.7901 18.9627 11.842 19.4808 11.9978C19.9471 12.1536 20.4133 12.1017 20.8278 11.9459C21.7086 11.6862 22.6412 11.4265 23.522 11.1149C23.6256 11.0629 23.781 10.959 23.8847 10.8552C23.9365 10.8032 23.9883 10.6994 24.0401 10.5955C24.2473 10.2838 24.2473 10.2319 23.8847 10.0761C24.351 9.92027 24.61 9.45281 24.9727 9.14118C25.1281 8.98536 25.2835 8.77761 25.439 8.67373C25.4908 8.62179 25.5944 8.56985 25.698 8.56985C26.7342 8.51791 27.7186 8.62179 28.7549 8.82955C29.2211 8.93342 29.6356 8.98536 30.1019 9.14118C30.2055 9.19312 30.361 9.297 30.4128 9.40088C30.62 9.71251 30.8273 10.0241 31.0863 10.3358C31.1899 10.4397 31.1381 10.5435 31.0863 10.6474C30.9827 10.7513 30.9827 10.959 31.1381 11.0629C31.2418 11.1668 31.449 11.2187 31.3454 11.4784C31.1899 11.4265 30.9827 11.4265 30.8273 11.3226C30.62 11.2187 30.5164 11.3226 30.4128 11.4784C30.3092 11.6343 30.2055 11.7901 30.1019 11.9459C30.0501 11.894 30.0501 11.894 29.9983 11.894C29.8947 11.5304 29.5838 11.5304 29.3248 11.5304C29.2211 11.5304 29.1693 11.5304 29.0657 11.5304C28.703 11.5304 28.7549 11.5304 28.8067 11.842C28.8067 11.9459 28.7549 12.0498 28.703 12.1536C28.5994 12.3095 28.3922 12.3614 28.4958 12.5692C28.3922 12.6211 28.3404 12.673 28.2367 12.725C28.2367 12.8289 28.2886 12.8808 28.2886 13.0366C28.0813 13.0366 27.8741 12.9847 27.6668 12.9847C27.5114 12.9847 27.4078 12.9847 27.4078 13.1924C27.4078 13.4002 27.3042 13.6079 27.2523 13.8676C26.9933 13.8157 26.786 13.7118 26.527 13.6599C26.3716 13.6079 26.3716 13.5041 26.4752 13.3482C26.7342 13.0885 26.9415 12.7769 27.2005 12.4653C27.2523 12.4133 27.2523 12.3095 27.3042 12.2575C27.2523 12.2575 27.1487 12.2056 27.0969 12.2056C26.786 12.1017 26.5788 12.2575 26.4234 12.5172C26.2679 12.7769 26.0607 13.0366 25.9053 13.2963C25.698 13.6079 25.8016 13.8676 26.1643 13.9196C26.3716 13.9715 26.527 13.9715 26.786 14.0235C26.7342 14.0754 26.6824 14.1273 26.6306 14.1273C26.2679 14.2312 25.9053 14.3351 25.5426 14.439C25.4908 14.439 25.3872 14.387 25.3872 14.387C25.3872 14.2312 25.3354 14.1273 25.1799 14.1273C25.0763 14.1273 24.9727 14.2312 24.9209 14.3351C24.61 14.0754 24.2473 13.7638 23.8847 13.4521C23.5738 13.1924 23.2111 13.3482 22.9003 13.3482C22.693 13.3482 22.434 13.4521 22.2267 13.4521C22.0195 13.4521 21.9159 13.6079 21.8122 13.7118C21.605 13.9196 21.3977 14.1273 21.1387 14.2831C20.9315 14.387 20.6724 14.439 20.4133 14.4909C19.9471 14.5948 19.688 14.8025 19.5326 15.2181C19.4808 15.3219 19.4289 15.4258 19.3771 15.5816C19.4289 15.6855 19.5326 15.7894 19.5326 15.7894C19.3771 15.8933 19.2735 15.9971 19.1699 16.153C19.1181 16.2049 19.0663 16.2568 19.0663 16.3607C19.0145 16.6204 18.8072 16.7243 18.5482 16.6723C18.3409 16.6204 18.1855 16.6723 18.0819 16.8282C18.0301 16.8801 17.9264 16.8801 17.9264 16.932C18.0301 16.5165 18.0819 16.101 18.1855 15.6336C18.2891 15.5816 18.3927 15.4777 18.4964 15.3739C18.7554 15.1142 18.7554 15.0103 18.4445 14.8025C18.3927 14.7506 18.2373 14.8025 18.1337 14.8025C18.0819 14.8025 18.0301 14.9064 17.9783 14.9584C17.7192 15.3219 17.4083 15.4777 16.942 15.4258C16.8902 15.4258 16.7866 15.4777 16.7348 15.5297C16.6312 15.6336 16.4757 15.7374 16.3721 15.8413C16.3203 15.8933 16.2685 15.9971 16.3203 16.101C16.3203 16.2049 16.3203 16.3607 16.5276 16.3607C16.6312 16.3607 16.7348 16.4646 16.942 16.5165C16.7866 16.6204 16.6312 16.7243 16.4757 16.8801C16.5794 16.984 16.683 17.0359 16.7866 17.1398C16.683 17.1398 16.6312 17.1917 16.5794 17.1917C16.2167 17.1917 16.1131 17.2956 16.2167 17.6072C16.3721 18.0228 16.0613 18.2825 15.9058 18.5422C15.9058 18.5941 15.854 18.5941 15.8022 18.5941C15.6468 18.5941 15.2323 18.2825 15.1805 18.1266C15.1287 18.0747 15.0769 17.9708 14.9732 17.9708C14.8696 17.9708 14.7142 18.0228 14.7142 18.0747C14.6624 18.3344 14.4551 18.4902 14.2997 18.698C14.0925 18.9577 13.937 19.2693 13.7816 19.5809C13.7298 19.6329 13.7298 19.7367 13.7816 19.7887C13.8852 19.9964 14.0406 20.1523 14.1961 20.36C14.4033 20.6197 14.7142 20.5678 14.9732 20.5158C15.1805 20.4639 15.4395 20.3081 15.5432 19.9964C15.5432 19.9445 15.6986 19.8406 15.7504 19.8406C16.1131 19.7887 16.4239 19.7367 16.5794 19.2693C16.8384 19.6848 17.2011 19.529 17.4601 19.529C17.6156 19.8926 17.7192 20.2561 17.8746 20.6197C17.9264 20.7236 18.0301 20.8275 18.0819 20.9313C18.1337 21.0352 18.1337 21.0872 18.1855 21.191C18.0819 21.191 18.0301 21.243 17.9264 21.243C17.7192 21.243 17.512 21.191 17.3047 21.191C17.2011 21.191 17.1493 21.191 16.9938 21.1391C17.0457 21.243 17.0975 21.3469 17.1493 21.3469C17.3565 21.5027 17.512 21.6585 17.7192 21.8143C17.771 21.8663 17.8746 21.8143 17.8746 21.8143C17.9264 21.6066 18.0819 21.6066 18.2373 21.5546C18.2891 21.5546 18.3409 21.3988 18.3927 21.3469C18.4445 21.243 18.5482 21.0872 18.6 21.1391C18.7554 21.1391 18.859 21.243 18.9627 21.2949C19.1181 21.4507 19.1181 21.6585 19.0663 21.8143C19.0663 21.9182 19.0145 22.0221 19.0145 22.1259C19.2217 22.2298 19.3771 22.2818 19.5844 22.074C19.6362 22.0221 19.7916 22.0221 19.8952 21.9701C19.9989 21.7624 19.9471 21.5546 19.7398 21.3469C19.8434 21.2949 19.8952 21.2949 19.9471 21.243C20.2061 21.191 20.2579 21.2949 20.2061 21.5546C20.1025 21.9701 20.3097 22.2298 20.517 22.5415C20.517 22.5934 20.6724 22.5934 20.7242 22.5934C21.0351 22.5934 21.2941 22.5934 21.5532 22.8012C21.7086 22.905 21.9159 22.8531 22.1749 22.905C22.0195 23.3205 21.864 23.6841 21.6568 24.0996C21.5532 24.0996 21.5014 24.0477 21.3977 24.0477C21.2423 24.0477 21.0869 23.9438 20.9315 23.9958C20.4652 24.1516 20.1025 23.8919 19.7398 23.6841C19.4289 23.5283 19.1699 23.3205 18.9108 23.1647C18.5482 22.957 18.2891 23.0608 18.2373 23.4764C18.2373 23.5802 18.1855 23.6841 18.1337 23.6841C18.0819 23.7361 17.9782 23.6841 17.8746 23.6322C17.5638 23.3725 17.3047 23.1128 17.3565 22.6973C17.2529 22.6453 17.2011 22.6453 17.0975 22.5934C16.6312 22.4376 16.6312 22.3337 16.8384 21.9182C16.9938 21.6066 16.8902 21.3469 16.7866 21.0872C16.7866 21.0352 16.683 20.9833 16.6312 20.9313C16.2167 20.8275 15.8022 20.7755 15.3877 20.7236C15.0769 20.6717 14.766 20.6717 14.4551 20.6717C14.4033 20.6717 14.3515 20.6197 14.2997 20.5678C14.1961 20.4639 14.0925 20.36 13.9888 20.2561C13.8334 20.36 13.7298 20.5158 13.5743 20.5678C13.4707 20.6197 13.3153 20.6717 13.2117 20.6717C13.0562 20.6717 12.9008 20.6717 12.849 20.8794C12.7454 21.0872 12.5899 21.3469 12.4345 21.5546C12.3827 21.6066 12.2791 21.6585 12.2273 21.6585C11.7092 21.6585 11.4501 21.9182 11.1911 22.3337C11.0874 22.5415 10.8802 22.6453 10.7248 22.8012C10.673 22.8531 10.6211 23.0089 10.5693 23.1128C10.5693 23.5802 10.5175 24.0996 10.2585 24.5151C10.2067 24.671 10.103 24.7748 10.0512 24.9307C9.79218 25.45 9.94761 25.9694 10.0512 26.4888C10.0512 26.6446 10.1549 26.7485 10.103 26.9043C9.99942 27.5795 10.4139 28.0989 10.5693 28.7222C10.6211 29.0338 10.9838 29.2416 11.2429 29.1897C11.3983 29.1377 11.5019 29.1897 11.5537 29.2935C11.6574 29.5013 11.8128 29.5532 12.02 29.5013C12.1237 29.5013 12.2791 29.5013 12.3827 29.5013C12.6936 29.4494 12.9526 29.6052 13.1081 29.8129C13.1599 29.9168 13.2117 30.0207 13.2117 30.1765C13.2635 30.2804 13.2635 30.3843 13.2635 30.5401C13.4707 30.5401 13.678 30.592 13.9888 30.592C14.1443 31.1114 14.2479 31.6827 13.937 32.2021C14.1961 32.5657 14.5069 32.8773 14.7142 33.2409C14.8696 33.5006 14.9214 33.7603 15.025 34.02C15.1287 34.3316 15.2323 34.6952 15.2841 35.0068C15.2841 35.0588 15.2841 35.1626 15.2841 35.2146C15.1805 35.9937 15.2323 36.565 15.6468 37.0844ZM20.8278 10.2838C21.2423 10.128 21.6568 10.0241 22.0713 9.81639C21.7086 10.2838 21.2423 10.18 20.8278 10.2838ZM26.9933 26.0733C27.1487 26.1253 27.3042 26.1772 27.2523 26.333C27.1487 26.4888 26.9415 26.6446 26.8379 26.6446C26.527 26.6446 26.2161 26.4888 26.0607 26.1253C25.9571 25.8656 25.8016 25.6578 25.6462 25.45C25.5944 25.3981 25.5426 25.2942 25.4908 25.1903C25.5944 25.1384 25.698 25.1384 25.8016 25.0865C25.8535 25.1384 25.9053 25.1903 25.9053 25.2423C26.1125 25.7617 26.527 25.9694 26.9933 26.0733ZM25.4908 20.4639C25.6462 20.3081 25.8535 20.2042 26.0089 20.1003C26.0607 20.0484 26.1643 20.1003 26.2679 20.0484C26.1125 20.3081 25.9571 20.4639 25.8535 20.6197C26.1643 20.9313 26.3198 21.243 26.3716 21.6585C26.3716 21.9701 26.5788 22.3337 26.6824 22.6453C26.7342 22.8012 26.6824 22.8531 26.527 22.8531C26.4234 22.8531 26.2679 22.905 26.1643 22.8531C26.0089 22.8012 25.8016 22.7492 25.7498 22.6453C25.698 22.4895 25.8016 22.3337 25.8535 22.1259C25.8535 22.074 25.9571 22.0221 26.0089 21.9701C26.1125 21.8663 26.1125 21.8143 26.0089 21.7104C25.8016 21.4507 25.6462 21.191 25.439 20.9313C25.2835 20.7236 25.2835 20.6197 25.4908 20.4639ZM18.3927 19.4771C18.4964 19.529 18.6 19.5809 18.6 19.6329C18.6518 19.9964 18.859 20.2561 19.0663 20.5158C19.1181 20.5678 19.1181 20.6717 19.1699 20.7236C18.859 20.8275 18.4964 20.3081 18.3927 19.4771ZM20.776 17.0359C20.7242 16.984 20.6206 16.984 20.5688 16.984C20.3615 16.984 20.2061 17.0359 19.9989 17.0359C19.9471 17.0359 19.8952 16.932 19.8434 16.8801C20.1543 16.932 20.6724 16.7243 20.8796 16.5165C21.0351 16.3088 21.2423 16.153 21.4496 15.9971C21.5532 15.8933 21.6568 15.8933 21.605 15.6855C21.5532 15.27 21.5532 15.27 22.0195 15.1142C21.9677 15.2181 21.864 15.3219 21.8122 15.4258C21.7604 15.5297 21.7604 15.6855 21.8122 15.7894C21.864 15.8933 21.9159 15.9971 21.7604 16.101C21.7086 16.153 21.7604 16.3088 21.7086 16.4126C21.7086 16.4126 21.6568 16.4126 21.605 16.4126C21.2941 16.3607 21.0869 16.5165 20.9833 16.8282C20.9833 17.1398 20.9315 17.1398 20.776 17.0359ZM21.9159 21.0872C21.864 21.0872 21.8122 21.1391 21.7604 21.1391C21.5532 21.3469 21.3977 21.191 21.2423 21.0872C21.0869 20.9833 21.1387 20.7755 21.2423 20.6717C21.3459 20.5678 21.5014 20.4639 21.605 20.36C21.7086 20.2561 21.7604 20.1523 21.8122 20.1003C21.864 20.0484 21.9159 19.9964 22.0195 19.9445C22.0713 19.9964 22.0713 20.1003 22.1231 20.1523C22.1749 20.2561 22.1231 20.36 22.1749 20.4639C22.2267 20.5158 22.3303 20.5678 22.434 20.5678C22.4858 20.5678 22.5376 20.5158 22.6412 20.5158C22.8484 20.4639 23.0557 20.36 23.2111 20.6197C23.2629 20.7236 23.4184 20.7755 23.5738 20.8275C23.781 20.9313 23.8847 21.0872 23.8847 21.3469C23.522 21.5546 23.1075 21.5027 22.7966 21.2949C22.4858 21.1391 22.2267 20.9833 21.9159 21.0872Z" fill="#364A9A"/>
<path d="M27.2007 43.8883C27.4597 43.8883 27.667 43.8364 27.926 43.8364C27.8224 43.7325 27.667 43.6805 27.5634 43.5767C27.4597 43.6805 27.3561 43.7844 27.2007 43.8883Z" fill="#364A9A"/>
<path d="M26.3714 30.3845C26.2678 30.3845 26.1642 30.3325 26.0605 30.3325C26.1642 30.3845 26.216 30.4364 26.3196 30.4883C26.3714 30.4883 26.3714 30.4364 26.3714 30.3845Z" fill="#364A9A"/>
<path d="M40.7749 30.3327C40.8268 30.4365 40.8268 30.5404 40.8268 30.6443C40.8786 30.904 41.034 30.9559 41.2931 30.852C41.5003 30.7482 41.7075 30.6443 41.9148 30.4885C41.9666 30.4365 42.0702 30.3327 42.0702 30.2807C42.1738 29.8652 42.2256 29.5016 42.2775 29.0861C42.2775 28.9822 42.3293 28.8264 42.2775 28.7225C42.1738 28.4109 42.1738 28.1512 42.2256 27.8396C42.3293 27.3721 42.3293 27.3721 41.863 27.2163C41.7075 27.5279 41.5521 27.8396 41.3967 28.2031C41.2412 28.5667 40.9304 28.8784 41.034 29.2939C41.034 29.3458 40.9822 29.3977 40.9304 29.4497C40.6195 29.6574 40.6195 29.9691 40.7749 30.3327Z" fill="#364A9A"/>
<path d="M18.9624 13.4522C19.2733 13.5561 19.3769 13.4002 19.5324 13.1925C19.636 13.0367 19.6878 12.9847 19.4805 12.8808C19.4287 12.8808 19.4287 12.725 19.3769 12.6211C19.3251 12.5692 19.2733 12.4653 19.2733 12.4653C19.0661 12.5692 18.807 12.6731 18.6516 12.8289C18.548 12.9847 18.548 13.1925 18.4443 13.4522C18.5998 13.4522 18.807 13.4002 18.9624 13.4522Z" fill="#364A9A"/>
<path d="M43.1581 44.7193C43.5208 44.4077 43.5208 43.8883 43.1581 43.5767L42.8991 43.3689C42.4846 43.0053 41.9147 42.8495 41.3448 42.9014L37.9253 43.4208C37.2517 42.5898 36.4746 41.7588 35.6456 40.8758C35.542 40.7719 35.4902 40.72 35.3866 40.6161C35.2311 40.4603 35.0757 40.2526 34.8685 40.0967L36.8891 39.6293L37.5626 39.4735L41.7593 38.4347C42.2774 38.2789 42.5364 37.6556 42.1737 37.1882L41.8111 36.7207C41.5002 36.3571 41.1375 36.0455 40.723 35.8377C40.6194 35.7858 40.5158 35.7339 40.4122 35.6819C40.1013 35.578 39.7905 35.4742 39.4278 35.4742L29.2729 34.6951C28.0813 33.6563 26.8896 32.7214 25.8534 31.9942C24.7136 31.1632 23.6774 30.5919 22.8484 30.2803C22.4339 30.1244 22.0194 30.0206 21.6049 29.9167L23.9882 32.1501L23.7292 33.1369L20.1024 29.6051C18.9626 29.5012 18.1854 29.7609 17.8746 30.6438C17.3565 32.1501 19.118 34.4873 21.8122 37.0323C21.8122 37.0323 21.8122 37.0323 21.864 37.0323C22.2785 37.0323 22.693 37.1882 23.0038 37.4478L23.2629 37.6556L23.9882 38.2269L25.3871 39.3177L27.3559 40.8758C27.7186 41.1875 27.9776 41.603 28.0295 42.0704C28.5476 42.434 29.0139 42.7976 29.532 43.1611C29.6874 43.265 29.791 43.3689 29.9464 43.4728C34.1431 46.4333 38.0289 48.7186 38.7024 48.9783C39.635 49.29 40.8267 49.4458 41.1375 48.5628C41.2412 48.2512 41.0339 47.7318 40.6194 47.0046L43.1581 44.7193Z" fill="#364A9A"/>
<path d="M20.6208 45.2908C20.8798 45.5505 21.2425 45.5505 21.5534 45.3947L24.2993 43.8365L24.9211 43.473L26.3717 42.6419C26.6308 42.4861 26.6308 42.1745 26.4236 42.0187L22.0715 38.5388C22.0197 38.4868 21.916 38.4868 21.8124 38.4868C21.657 38.4868 21.5534 38.5388 21.4497 38.6946L20.4653 40.7721L19.74 42.2264C19.74 42.2784 19.6882 42.2784 19.6882 42.3303C19.6364 42.4342 19.5846 42.5381 19.5846 42.6939C19.3773 43.473 19.6364 44.304 20.2063 44.8753L20.6208 45.2908Z" fill="#364A9A"/>
<path d="M127.351 28.1508C127.61 27.2679 127.765 26.3849 127.765 25.45C127.765 24.4112 127.61 23.4244 127.299 22.5414C126.988 21.6065 126.47 20.7755 125.796 20.0483C125.123 19.3212 124.242 18.7498 123.258 18.3863C122.221 17.9708 121.03 17.8149 119.631 17.8149H107.973C107.559 17.8149 107.248 18.1266 107.248 18.5421V22.6453C107.248 23.0608 107.559 23.3724 107.973 23.3724H120.304C120.822 23.3724 121.237 23.5802 121.651 23.9437C122.066 24.3593 122.221 24.8267 122.221 25.3461C122.221 25.9174 122.014 26.3849 121.651 26.8004C121.289 27.164 120.822 27.3717 120.253 27.3717H115.331C112.895 27.3717 110.927 27.995 109.476 29.2935C107.973 30.592 107.248 32.5137 107.248 34.9548V42.0705C107.248 42.486 107.559 42.7976 107.973 42.7976H112.066C112.481 42.7976 112.792 42.486 112.792 42.0705V35.1106C112.792 34.5393 112.947 34.0719 113.362 33.6044C113.724 33.1889 114.087 33.0331 114.605 33.0331H119.631C121.081 33.0331 122.325 32.8253 123.309 32.3579C124.346 31.9424 125.175 31.3191 125.848 30.592C126.573 29.9167 127.092 29.0857 127.351 28.1508Z" fill="#364A9A"/>
<path d="M172.84 42.0708V23.4247H177.555C177.969 23.4247 178.28 23.113 178.28 22.6975V18.5943C178.28 18.1788 177.969 17.8672 177.555 17.8672H162.219C161.805 17.8672 161.494 18.1788 161.494 18.5943V22.6975C161.494 23.113 161.805 23.4247 162.219 23.4247H167.245V42.0708C167.245 42.4863 167.555 42.7979 167.97 42.7979H172.063C172.529 42.7979 172.84 42.4863 172.84 42.0708Z" fill="#364A9A"/>
<path d="M112.895 52.3546L112.377 54.4322H112.325L111.859 52.3546L111.082 49.2383H110.149L109.372 52.2507L108.854 54.4322H108.802L108.284 52.3027L107.559 49.2383H106.574L108.336 55.8345H109.32L110.097 52.874L110.564 50.8484H110.615L111.134 52.874L111.859 55.8345H112.895L114.605 49.2383H113.672L112.895 52.3546Z" fill="#FF9F47"/>
<path d="M116.004 55.8345H120.408V55.0555H116.885V52.926H119.89V52.1469H116.885V50.0693H120.408V49.2383H116.004V55.8345Z" fill="#FF9F47"/>
<path d="M124.604 50.0693H126.47V55.8345H127.402V50.0693H129.267V49.2383H124.604V50.0693Z" fill="#FF9F47"/>
<path d="M134.604 52.7182C134.76 52.5624 134.863 52.4585 134.967 52.3027C135.07 52.1469 135.122 51.991 135.174 51.7833C135.226 51.6275 135.226 51.4197 135.226 51.212C135.226 50.9523 135.174 50.7445 135.122 50.4848C135.07 50.2251 134.967 50.0174 134.811 49.8615C134.656 49.6538 134.449 49.498 134.241 49.3941C133.982 49.2902 133.723 49.2383 133.412 49.2383H130.667V55.8345H131.547V53.1856H133.257L134.397 55.8345H135.381L134.138 53.0298C134.293 52.926 134.449 52.8221 134.604 52.7182ZM133.205 52.3546H131.547V50.0174H133.205C133.568 50.0174 133.827 50.1212 134.034 50.329C134.241 50.5368 134.345 50.7965 134.345 51.16C134.345 51.5236 134.241 51.7833 134.034 51.991C133.827 52.2507 133.568 52.3546 133.205 52.3546Z" fill="#FF9F47"/>
<path d="M138.697 49.2383L136.417 55.8345H137.35L137.868 54.3802H140.459L140.977 55.8345H141.909L139.63 49.2383H138.697ZM140.148 53.5492H138.075L138.594 51.991L139.06 50.4848H139.112L139.578 51.991L140.148 53.5492Z" fill="#FF9F47"/>
<path d="M147.401 54.1725H147.298L146.417 52.8221L144.085 49.2383H143.256V55.8345H144.137V50.9523H144.189L145.122 52.4066L147.401 55.8345H148.282V49.2383H147.401V54.1725Z" fill="#FF9F47"/>
<path d="M153.878 52.6143C153.67 52.4585 153.463 52.3546 153.204 52.3027C152.945 52.1988 152.686 52.1469 152.427 52.0949C152.271 52.043 152.116 52.043 151.961 51.991C151.805 51.9391 151.65 51.8872 151.494 51.8352C151.339 51.7833 151.235 51.6794 151.132 51.5755C151.028 51.4717 150.976 51.3158 150.976 51.1081C150.976 50.9003 151.028 50.7445 151.08 50.6406C151.132 50.4848 151.235 50.3809 151.339 50.2771C151.443 50.1732 151.598 50.1212 151.753 50.0693C151.909 50.0174 152.064 50.0174 152.22 50.0174C152.531 50.0174 152.79 50.0693 153.1 50.1212C153.411 50.1732 153.67 50.329 153.981 50.4848L154.396 49.7577C154.085 49.5499 153.722 49.3941 153.359 49.3422C152.997 49.2902 152.634 49.2383 152.22 49.2383C151.909 49.2383 151.598 49.2902 151.339 49.3941C151.08 49.498 150.873 49.6019 150.665 49.8096C150.458 49.9654 150.354 50.1732 150.251 50.3809C150.147 50.5887 150.095 50.8484 150.095 51.16C150.095 51.4717 150.147 51.7314 150.251 51.9391C150.354 52.1469 150.51 52.3027 150.717 52.4585C150.924 52.6143 151.132 52.7182 151.339 52.7701C151.598 52.874 151.805 52.926 152.116 52.9779C152.271 53.0298 152.479 53.0818 152.686 53.0818C152.893 53.0818 153.049 53.1856 153.204 53.2895C153.36 53.3934 153.463 53.4973 153.567 53.6012C153.67 53.757 153.722 53.9128 153.722 54.1205C153.722 54.4841 153.619 54.7438 153.359 54.8996C153.1 55.1074 152.738 55.2113 152.323 55.2113C151.961 55.2113 151.65 55.1593 151.339 55.0555C151.028 54.9516 150.717 54.7958 150.406 54.588L149.888 55.2113C150.251 55.5229 150.614 55.7307 151.028 55.8345C151.443 55.9384 151.857 56.0423 152.323 56.0423C152.686 56.0423 152.997 55.9904 153.256 55.9384C153.567 55.8345 153.774 55.7307 153.981 55.5748C154.188 55.419 154.344 55.2113 154.448 55.0035C154.551 54.7958 154.603 54.4841 154.603 54.2244C154.603 53.8609 154.551 53.6012 154.396 53.3415C154.24 52.926 154.085 52.7182 153.878 52.6143Z" fill="#FF9F47"/>
<path d="M160.199 49.8615C160.043 49.6538 159.836 49.498 159.629 49.3941C159.421 49.2902 159.111 49.2383 158.8 49.2383H156.054V55.8345H156.934V53.1856H158.8C159.111 53.1856 159.37 53.1337 159.577 53.0298C159.784 52.926 159.991 52.7701 160.147 52.5624C160.302 52.3546 160.406 52.1469 160.509 51.9391C160.613 51.7314 160.613 51.4717 160.613 51.212C160.613 50.9523 160.561 50.7445 160.509 50.4848C160.458 50.2251 160.354 50.0693 160.199 49.8615ZM159.421 52.043C159.214 52.2507 158.903 52.3546 158.592 52.3546H156.934V50.0174H158.592C158.955 50.0174 159.214 50.1212 159.421 50.329C159.629 50.5368 159.732 50.7965 159.732 51.16C159.784 51.5755 159.68 51.8872 159.421 52.043Z" fill="#FF9F47"/>
<path d="M166.208 49.8098C166.001 49.602 165.742 49.4462 165.431 49.3423C165.12 49.2385 164.809 49.1865 164.447 49.1865C164.084 49.1865 163.773 49.2385 163.462 49.3423C163.152 49.4462 162.892 49.602 162.685 49.8098C162.478 50.0176 162.323 50.2253 162.167 50.5369C162.064 50.7966 162.012 51.1083 162.012 51.4199V53.7052C162.012 54.0169 162.064 54.3285 162.167 54.6401C162.271 54.8998 162.426 55.1595 162.685 55.3153C162.892 55.5231 163.152 55.6789 163.462 55.7828C163.773 55.8867 164.084 55.9386 164.447 55.9386C164.809 55.9386 165.12 55.8867 165.431 55.7828C165.742 55.6789 166.001 55.5231 166.208 55.3153C166.416 55.1076 166.623 54.8998 166.726 54.6401C166.83 54.3804 166.934 54.0688 166.934 53.7052V51.4199C166.934 51.1083 166.882 50.7966 166.726 50.5369C166.571 50.2253 166.416 50.0176 166.208 49.8098ZM166.001 53.6013C166.001 53.861 165.949 54.1207 165.898 54.2766C165.794 54.4843 165.69 54.6401 165.535 54.744C165.379 54.8479 165.224 54.9518 165.069 55.0037C164.913 55.0556 164.706 55.1076 164.499 55.1076C164.291 55.1076 164.084 55.0556 163.929 55.0037C163.773 54.9518 163.566 54.8479 163.462 54.744C163.359 54.6401 163.203 54.4843 163.152 54.2766C163.048 54.0688 163.048 53.861 163.048 53.6013V51.5238C163.048 51.2641 163.1 51.0044 163.152 50.8486C163.255 50.6408 163.359 50.485 163.462 50.3811C163.618 50.2772 163.773 50.1734 163.929 50.1214C164.084 50.0695 164.291 50.0176 164.499 50.0176C164.706 50.0176 164.913 50.0695 165.069 50.1214C165.224 50.1734 165.431 50.2772 165.535 50.3811C165.69 50.485 165.794 50.6408 165.846 50.8486C165.949 51.0563 165.949 51.2641 165.949 51.5238V53.6013H166.001Z" fill="#FF9F47"/>
<path d="M172.529 52.7182C172.685 52.5624 172.788 52.4585 172.892 52.3027C172.996 52.1469 173.048 51.991 173.099 51.7833C173.151 51.6275 173.151 51.4197 173.151 51.212C173.151 50.9523 173.099 50.7445 173.048 50.4848C172.996 50.2251 172.892 50.0174 172.737 49.8615C172.581 49.6538 172.374 49.498 172.167 49.3941C171.908 49.2902 171.649 49.2383 171.338 49.2383H168.592V55.8345H169.473V53.1856H171.182L172.27 55.8345H173.255L172.011 53.0298C172.219 52.926 172.426 52.8221 172.529 52.7182ZM171.182 52.3546H169.524V50.0174H171.182C171.545 50.0174 171.804 50.1212 172.011 50.329C172.219 50.5368 172.322 50.7965 172.322 51.16C172.322 51.5236 172.219 51.7833 172.011 51.991C171.804 52.2507 171.493 52.3546 171.182 52.3546Z" fill="#FF9F47"/>
<path d="M174.395 50.0693H176.312V55.8345H177.192V50.0693H179.057V49.2383H174.395V50.0693Z" fill="#FF9F47"/>
<path d="M185.327 49.2383L183.047 55.8345H183.979L184.498 54.3802H187.088L187.606 55.8345H188.539L186.259 49.2383H185.327ZM186.829 53.5492H184.757L185.275 51.991L185.741 50.4848H185.793L186.259 51.991L186.829 53.5492Z" fill="#FF9F47"/>
<path d="M194.031 54.1725H193.979L193.098 52.8221L190.715 49.2383H189.886V55.8345H190.767V50.9523H190.818L191.751 52.4066L194.082 55.8345H194.911V49.2383H194.031V54.1725Z" fill="#FF9F47"/>
<path d="M197.813 49.2383H196.932V55.8345H197.813V49.2383Z" fill="#FF9F47"/>
<path d="M203.719 51.9391L202.89 53.705H202.839L202.01 51.9391L200.662 49.2383H199.833V55.8345H200.714V51.3678H200.766L201.491 52.8221L202.528 54.8477H203.201L204.289 52.6143L204.911 51.3678H204.963V55.8345H205.792V49.2383H205.015L203.719 51.9391Z" fill="#FF9F47"/>
<path d="M209.47 49.2383L207.19 55.8345H208.123L208.641 54.3802H211.232L211.75 55.8345H212.682L210.351 49.2383H209.47ZM210.973 53.5492H208.9L209.418 51.991L209.885 50.4848H209.936L210.403 51.991L210.973 53.5492Z" fill="#FF9F47"/>
<path d="M214.962 49.2383H214.082V55.8345H218.485V55.0555H214.962V49.2383Z" fill="#FF9F47"/>
<path d="M223.614 52.6143C223.407 52.4585 223.2 52.3546 222.941 52.3027C222.682 52.1988 222.423 52.1469 222.164 52.0949C222.008 52.043 221.853 52.043 221.697 51.991C221.542 51.9391 221.387 51.8872 221.231 51.8352C221.076 51.7833 220.972 51.6794 220.868 51.5755C220.765 51.4717 220.713 51.3158 220.713 51.1081C220.713 50.9003 220.765 50.7445 220.817 50.6406C220.868 50.4848 220.972 50.3809 221.076 50.2771C221.179 50.1732 221.335 50.1212 221.49 50.0693C221.646 50.0174 221.801 50.0174 221.956 50.0174C222.267 50.0174 222.526 50.0693 222.837 50.1212C223.148 50.1732 223.407 50.329 223.718 50.4848L224.133 49.7577C223.822 49.5499 223.459 49.3941 223.096 49.3422C222.734 49.2902 222.371 49.2383 221.956 49.2383C221.646 49.2383 221.335 49.2902 221.076 49.3941C220.817 49.498 220.609 49.6019 220.402 49.8096C220.195 49.9654 220.091 50.1732 219.988 50.3809C219.884 50.5887 219.832 50.8484 219.832 51.16C219.832 51.4717 219.884 51.7314 219.988 51.9391C220.091 52.1469 220.247 52.3027 220.454 52.4585C220.661 52.6143 220.868 52.7182 221.076 52.7701C221.335 52.874 221.542 52.926 221.853 52.9779C222.008 53.0298 222.216 53.0818 222.423 53.0818C222.63 53.0818 222.785 53.1856 222.941 53.2895C223.096 53.3934 223.2 53.4973 223.304 53.6012C223.407 53.757 223.459 53.9128 223.459 54.1205C223.459 54.4841 223.355 54.7438 223.096 54.8996C222.837 55.1074 222.475 55.2113 222.06 55.2113C221.697 55.2113 221.387 55.1593 221.076 55.0555C220.765 54.9516 220.454 54.7958 220.143 54.588L219.625 55.2113C219.988 55.5229 220.35 55.7307 220.765 55.8345C221.179 55.9384 221.594 56.0423 222.06 56.0423C222.423 56.0423 222.734 55.9904 222.993 55.9384C223.304 55.8345 223.511 55.7307 223.718 55.5748C223.925 55.419 224.081 55.2113 224.184 55.0035C224.288 54.7958 224.34 54.4841 224.34 54.2244C224.34 53.8609 224.288 53.6012 224.133 53.3415C223.977 52.926 223.822 52.7182 223.614 52.6143Z" fill="#FF9F47"/>
<path d="M234.65 52.3546L234.184 54.4322H234.132L233.614 52.3546L232.837 49.2383H231.904L231.179 52.2507L230.661 54.4322H230.609L230.091 52.3027L229.313 49.2383H228.381L230.091 55.8345H231.127L231.852 52.874L232.37 50.8484H232.422L232.888 52.874L233.666 55.8345H234.65L236.411 49.2383H235.427L234.65 52.3546Z" fill="#FF9F47"/>
<path d="M238.847 49.2383H237.966V55.8345H238.847V49.2383Z" fill="#FF9F47"/>
<path d="M240.453 50.0693H242.37V55.8345H243.251V50.0693H245.168V49.2383H240.453V50.0693Z" fill="#FF9F47"/>
<path d="M250.452 52.0949H247.395V49.2383H246.515V55.8345H247.395V52.874H250.452V55.8345H251.385V49.2383H250.452V52.0949Z" fill="#FF9F47"/>
<path d="M257.084 49.2383H256.203V55.8345H260.607V55.0555H257.084V49.2383Z" fill="#FF9F47"/>
<path d="M266.047 49.8098C265.84 49.602 265.581 49.4462 265.27 49.3423C264.959 49.2385 264.648 49.1865 264.286 49.1865C263.923 49.1865 263.612 49.2385 263.301 49.3423C262.99 49.4462 262.731 49.602 262.524 49.8098C262.317 50.0176 262.161 50.2253 262.006 50.5369C261.902 50.7966 261.851 51.1083 261.851 51.4199V53.7052C261.851 54.0169 261.902 54.3285 262.006 54.6401C262.11 54.8998 262.265 55.1595 262.524 55.3153C262.731 55.5231 262.99 55.6789 263.301 55.7828C263.612 55.8867 263.923 55.9386 264.286 55.9386C264.648 55.9386 264.959 55.8867 265.27 55.7828C265.581 55.6789 265.84 55.5231 266.047 55.3153C266.254 55.1076 266.462 54.8998 266.565 54.6401C266.669 54.3804 266.773 54.0688 266.773 53.7052V51.4199C266.773 51.1083 266.721 50.7966 266.565 50.5369C266.462 50.2253 266.306 50.0176 266.047 49.8098ZM265.84 53.6013C265.84 53.861 265.788 54.1207 265.736 54.2766C265.633 54.4843 265.529 54.6401 265.374 54.744C265.218 54.8479 265.063 54.9518 264.907 55.0037C264.752 55.0556 264.545 55.1076 264.338 55.1076C264.13 55.1076 263.923 55.0556 263.768 55.0037C263.612 54.9518 263.405 54.8479 263.301 54.744C263.198 54.6401 263.042 54.4843 262.99 54.2766C262.887 54.0688 262.887 53.861 262.887 53.6013V51.5238C262.887 51.2641 262.939 51.0044 262.99 50.8486C263.094 50.6408 263.198 50.485 263.301 50.3811C263.457 50.2772 263.612 50.1734 263.768 50.1214C263.923 50.0695 264.13 50.0176 264.338 50.0176C264.545 50.0176 264.752 50.0695 264.907 50.1214C265.063 50.1734 265.27 50.2772 265.374 50.3811C265.529 50.485 265.633 50.6408 265.685 50.8486C265.788 51.0563 265.788 51.2641 265.788 51.5238V53.6013H265.84Z" fill="#FF9F47"/>
<path d="M271.332 52.1988L270.658 54.4841H270.607L269.985 52.3546L269 49.2383H268.068L270.14 55.8345H271.125L273.249 49.2383H272.265L271.332 52.1988Z" fill="#FF9F47"/>
<path d="M279 50.0693V49.2383H274.648V55.8345H279V55.0555H275.477V52.926H278.482V52.1469H275.477V50.0693H279Z" fill="#FF9F47"/>
<path d="M134.76 23.4766H153.36C153.774 23.4766 154.085 23.165 154.085 22.7495V18.5943C154.085 18.1788 153.774 17.8672 153.36 17.8672H134.76C134.345 17.8672 134.034 18.1788 134.034 18.5943V22.7495C134.034 23.113 134.397 23.4766 134.76 23.4766Z" fill="#364A9A"/>
<path d="M134.76 42.6941H153.36C153.774 42.6941 154.085 42.3825 154.085 41.967V37.8119C154.085 37.3964 153.774 37.0847 153.36 37.0847H139.371V32.8257H147.764C148.178 32.8257 148.489 32.5141 148.489 32.0986V27.9435C148.489 27.5279 148.178 27.2163 147.764 27.2163H134.76C134.345 27.2163 134.034 27.5279 134.034 27.9435V30.1249V32.0986V37.8119V39.8894V41.967C134.034 42.3306 134.397 42.6941 134.76 42.6941Z" fill="#364A9A"/>
</g>
<defs>
<clipPath id="clip0_49_66">
<rect width="279" height="75" fill="white"/>
</clipPath>
</defs>
</svg>
