<svg width="129" height="128" viewBox="0 0 129 128" fill="none" xmlns="http://www.w3.org/2000/svg">
<g clip-path="url(#clip0_49_255)">
<path d="M4.53223 126.368C4.01759 126.368 3.50294 126.171 3.11036 125.778C0.651378 123.32 0.231457 119.214 1.86134 113.572C3.2754 108.679 6.1963 102.65 10.5439 95.6572C19.3623 81.4707 33.1553 64.7216 49.3828 48.4941C65.6103 32.2676 82.3593 18.4736 96.5458 9.65527C103.539 5.30762 109.566 2.38673 114.461 0.972664C120.101 -0.657218 124.208 -0.237297 126.667 2.22169C127.452 3.00684 127.452 4.28126 126.667 5.06641C125.881 5.85254 124.607 5.85254 123.821 5.06641C121.548 2.792 113.745 3.70118 98.6699 13.0723C84.7373 21.7334 68.2441 35.3232 52.2275 51.3388C36.2119 67.3554 22.6221 83.8496 13.9609 97.7822C4.58985 112.857 3.68067 120.659 5.95509 122.934C6.74122 123.719 6.74122 124.992 5.95509 125.778C5.56251 126.171 5.04786 126.368 4.53223 126.368Z" fill="#B6ABB6"/>
<path d="M113.174 64C113.174 90.6669 91.5556 112.285 64.8886 112.285C38.2217 112.285 16.6045 90.6669 16.6045 64C16.6045 37.333 38.2217 15.7148 64.8886 15.7148C91.5556 15.7148 113.174 37.333 113.174 64Z" fill="#6398FF"/>
<path d="M76.9599 102.226C50.2929 102.226 28.6748 80.6074 28.6748 53.9404C28.6748 41.8672 33.1074 30.8281 40.4326 22.3623C26.1748 30.7549 16.6045 46.2588 16.6045 64C16.6045 90.6669 38.2217 112.285 64.8886 112.285C79.4814 112.285 92.5624 105.81 101.416 95.579C94.2431 99.8007 85.8857 102.226 76.9599 102.226Z" fill="#2157C2"/>
<path d="M64.8886 112.285C77.207 112.285 88.4453 107.67 96.9755 100.077L79.5752 76.8759C79.1953 76.3691 78.5986 76.0712 77.9658 76.0712L64.581 76.0712C63.5976 76.0712 62.7588 75.3603 62.5967 74.3896L60.8652 64C60.8652 64 58.8535 57.9648 56.8408 57.9648C55.3857 57.9648 53.9297 53.7519 53.2363 51.4228C52.9746 50.5439 53.3447 49.6006 54.1308 49.1289L62.8769 43.8808C62.8769 43.8808 80.9834 37.8457 82.9951 35.834C83.9961 34.834 87.9785 29.3603 91.7314 23.8603C84.0546 18.7168 74.8222 15.7148 64.8886 15.7148C47.0166 15.7148 31.4141 25.4258 23.0654 39.8574L32.6992 39.8574L40.4033 45.6357C40.6299 45.8056 40.8174 46.0205 40.9551 46.2685L50.8056 64L52.7324 81.3417C52.7871 81.8339 52.6582 82.33 52.3701 82.7334L42.7578 96.1894L31.0459 98.4355C39.7598 106.999 51.706 112.285 64.8886 112.285Z" fill="#74D8F3"/>
<path d="M23.0654 39.8574L30.7637 39.8574C32.7519 33.3301 36.082 27.3887 40.4365 22.3564C33.2451 26.5898 27.2451 32.6318 23.0654 39.8574Z" fill="#3DB5D4"/>
<path d="M46.2949 91.2383L42.7578 96.1894L31.0459 98.4355C39.7598 106.999 51.706 112.285 64.8886 112.285C77.207 112.285 88.4453 107.67 96.9755 100.077L95.7451 98.4346C89.9707 100.876 83.623 102.226 76.9599 102.226C65.3154 102.226 54.6347 98.1035 46.2949 91.2383Z" fill="#3DB5D4"/>
<path d="M94.9951 38.2715L93.335 48.2353C93.1729 49.206 92.334 49.917 91.3506 49.917L82.6328 49.917C81.6739 49.917 80.8477 50.5937 80.6602 51.5342L79.1602 59.0332C79.041 59.6299 79.1973 60.248 79.5869 60.7158L88.6729 71.6181C88.9033 71.8945 89.2022 72.1035 89.5401 72.2246C91.0371 72.7588 95.4219 74.415 97.0781 76.0713C98.1113 77.1045 103.395 81.3252 108.287 85.1845C111.415 78.7881 113.173 71.5996 113.173 64C113.173 51.083 108.101 39.3506 99.8389 30.6855L95.3057 37.4863C95.1485 37.7236 95.042 37.9912 94.9951 38.2715Z" fill="#74D8F3"/>
<path d="M9.31714 128C6.66772 128 4.5896 127.259 3.11011 125.778C2.32398 124.993 2.32398 123.72 3.11011 122.933C3.89624 122.147 5.16968 122.148 5.95483 122.933C8.22925 125.208 16.031 124.299 31.1062 114.928C45.0388 106.267 61.5329 92.6766 77.5485 76.661C93.5651 60.6444 107.155 44.1512 115.816 30.2176C125.187 15.1424 126.095 7.34069 123.821 5.06628C123.036 4.28112 123.036 3.00671 123.821 2.22156C124.607 1.43542 125.882 1.4364 126.667 2.22156C129.125 4.68054 129.546 8.78698 127.916 14.4276C126.502 19.3212 123.581 25.3495 119.233 32.3426C110.415 46.5291 96.6218 63.2782 80.3942 79.5057C64.1667 95.7332 47.4167 109.526 33.2312 118.345C26.238 122.692 20.2107 125.613 15.3162 127.027C13.071 127.676 11.0691 128 9.31714 128Z" fill="#B6ABB6"/>
<path d="M96.0957 103.273L88.9824 73.3976C88.8984 73.0431 88.6289 72.7618 88.2783 72.6622C87.9267 72.5626 87.5508 72.6612 87.293 72.919L74.4893 85.7227C74.1582 86.0538 74.0996 86.5694 74.3477 86.9669L88.5742 109.729C88.9111 110.269 89.6875 110.357 90.1377 109.907L95.8281 104.217C96.0752 103.97 96.1767 103.612 96.0957 103.273Z" fill="#FFAB6F"/>
<path d="M80.4367 64.8213C80.3371 64.4698 80.0569 64.2002 79.7024 64.1163L49.8274 57.003C49.4875 56.9219 49.1301 57.0235 48.883 57.2706L43.1926 62.961C42.7424 63.4112 42.8313 64.1876 43.3704 64.5254L66.1321 78.751C66.2971 78.8545 66.4817 78.9043 66.6653 78.9043C66.925 78.9043 67.1828 78.8038 67.3762 78.6094L80.1799 65.8067C80.4377 65.5489 80.5363 65.1719 80.4367 64.8213Z" fill="#FFAB6F"/>
<path d="M64.8001 111.815L60.5326 93.3204C60.4505 92.964 60.181 92.6808 59.8294 92.5802C59.4789 92.4796 59.1 92.5772 58.8412 92.836L50.306 101.371C49.9789 101.697 49.9164 102.204 50.1546 102.6L58.6898 116.826C59.0209 117.378 59.808 117.476 60.264 117.02L64.5316 112.752C64.7767 112.507 64.8792 112.152 64.8001 111.815Z" fill="#FFAB6F"/>
<path d="M60.5197 93.2695C60.4191 92.9179 60.135 92.6484 59.7785 92.5664L41.2854 88.2988C40.9475 88.2207 40.593 88.3222 40.3479 88.5674L36.0793 92.8359C35.6242 93.291 35.7219 94.0781 36.2736 94.4092L50.4992 102.945C50.6604 103.041 50.8391 103.089 51.0168 103.089C51.2766 103.089 51.5344 102.988 51.7277 102.794L60.2639 94.2588C60.5227 94 60.6203 93.6211 60.5197 93.2695Z" fill="#FFAB6F"/>
<path d="M102.941 50.1572C101.614 48.83 99.2334 48.6201 96.2373 49.5644C93.8769 50.3086 91.4824 51.6582 90.1377 53.0029L50.3057 92.8359C47.5596 95.581 47.5596 100.048 50.3057 102.794C51.6777 104.166 53.4814 104.852 55.2842 104.852C57.0879 104.852 58.8906 104.167 60.2637 102.794L100.097 62.9609C101.441 61.6162 102.791 59.2226 103.535 56.8613C104.479 53.8652 104.269 51.4843 102.941 50.1572Z" fill="#F0EEF0"/>
<path d="M102.941 50.1572C102.423 49.6396 101.742 49.2939 100.929 49.1182C101.203 50.3887 101.059 51.9834 100.482 53.8096C99.7382 56.1709 98.3886 58.5644 97.0439 59.9092L57.2119 99.7421C55.8389 101.114 54.0352 101.801 52.2324 101.801C51.1279 101.801 50.0244 101.542 49.0195 101.027C49.3457 101.664 49.7734 102.262 50.3057 102.794C51.6777 104.167 53.4814 104.853 55.2842 104.853C57.0879 104.853 58.8906 104.167 60.2637 102.794L100.097 62.9609C101.441 61.6162 102.791 59.2226 103.535 56.8623C104.479 53.8652 104.269 51.4844 102.941 50.1572Z" fill="#D3CCD3"/>
<path d="M51.0165 104.095C50.5038 104.095 49.9911 103.899 49.5985 103.51C48.8104 102.727 48.8056 101.453 49.5888 100.665L59.4374 90.7479C60.2206 89.9599 61.494 89.955 62.2821 90.7382C63.0702 91.5214 63.0751 92.7958 62.2919 93.5839L52.4442 103.5C52.0507 103.896 51.5341 104.095 51.0165 104.095Z" fill="#FCD25E"/>
</g>
<defs>
<clipPath id="clip0_49_255">
<rect width="128" height="128" fill="white" transform="translate(0.888672)"/>
</clipPath>
</defs>
</svg>
