<svg width="111" height="110" viewBox="0 0 111 110" fill="none" xmlns="http://www.w3.org/2000/svg">
<path d="M0.888672 62.7797V55C0.888672 24.7908 25.6825 0 55.8887 0C65.5126 0 74.9855 2.75773 83.2875 7.56959L80.0524 13.1463C72.732 8.90398 64.3795 6.66016 55.8887 6.66016C32.1467 6.66016 12.1302 23.8687 8.08938 46.4649L11.5009 43.0534L16.0579 47.6104L0.888672 62.7797Z" fill="#C6F243"/>
<path d="M55.8886 110C46.2646 110 36.7917 107.242 28.4897 102.43L31.7251 96.8536C39.0452 101.096 47.3977 103.34 55.8886 103.34C79.6305 103.34 99.6471 86.1312 103.688 63.535L100.276 66.9465L95.7193 62.3895L110.889 47.2202V54.9999C110.889 85.2091 86.0947 110 55.8886 110Z" fill="#FF7A4D"/>
<path d="M88.7593 41.7871L42.9978 35.6641L21.0195 61.4453C24.0486 77.8809 38.5506 90.4492 55.8885 90.4492C75.418 90.4492 91.3377 74.5291 91.3377 55C91.3377 50.2947 90.4353 45.8474 88.7593 41.7871Z" fill="#66CCFF"/>
<path d="M88.7596 41.7871L75.2246 48.5547V61.4453L62.334 67.8906V61.4453H55.8887L49.4434 55V48.5547H42.998L36.5527 55V61.4453H21.0197C20.633 59.3828 20.4395 57.1912 20.4395 55C20.4395 35.4705 36.3592 19.5508 55.8887 19.5508C70.7773 19.5508 83.5388 28.7676 88.7596 41.7871Z" fill="#97DE3D"/>
<path d="M110.889 54.9999V47.2202L95.7196 62.3893L100.277 66.9463L103.688 63.5348C99.6472 86.1312 79.6306 103.34 55.8887 103.34V110C86.0948 110 110.889 85.2091 110.889 54.9999Z" fill="#E64545"/>
<path d="M80.0524 13.1463L83.2877 7.56959C74.9855 2.75773 65.5126 0 55.8887 0V6.66016C64.3795 6.66016 72.732 8.90398 80.0524 13.1463Z" fill="#97DE3D"/>
<path d="M55.8887 37.3892V90.4493C75.4182 90.4493 91.3379 74.5292 91.3379 55.0001C91.3379 50.2948 90.4355 45.8476 88.7595 41.7872L55.8887 37.3892Z" fill="#5C80E6"/>
<path d="M62.334 61.4453V67.8906L75.2246 61.4453V48.5547L88.7595 41.7871C83.5388 28.7676 70.7773 19.5508 55.8887 19.5508V61.4453H62.334Z" fill="#59C36A"/>
<path d="M97.7832 0L94.5605 6.66016L91.3379 0H78.4473V32.4414H110.889V0H97.7832Z" fill="#FFD580"/>
<path d="M110.889 32.4414V0H97.7832L94.5605 6.66016V32.4414H110.889Z" fill="#FFB366"/>
<path d="M91.3379 0H97.7832V13.1055H91.3379V0Z" fill="#FFE6B3"/>
<path d="M94.5605 0H97.7832V13.1055H94.5605V0Z" fill="#FFD580"/>
<path d="M20.4395 77.5586L17.2168 84.0039L13.9941 77.5586H0.888672V110H33.3301V77.5586H20.4395Z" fill="#FFD580"/>
<path d="M33.3301 110V77.5586H20.4395L17.2168 84.0039V110H33.3301Z" fill="#FFB366"/>
<path d="M13.9941 77.5586H20.4395V90.4492H13.9941V77.5586Z" fill="#FFE6B3"/>
<path d="M17.2168 77.5586H20.4395V90.4492H17.2168V77.5586Z" fill="#FFD580"/>
</svg>
