<svg width="153" height="96" viewBox="0 0 153 96" fill="none" xmlns="http://www.w3.org/2000/svg">
<path d="M121.071 49.2913H114.285C110.964 49.2913 108.272 46.5989 108.272 43.2781C108.272 39.957 110.964 37.2649 114.285 37.2649H121.071C124.392 37.2649 127.084 39.9573 127.084 43.2781C127.084 46.5989 124.392 49.2913 121.071 49.2913Z" fill="#FFAF40"/>
<path d="M123.323 59.8623H135.313C142.599 59.8623 148.505 67.9263 148.505 77.8737C148.505 87.8211 142.599 95.8851 135.313 95.8851H123.745L123.323 59.8623Z" fill="#44433F"/>
<path d="M123.744 95.8851C131.03 95.8851 136.936 87.8211 136.936 77.8737C136.936 67.9263 131.03 59.8623 123.744 59.8623C116.459 59.8623 110.553 67.9263 110.553 77.8737C110.553 87.8211 116.459 95.8851 123.744 95.8851Z" fill="#595751"/>
<path d="M61.1069 59.8623H73.0971C80.3827 59.8623 86.2888 67.9263 86.2888 77.8737C86.2888 87.8211 80.3827 95.8851 73.0971 95.8851H61.5288L61.1069 59.8623Z" fill="#44433F"/>
<path d="M121.421 43.0564L106.832 24.7116C102.005 18.6426 94.6739 15.106 86.9196 15.106H39.8922C36.6749 15.106 34.0669 17.714 34.0669 20.9312V79.9339C34.0669 83.1512 36.6749 85.7592 39.8922 85.7592H148.519C150.932 85.7592 152.888 83.8031 152.888 81.3904V70.0079C152.888 61.6367 147.977 54.0438 140.343 50.6098L121.421 43.0564Z" fill="#FFC751"/>
<path d="M152.889 70.0079V81.3919C152.889 83.8022 150.93 85.7601 148.52 85.7601H102.742C119.641 79.9511 133.17 66.9055 139.631 50.3271L140.342 50.611C147.978 54.0434 152.889 61.636 152.889 70.0079Z" fill="#FFAF40"/>
<path d="M89.8496 58.1733H144.021V69.2171H89.8496V58.1733Z" fill="#595751"/>
<path d="M144.021 58.1719V69.2159H118.553C122.987 67.2079 126.267 63.1077 127.14 58.1719H144.021Z" fill="#44433F"/>
<path d="M71.172 45.0624L59.0259 25.7878C57.8037 23.8483 59.1975 21.3225 61.49 21.3225H101.326C103.101 21.3225 104.78 22.1324 105.885 23.5218L121.42 43.0564C122.938 44.9647 121.579 47.7821 119.14 47.7821H76.1004C74.0997 47.7818 72.2389 46.7549 71.172 45.0624Z" fill="#B6F0FF"/>
<path d="M87.3088 21.3235H66.9443C64.075 21.3235 61.749 23.6495 61.749 26.5188C61.749 29.3881 64.075 31.7141 66.9443 31.7141H87.3088C90.1781 31.7141 92.5041 29.3881 92.5041 26.5188C92.5041 23.6495 90.1781 21.3235 87.3088 21.3235Z" fill="#DCFEFF"/>
<path d="M80.5944 21.3235H79.3838C76.5145 21.3235 74.1885 23.6495 74.1885 26.5188C74.1885 29.3881 76.5145 31.7141 79.3838 31.7141H80.5944C83.4637 31.7141 85.7898 29.3881 85.7898 26.5188C85.7898 23.6495 83.4637 21.3235 80.5944 21.3235Z" fill="white"/>
<path d="M119.143 47.7826H100.855C103.443 44.3652 104.977 40.1092 104.977 35.4914C104.977 29.9849 102.795 24.99 99.2495 21.323H101.326C103.1 21.323 104.781 22.1305 105.885 23.5211L121.422 43.0554C122.937 44.964 121.581 47.7826 119.143 47.7826Z" fill="#73E1FF"/>
<path d="M60.1217 45.5493L45.2833 22.0024C45.0167 21.5793 44.5515 21.3225 44.0513 21.3225H37.1846V47.7821H58.8894C60.0359 47.7818 60.733 46.5189 60.1217 45.5493Z" fill="#A0DAF2"/>
<path d="M61.5286 95.8851C68.8141 95.8851 74.7202 87.8211 74.7202 77.8737C74.7202 67.9263 68.8141 59.8623 61.5286 59.8623C54.243 59.8623 48.3369 67.9263 48.3369 77.8737C48.3369 87.8211 54.243 95.8851 61.5286 95.8851Z" fill="#595751"/>
<path d="M61.5288 86.247C64.9159 86.247 67.6617 82.4981 67.6617 77.8736C67.6617 73.2491 64.9159 69.5002 61.5288 69.5002C58.1418 69.5002 55.396 73.2491 55.396 77.8736C55.396 82.4981 58.1418 86.247 61.5288 86.247Z" fill="#E8E4D8"/>
<path d="M57.596 49.2913H50.8101C47.4889 49.2913 44.7969 46.5989 44.7969 43.2781C44.7969 39.957 47.4892 37.2649 50.8101 37.2649H57.596C60.9172 37.2649 63.6093 39.9573 63.6093 43.2781C63.6093 46.5989 60.9172 49.2913 57.596 49.2913Z" fill="#FFAF40"/>
<path d="M101.864 63.4648L99.2688 60.2357C98.2205 58.9319 96.6379 58.1733 94.965 58.1733H84.9867C81.9372 58.1733 79.4648 60.6454 79.4648 63.6952C79.4648 66.7447 81.9369 69.2171 84.9867 69.2171H99.1079C102.077 69.2171 103.725 65.779 101.864 63.4648Z" fill="#FFF7C7"/>
<path d="M133.457 63.4648L136.052 60.2357C137.1 58.9319 138.683 58.1733 140.356 58.1733H147.366C150.415 58.1733 152.888 60.6454 152.888 63.6952C152.888 66.7447 150.416 69.2171 147.366 69.2171H136.213C133.244 69.2171 131.596 65.779 133.457 63.4648Z" fill="#FFF7C7"/>
<path d="M138.826 85.7593H99.3071L101.054 79.6831C101.744 77.2808 103.942 75.6257 106.442 75.6257H131.691C134.191 75.6257 136.389 77.2808 137.079 79.6831L138.826 85.7593Z" fill="#E8E4D8"/>
<path d="M146.384 81.9443C148.233 81.9443 149.732 80.1832 149.732 78.0107C149.732 75.8383 148.233 74.0771 146.384 74.0771C144.535 74.0771 143.036 75.8383 143.036 78.0107C143.036 80.1832 144.535 81.9443 146.384 81.9443Z" fill="#FFF7C7"/>
<path d="M90.9224 81.9443C93.0032 81.9443 94.6901 80.1832 94.6901 78.0107C94.6901 75.8383 93.0032 74.0771 90.9224 74.0771C88.8416 74.0771 87.1548 75.8383 87.1548 78.0107C87.1548 80.1832 88.8416 81.9443 90.9224 81.9443Z" fill="#FFF7C7"/>
<path d="M112.651 58.1733H77.6914C74.8221 58.1733 72.4961 55.8473 72.4961 52.978C72.4961 50.1087 74.8221 47.7827 77.6914 47.7827H112.651C115.52 47.7827 117.846 50.1087 117.846 52.978C117.846 55.8473 115.52 58.1733 112.651 58.1733Z" fill="#FFE059"/>
<path d="M92.7984 47.7827H86.4648C83.5955 47.7827 81.2695 50.1087 81.2695 52.978C81.2695 55.8473 83.5955 58.1733 86.4648 58.1733H92.7984C95.6677 58.1733 97.9937 55.8473 97.9937 52.978C97.994 50.1087 95.668 47.7827 92.7984 47.7827Z" fill="#FFF370"/>
<path d="M138.826 85.7602H122.472C125.656 83.2285 128.007 79.6894 129.045 75.6267H131.692C134.19 75.6267 136.388 77.2794 137.08 79.6832L138.826 85.7602Z" fill="#D8D4C9"/>
<path d="M71.0487 35.1952C71.0487 15.8464 55.3838 0.155985 36.0445 0.115313C16.804 0.0743442 0.830052 16.0637 0.888834 35.3045C0.921787 46.1223 5.8514 55.7877 13.5773 62.2008C23.4985 70.4361 30.4653 81.6823 33.7291 94.1561C34.3324 96.4613 37.6048 96.4613 38.2081 94.1561L38.269 93.9234C41.5061 81.552 48.4271 70.4014 58.2884 62.2599C66.0817 55.8257 71.0487 46.0906 71.0487 35.1952Z" fill="#FE255F"/>
<path d="M71.0483 35.1947C71.0483 46.0903 66.0822 55.8263 58.2895 62.2608C48.4282 70.4011 41.5054 81.5515 38.2694 93.9228L38.2077 94.1568C37.9067 95.3089 36.9377 95.8852 35.9687 95.8852C34.9997 95.8852 34.031 95.3089 33.7296 94.1568C31.0456 83.8971 25.8568 74.4698 18.5786 66.8641C21.3639 67.4944 24.2611 67.8257 27.2373 67.8257C48.8622 67.8257 66.3927 50.2953 66.3927 28.6703C66.3927 23.0944 65.2275 17.7895 63.125 12.9861C68.076 19.0352 71.0483 26.7679 71.0483 35.1947Z" fill="#E01152"/>
<path d="M35.9689 58.2789C48.8668 58.2789 59.3226 47.8231 59.3226 34.9252C59.3226 22.0273 48.8668 11.5715 35.9689 11.5715C23.071 11.5715 12.6152 22.0273 12.6152 34.9252C12.6152 47.8231 23.071 58.2789 35.9689 58.2789Z" fill="#F9F8F2"/>
<path d="M59.3216 34.9251C59.3216 47.5111 49.3639 57.7735 36.896 58.2595C45.6734 53.0826 51.5628 43.5294 51.5628 32.6012C51.5628 25.1386 48.8161 18.317 44.2784 13.0935C53.0727 16.4446 59.3216 24.9543 59.3216 34.9251Z" fill="#F1EEE0"/>
<path d="M0.888838 35.3042C0.892104 36.3555 0.941979 37.3957 1.03638 38.4229C1.38195 42.1896 5.1861 44.5994 8.75395 43.3427C8.79106 43.3296 8.82817 43.3166 8.86557 43.3035C11.4074 42.4102 12.9954 39.9052 12.7297 37.2238C12.6546 36.4674 12.616 35.7003 12.616 34.9239C12.616 23.6934 20.5452 14.3184 31.1122 12.0841C33.7832 11.5192 35.7179 9.20119 35.7179 6.47113C35.7179 2.8546 32.3989 0.111771 28.8607 0.859005C12.9853 4.21221 0.836885 18.5201 0.888838 35.3042Z" fill="#FC709B"/>
<path d="M20.9386 17.0651C22.118 16.0714 23.397 15.1927 24.7587 14.4455C27.0497 13.1885 28.1841 10.5291 27.4974 8.00743C26.5115 4.38615 22.3894 2.69247 19.1122 4.52152C17.1908 5.59383 15.3769 6.84219 13.6927 8.24285C10.789 10.6579 10.9446 15.1621 14.0229 17.3504C16.1238 18.8437 18.9673 18.7255 20.9386 17.0651Z" fill="#F7A6C1"/>
</svg>
